<ttFont>
          <CharString index="0">
            519 90 rmoveto
            -259 hlineto
            -26 -20 -1 -2 -20 hvcurveto
            19 1 14 18 vvcurveto
            164 vlineto
            -1 23 24 0 15 hhcurveto
            188 -58 callgsubr
            -188 hlineto
            -15 -24 -55 callsubr
            23 -74 callgsubr
            -402 -3 callsubr
            -612 vlineto
            -41 23 -25 38 vhcurveto
            return
          </CharString>
          <CharString index="1">
            -107 callsubr
            297 hlineto
            38 24 16 34 6 hvcurveto
            -8 callgsubr
            return
          </CharString>
          <CharString index="2">
            161 342 rmoveto
            121 28 148 140 139 28 -148 -121 -121 -28 -149 -139 -140 -28 149 121 vhcurveto
            -112 hmoveto
            -109 28 -118 79 -68 vhcurveto
            -36 41 52 -24 80 hhcurveto
            80 52 24 36 41 hvcurveto
            79 68 27 118 109 vvcurveto
            108 -27 118 -79 68 vhcurveto
            36 -41 -52 24 -80 hhcurveto
            -80 -52 -24 -36 -41 hvcurveto
            -79 -68 -28 2 callgsubr
            return
          </CharString>
          <CharString index="3">
            hintmask 11101000
            -106 callsubr
            return
          </CharString>
          <CharString index="4">
            149 272 rmoveto
            -77 callgsubr
            -109 hmoveto
            -23 callgsubr
            46 -19 72 hhcurveto
            74 46 19 29 38 hvcurveto
            71 55 27 96 86 -66 callsubr
            -9 callgsubr
            return
          </CharString>
          <CharString index="5">
            44 -28 78 -31 101 1 rrcurveto
            129 1 84 65 100 vvcurveto
            78 -61 52 -80 28 vhcurveto
            -100 35 rlineto
            -45 16 -25 13 32 vvcurveto
            38 33 28 55 vhcurveto
            49 1 65 -15 50 -22 rrcurveto
            22 17 14 33 30 vvcurveto
            22 -49 -76 20 -73 hhcurveto
            -127 -2 -73 -70 -90 vvcurveto
            -73 53 -43 79 -27 vhcurveto
            102 -35 rlineto
            50 -17 25 -26 -33 vvcurveto
            -44 -47 -27 -55 -1 vhcurveto
            -71 -1 -63 27 -47 27 rrcurveto
            -23 -15 -18 -36 -28 vvcurveto
            return
          </CharString>
          <CharString index="6">
            rmoveto
            -17 -6 -22 -18 -11 -22 98 -126 rcurveline
            24 -6 40 -2 23 9 107 134 rcurveline
            -12 22 -18 15 -18 6 -101 -97 rcurveline
            endchar
          </CharString>
          <CharString index="7">
            461 46 rmoveto
            -23 20 -5 28 -86 callsubr
            64 51 33 35 36 hvcurveto
            13 -31 26 -23 41 76 callsubr
            24 6 19 rrcurveto
            -248 23 -56 callgsubr
            return
          </CharString>
          <CharString index="8">
            62 113 rmoveto
            -10 -15 -4 -16 74 callgsubr
            -11 12 -46 vhcurveto
            380 hlineto
            49 25 21 38 18 -4 19 -5 15 hvcurveto
            -13 -26 -39 -6 -53 hhcurveto
            -104 hlineto
            -31 -47 -2 -4 -42 hvcurveto
            -3 3 26 34 31 41 21 32 rlinecurve
            251 376 rlineto
            10 15 4 14 13 vvcurveto
            10 -1 11 -14 48 vhcurveto
            -412 hlineto
            -5 -18 -3 -17 -19 vvcurveto
            -11 1 -13 44 callgsubr
            161 hlineto
            30 93 2 6 33 hvcurveto
            3 -3 -28 -37 -30 -38 -21 -31 rlinecurve
            return
          </CharString>
          <CharString index="9">
            583 687 rmoveto
            -35 hlineto
            -43 -14 -19 -47 hvcurveto
            -249 vlineto
            -69 3 -103 5 -80 vhcurveto
            -4 -1 -19 41 -22 52 -25 52 rlinecurve
            -211 419 rlineto
            3 -21 -29 1 -14 hhcurveto
            -13 -33 -2 -3 -17 hvcurveto
            -682 vlineto
            -3 17 19 -1 14 hhcurveto
            14 -5 callsubr
            18 hvcurveto
            312 vlineto
            75 -5 101 -4 69 vhcurveto
            4 1 18 -42 21 -47 24 -50 rlinecurve
            213 -419 rlineto
            -3 21 30 -1 13 hhcurveto
            13 34 2 3 17 hvcurveto
            681 vlineto
            return
          </CharString>
          <CharString index="10">
            34 callgsubr
            -31 34 -50 vhcurveto
            -14 hlineto
            -14 -24 -1 -3 -25 -70 callgsubr
            11 hlineto
            33 11 -16 -36 hvcurveto
            -366 -64 callsubr
            return
          </CharString>
          <CharString index="11">
            28 45 rmoveto
            -102 callsubr
            return
          </CharString>
          <CharString index="12">
            -55 28 rlineto
            8 -16 -19 7 -22 hhcurveto
            -44 -36 -29 -44 -20 hvcurveto
            -9 -20 rlineto
            -19 8 23 35 callgsubr
            11 -47 callgsubr
            11 12 -4 -5 9 hvcurveto
            endchar
          </CharString>
          <CharString index="13">
            4 -16 -23 1 -15 -20 callgsubr
            -351 vlineto
            -80 -40 -44 -82 -82 -41 44 80 vhcurveto
            287 vlineto
            48 -18 20 -42 vhcurveto
            -40 hlineto
            -5 -6 rlineto
            -349 vlineto
            -135 87 -73 141 141 86 73 135 vhcurveto
            return
          </CharString>
          <CharString index="14">
            rmoveto
            -16 -5 -22 -17 -8 -23 112 -106 rcurveline
            25 -5 42 1 25 5 115 113 rcurveline
            -6 20 -23 19 -17 6 -115 -82 rcurveline
            endchar
          </CharString>
          <CharString index="15">
            rmoveto
            -14 3 -18 6 -12 vhcurveto
            -8 -27 callgsubr
            8 17 callgsubr
            18 -82 callgsubr
            return
          </CharString>
          <CharString index="16">
            -92 callgsubr
            hintmask 00101000
            -95 callsubr
          </CharString>
          <CharString index="17">
            rmoveto
            -3 14 17 -1 13 hhcurveto
            13 16 1 3 12 hvcurveto
            78 57 vlineto
            5 12 2 18 14 vvcurveto
            9 -1 12 -2 9 vhcurveto
            -61 hlineto
            13 1 24 14 vvcurveto
            66 vlineto
            -3 3 rlineto
            -25 hlineto
            -35 -23 -24 -39 hvcurveto
            -33 vlineto
            -4 0 -12 1 -8 vhcurveto
            -18 hlineto
            -14 -32 0 -2 -25 hvcurveto
            -2 2 18 23 20 42 13 28 rlinecurve
            76 164 -18 15 -39 8 -27 -3 rlinecurve
            -117 -253 rlineto
            -6 -12 -9 -20 -14 vvcurveto
            -15 10 -22 10 -16 vhcurveto
            119 hlineto
            14 13 1 14 hhcurveto
            -12 -1 -12 -12 vvcurveto
            endchar
          </CharString>
          <CharString index="18">
            rmoveto
            11 37 18 63 10 45 rrcurveto
            5 hlineto
            14 -53 21 -70 18 -58 46 -145 rcurveline
            -16 -27 1 -7 hhcurveto
            -100 hlineto
            -8 -27 -1 -16 hhcurveto
            return
          </CharString>
          <CharString index="19">
            hintmask 11010000
            -98 callgsubr
            hintmask 00101000
            return
          </CharString>
          <CharString index="20">
            100 hintmask 11010100
            532 550 rmoveto
            -37 hlineto
            -42 -16 -15 -46 hvcurveto
            -176 vlineto
            -44 6 -97 4 -54 vhcurveto
            -5 -1 -15 30 -28 59 -17 29 rlinecurve
            -177 311 rlineto
            3 -17 -30 1 -14 hhcurveto
            -12 -31 -2 -4 -17 hvcurveto
            75 callsubr
            17 21 -1 12 hhcurveto
            14 -5 callsubr
            18 hvcurveto
            230 vlineto
            37 -3 94 -3 60 vhcurveto
            3 1 16 -30 25 -53 18 -29 rlinecurve
            176 -310 rlineto
            -3 16 32 -1 14 hhcurveto
            13 30 2 3 17 hvcurveto
            543 vlineto
            return
          </CharString>
          <CharString index="21">
            38 vvcurveto
            205 vlineto
            114 -65 53 -99 -67 -84 -21 -25 -56 vhcurveto
            1 -26 12 -33 17 -16 rrcurveto
            20 52 55 18 50 hhcurveto
            52 30 -26 -63 hvcurveto
            -39 vlineto
            5 -33 -36 2 -27 hhcurveto
            -109 -83 -52 -114 -71 48 -76 100 return
          </CharString>
          <CharString index="22">
            rmoveto
            15 5 23 17 7 23 -112 106 rcurveline
            -25 5 -41 0 -26 -5 -114 -113 rcurveline
            6 -20 23 -20 16 -6 115 83 rcurveline
            endchar
          </CharString>
          <CharString index="23">
            vvcurveto
            58 hlineto
            202 -52 callgsubr
            -363 hlineto
            -5 -6 rlineto
            -478 vlineto
            -39 24 -24 37 vhcurveto
            return
          </CharString>
          <CharString index="24">
            232 165 rmoveto
            -29 callsubr
            37 -117 rlineto
            -44 13 17 -12 33 hhcurveto
            23 24 4 10 15 hvcurveto
            -224 return
          </CharString>
          <CharString index="25">
            107 -13 80 323 81 148 80 hstem
            105 105 127 109 38 110 vstem
            105 hmoveto
            -38 callgsubr
            495 vlineto
            75 34 49 79 78 38 -57 -67 -12 -2 -12 -2 -11 vhcurveto
            -61 -24 -37 -47 -48 vvcurveto
            -41 24 -33 42 -37 vhcurveto
            41 -35 rlineto
            23 -20 17 -22 -26 vvcurveto
            -35 -34 -25 -47 -25 -32 8 15 -28 vhcurveto
            -19 -17 -14 -34 -1 -23 rrcurveto
            -19 38 52 -10 37 hhcurveto
            109 74 57 84 46 -29 44 -45 40 hvcurveto
            -37 33 rlineto
            -27 23 -10 16 18 vvcurveto
            25 23 34 59 14 vhcurveto
            -2 1 rlineto
            2 hlineto
            10 27 5 28 23 vvcurveto
            121 -86 78 -133 -130 -89 -68 -125 vhcurveto
            -35 vlineto
            -86 2 rlineto
            -3 -13 -1 -15 -13 19 callsubr
            -17 44 callgsubr
            86 1 rlineto
            endchar
          </CharString>
          <CharString index="26">
            -92 callgsubr
            hintmask 01100000
            -95 callsubr
          </CharString>
          <CharString index="27">
            -58 callsubr
            70 70 22 34 48 vhcurveto
            -69 callsubr
            return
          </CharString>
          <CharString index="28">
            476 247 rmoveto
            82 -18 70 -53 53 vhcurveto
            37 -37 -49 18 -59 -17 callsubr
            -83 18 -69 -37 callsubr
            69 83 vvcurveto
            -325 hmoveto
            -33 callsubr
            return
          </CharString>
          <CharString index="29">
            -12 3 -26 -19 callgsubr
            14 26 -5 22 hhcurveto
            20 29 5 8 12 -36 callsubr
            -13 -28 6 -20 hhcurveto
            -22 -26 -6 -8 -14 hvcurveto
            -6 -11 -3 -26 -12 vvcurveto
            return
          </CharString>
          <CharString index="30">
            -4 11 -15 callsubr
            15 -5 callsubr
            13 hvcurveto
            43 123 rlineto
            14 30 -1 9 hhcurveto
            return
          </CharString>
          <CharString index="31">
            36 callgsubr
            hintmask 11001010
            19 callgsubr
            hintmask 10101010
            -94 callsubr
            hintmask 00010100
            return
          </CharString>
          <CharString index="32">
            580 28 rmoveto
            -22 18 -10 21 -13 33 -54 145 rcurveline
            -26 68 -28 42 -67 13 15 13 13 17 12 20 151 256 rcurveline
            -7 9 rlineto
            2 -21 -22 1 -18 hhcurveto
            -35 -12 -14 -29 -17 hvcurveto
            -128 -217 rlineto
            -20 -11 -7 -8 -20 hhcurveto
            -56 -2 rlineto
            287 -39 callsubr
            305 vlineto
            2 31 23 0 14 hhcurveto
            59 32 -27 -75 28 hvcurveto
            54 -147 rlineto
            -42 15 13 -22 42 hhcurveto
            26 32 12 22 14 hvcurveto
            return
          </CharString>
          <CharString index="33">
            hintmask 10010000
            94 hmoveto
            -25 callgsubr
            16 21 -7 callgsubr
            683 47 callsubr
            -16 hhcurveto
            -16 32 callgsubr
            return
          </CharString>
          <CharString index="34">
            527 28 rmoveto
            -18 15 -13 25 -13 29 -49 108 rcurveline
            -22 48 -24 33 -53 11 14 11 12 16 12 18 129 196 rcurveline
            -8 8 rlineto
            2 -18 -29 1 -13 hhcurveto
            -36 -12 -14 -25 -16 hvcurveto
            -104 -162 rlineto
            -18 -12 -4 -5 -21 hhcurveto
            -40 -1 rlineto
            return
          </CharString>
          <CharString index="35">
            110 hintmask 11010100
            -101 callgsubr
            hintmask 00101000
            return
          </CharString>
          <CharString index="36">
            108 hintmask 11010100
            -100 callgsubr
            hintmask 00101000
            return
          </CharString>
          <CharString index="37">
            rmoveto
            -62 50 -51 71 71 50 51 62 63 -50 51 -71 -71 -50 -51 -63 vhcurveto
            71 hmoveto
            31 21 24 29 29 21 -24 -31 -31 -21 -23 -29 -29 -21 23 31 vhcurveto
            endchar
          </CharString>
          <CharString index="38">
            -4 21 -12 29 18 callgsubr
            -47 -16 -50 hhcurveto
            -85 -27 60 83 -4 hvcurveto
            102 216 rmoveto
            72 28 -58 -70 hvcurveto
            -13 -202 vlineto
            88 5 33 53 64 hhcurveto
            return
          </CharString>
          <CharString index="39">
            8 -13 callsubr
            -7 -11 hvcurveto
            -6 -9 -4 -25 -16 vvcurveto
            -17 4 -22 6 -9 vhcurveto
            8 -7 21 -3 13 -2 -2 -39 -35 -31 -33 -15 -51 callgsubr
            17 vhcurveto
            return
          </CharString>
          <CharString index="40">
            7 -13 callsubr
            -6 71 callgsubr
            -24 -17 vvcurveto
            -17 4 -22 5 -9 vhcurveto
            9 -7 20 -3 14 -2 -2 -39 -35 -30 -33 -16 -51 callgsubr
            18 vhcurveto
            return
          </CharString>
          <CharString index="41">
            vvcurveto
            87 -27 96 -71 56 vhcurveto
            29 -38 -46 19 -74 hhcurveto
            -72 -46 -19 -29 -38 hvcurveto
            return
          </CharString>
          <CharString index="42">
            rmoveto
            14 13 3 12 12 vvcurveto
            13 -9 22 -7 14 vhcurveto
            -244 hlineto
            -5 -13 -1 -16 -10 vvcurveto
            -8 0 -13 5 -14 vhcurveto
            80 hlineto
            22 39 1 4 18 hvcurveto
            2 -3 -12 -8 -17 -14 -10 -10 rlinecurve
            -79 -79 4 -20 16 -21 15 -6 rlinecurve
            6 12 16 3 13 hhcurveto
            44 24 -30 -39 -46 -34 -24 -46 -35 -30 14 19 -28 hvcurveto
            -16 -14 -15 -24 -4 -23 rrcurveto
            -25 32 49 -19 60 hhcurveto
            78 80 46 94 77 -54 50 -67 hvcurveto
            11 7 10 7 8 8 rrcurveto
            return
          </CharString>
          <CharString index="43">
            vlineto
            -3 14 19 -59 callgsubr
            return
          </CharString>
          <CharString index="44">
            -9 callsubr
            16 -5 callsubr
            13 hvcurveto
            53 167 rlineto
            return
          </CharString>
          <CharString index="45">
            -31 callsubr
            213 vlineto
            1 16 15 1 15 hhcurveto
            46 18 -14 -52 21 hvcurveto
            40 -98 rlineto
            -38 15 14 -20 37 hhcurveto
            26 28 15 17 15 hvcurveto
            -22 15 -13 29 -13 34 rrcurveto
            return
          </CharString>
          <CharString index="46">
            rmoveto
            -21 -22 -14 -29 -5 -29 rrcurveto
            -27 44 60 -15 52 hhcurveto
            173 31 112 147 hvcurveto
            434 0 callgsubr
            -20 -14 callgsubr
            -22 -48 callgsubr
            -449 vlineto
            -107 -25 -48 -82 -37 -40 15 18 -30 vhcurveto
            return
          </CharString>
          <CharString index="47">
            44 241 rmoveto
            -150 58 -104 114 60 51 29 39 34 vhcurveto
            14 -32 25 -23 40 -7 16 10 17 24 5 19 rrcurveto
            -21 19 -7 37 39 vvcurveto
            528 vlineto
            18 callsubr
            -39 -3 callsubr
            -260 vlineto
            19 -34 -38 14 -41 hhcurveto
            -96 -96 -83 -178 hvcurveto
            196 -168 rmoveto
            -48 -43 48 119 122 45 58 56 34 34 -16 -20 31 hvcurveto
            -248 vlineto
            -44 -31 -43 -19 -35 hhcurveto
            return
          </CharString>
          <CharString index="48">
            rmoveto
            -119 hlineto
            -23 -31 -3 -5 -31 hvcurveto
            9 15 18 16 28 21 56 44 rcurveline
            50 39 32 38 62 vvcurveto
            70 -54 58 -86 -73 -51 -48 -56 -17 vhcurveto
            11 -15 33 -14 23 -2 rrcurveto
            31 12 24 25 31 hhcurveto
            31 22 -23 -30 -29 -12 -19 -32 -25 hvcurveto
            -73 -60 rlineto
            -44 -36 -32 -41 -39 vvcurveto
            -21 19 -20 10 -13 vhcurveto
            218 hlineto
            28 17 16 26 5 hvcurveto
            1 10 0 18 10 vvcurveto
            endchar
          </CharString>
          <CharString index="49">
            444 -24 callsubr
            -69 95 -129 -139 -70 -112 -149 -135 48 -124 158 return
          </CharString>
          <CharString index="50">
            -7 25 -23 29 -23 15 rrcurveto
            -48 -58 -59 -28 -62 hhcurveto
            -104 -62 93 165 177 55 95 105 108 33 -87 -76 -2 hvcurveto
            return
          </CharString>
          <CharString index="51">
            597 341 rmoveto
            116 -16 105 -90 74 vhcurveto
            36 -43 -78 22 callgsubr
            21 callsubr
            -2 87 52 -2 81 hhcurveto
            53 78 15 36 43 hvcurveto
            91 74 15 104 117 vvcurveto
            -110 hmoveto
            -118 -22 -142 -148 -42 -33 1 -1 -45 vhcurveto
            521 vlineto
            45 33 -1 42 hhcurveto
            148 22 -140 -120 hvcurveto
            return
          </CharString>
          <CharString index="52">
            -1 -23 hhcurveto
            140 vlineto
            26 -1 13 26 vvcurveto
            -1 return
          </CharString>
          <CharString index="53">
            -20 -11 callsubr
            -14 -23 -48 callgsubr
            return
          </CharString>
          <CharString index="54">
            541 272 rmoveto
            93 -14 84 -82 59 vhcurveto
            29 -40 -72 12 -49 hhcurveto
            -74 -43 -1 -2 -78 hvcurveto
            11 callgsubr
            77 44 -1 74 hhcurveto
            49 72 11 28 40 hvcurveto
            83 60 13 28 callsubr
            -104 -129 vhcurveto
            -36 -25 -1 -33 hhcurveto
            389 vlineto
            -1 32 26 0 36 hhcurveto
            129 21 -104 -90 hvcurveto
            return
          </CharString>
          <CharString index="55">
            -32 callgsubr
            -11 return
          </CharString>
          <CharString index="56">
            -1 14 hhcurveto
            16 -11 callgsubr
            return
          </CharString>
          <CharString index="57">
            -12 -13 -10 -14 hhcurveto
            -10 -13 4 5 -9 hvcurveto
            return
          </CharString>
          <CharString index="58">
            -88 vlineto
            -74 2 rlineto
            -3 -14 -1 -11 -13 vvcurveto
            -14 1 -12 -4 callgsubr
            74 1 rlineto
            -320 vlineto
            -69 37 -34 68 40 39 3 4 33 vhcurveto
            2 7 0 8 7 vvcurveto
            18 -3 20 -5 14 vhcurveto
            -69 hlineto
            -30 -11 17 27 hvcurveto
            299 vlineto
            123 -2 rlineto
            4 13 1 12 14 vvcurveto
            13 -1 11 -4 14 vhcurveto
            return
          </CharString>
          <CharString index="59">
            -43 callsubr
            9 vvcurveto
            return
          </CharString>
          <CharString index="60">
            169 hmoveto
            -3 15 23 -1 15 hhcurveto
            16 23 -35 callsubr
            400 vlineto
            22 -1 16 22 vvcurveto
            12 27 -1 12 hhcurveto
            53 hlineto
            42 14 16 31 10 -2 18 -4 12 hvcurveto
            -416 59 callgsubr
            -17 -12 19 callsubr
            -15 3 -15 vhcurveto
            105 hlineto
            13 27 1 13 hhcurveto
            -22 -1 -16 -22 vvcurveto
            return
          </CharString>
          <CharString index="61">
            rmoveto
            8 -23 26 -25 23 -7 194 185 rcurveline
            7 17 0 30 -7 18 -198 185 rcurveline
            -23 -7 -28 -25 -8 -22 144 -165 rcurveline
            return
          </CharString>
          <CharString index="62">
            2 17 -39 callgsubr
            0 15 -3 15 vhcurveto
            return
          </CharString>
          <CharString index="63">
            -6 23 -23 32 -22 13 rrcurveto
            -38 -51 -53 -22 -51 hhcurveto
            -83 -60 61 134 134 47 69 90 return
          </CharString>
          <CharString index="64">
            hlineto
            38 21 17 33 6 hvcurveto
            2 12 0 16 return
          </CharString>
          <CharString index="65">
            -68 230 rlineto
            36 -10 -17 10 -25 hhcurveto
            -17 -22 -5 -10 -24 hvcurveto
            132 -437 12 -41 24 -12 41 -1 rlinecurve
            -3 -12 rlineto
            -76 -23 -30 -48 -67 hhcurveto
            -27 -31 7 6 -16 hvcurveto
            -14 -16 -11 -34 2 -24 rrcurveto
            -8 21 44 -8 31 hhcurveto
            133 46 82 152 44 hvcurveto
            return
          </CharString>
          <CharString index="66">
            222 0 callgsubr
            -54 callsubr
            -546 vlineto
            -54 callgsubr
            16 -14 callsubr
            return
          </CharString>
          <CharString index="67">
            -28 callsubr
            hstem
            166 98 vstem
            254 -58 -94 callgsubr
          </CharString>
          <CharString index="68">
            -17 callgsubr
            -683 vlineto
            -26 callsubr
            return
          </CharString>
          <CharString index="69">
            11 callsubr
            6 9 3 callgsubr
            -20 6 8 -12 hvcurveto
            hintmask 10011100
            -11 -14 -9 -19 -1 -19 rrcurveto
            hintmask 01111110
            6 callsubr
            return
          </CharString>
          <CharString index="70">
            53 -53 vhcurveto
            -37 37 49 -18 59 hhcurveto
            59 49 18 37 37 hvcurveto
            53 53 18 return
          </CharString>
          <CharString index="71">
            -19 callsubr
            26 -39 callgsubr
            -3 26 -6 11 vhcurveto
            8 return
          </CharString>
          <CharString index="72">
            1 3 14 hvcurveto
            return
          </CharString>
          <CharString index="73">
            272 88 rmoveto
            -25 -29 -2 -2 -29 hvcurveto
            399 vlineto
            47 -17 19 -42 vhcurveto
            -41 hlineto
            -6 -5 rlineto
            -482 vlineto
            -40 25 -23 36 vhcurveto
            228 hlineto
            37 24 17 33 6 hvcurveto
            2 13 0 14 1 12 rrcurveto
            return
          </CharString>
          <CharString index="74">
            92 23 89 86 86 24 -89 -92 -93 -24 -88 -86 -86 -23 88 93 vhcurveto
            return
          </CharString>
          <CharString index="75">
            286 92 rmoveto
            -27 -31 -1 -3 -31 hvcurveto
            531 vlineto
            47 -16 21 -44 vhcurveto
            -40 -3 callsubr
            -616 vlineto
            -43 26 -23 36 vhcurveto
            261 29 callsubr
            13 1 18 11 vvcurveto
            return
          </CharString>
          <CharString index="76">
            vlineto
            -3 15 17 -1 18 hhcurveto
            19 18 -35 callsubr
            return
          </CharString>
          <CharString index="77">
            24 8 -20 133 86 252 87 return
          </CharString>
          <CharString index="78">
            137 hlineto
            8 35 1 17 hhcurveto
            return
          </CharString>
          <CharString index="79">
            -242 -21 65 -21 148 18 return
          </CharString>
          <CharString index="80">
            12 vvcurveto
            11 -1 18 -4 13 vhcurveto
            return
          </CharString>
          <CharString index="81">
            3 callsubr
            21 -7 callgsubr
            return
          </CharString>
          <CharString index="82">
            rmoveto
            -63 50 -51 71 71 50 51 63 62 -50 51 -71 -71 -50 -51 -62 vhcurveto
            71 hmoveto
            31 21 23 29 29 21 -23 -31 -32 -21 -23 -29 -29 -21 23 32 vhcurveto
            endchar
          </CharString>
          <CharString index="83">
            214 rmoveto
            5 28 2 19 32 vvcurveto
            119 return
          </CharString>
          <CharString index="84">
            -1 91 211 88 204 90 return
          </CharString>
          <CharString index="85">
            21 -12 callsubr
            return
          </CharString>
          <CharString index="86">
            91 7 -20 178 88 325 105 return
          </CharString>
          <CharString index="87">
            -3 -16 hvcurveto
            return
          </CharString>
          <CharString index="88">
            hvcurveto
            6 12 3 return
          </CharString>
          <CharString index="89">
            17 10 16 23 6 19 rrcurveto
            -22 20 -6 36 39 vvcurveto
            return
          </CharString>
          <CharString index="90">
            hhcurveto
            -59 -49 -18 -37 -37 hvcurveto
            -53 -53 -18 -70 -82 vvcurveto
            return
          </CharString>
          <CharString index="91">
            18 callsubr
            -40 -18 callgsubr
            return
          </CharString>
          <CharString index="92">
            19 -3 19 hhcurveto
            return
          </CharString>
          <CharString index="93">
            hvcurveto
            236 vlineto
            2 21 23 0 12 hhcurveto
            47 21 -17 -49 22 hvcurveto
            56 -122 rlineto
            -36 17 13 -20 38 hhcurveto
            25 28 14 20 15 hvcurveto
            return
          </CharString>
          <CharString index="94">
            -11 -28 6 -20 hhcurveto
            -21 -29 -7 return
          </CharString>
          <CharString index="95">
            -1 9 callgsubr
            -11 callgsubr
            return
          </CharString>
          <CharString index="96">
            1 -16 hhcurveto
            return
          </CharString>
          <CharString index="97">
            45 -34 62 42 41 15 20 23 vhcurveto
            71 callsubr
            vhcurveto
            -8 return
          </CharString>
          <CharString index="98">
            -4 14 -15 callsubr
            return
          </CharString>
          <CharString index="99">
            -3 15 22 -1 return
          </CharString>
          <CharString index="100">
            -82 callgsubr
            endchar
          </CharString>
          <CharString index="101">
            -3 14 21 -1 13 hhcurveto
            15 17 -7 callgsubr
            387 vlineto
            4 -16 -17 64 callsubr
            -13 -21 -1 -4 -14 hvcurveto
            return
          </CharString>
          <CharString index="102">
            17 1 3 return
          </CharString>
          <CharString index="103">
            8 12 -19 callsubr
            return
          </CharString>
          <CharString index="104">
            hlineto
            -7 -6 rlineto
            return
          </CharString>
          <CharString index="105">
            hhcurveto
            -16 -21 return
          </CharString>
          <CharString index="106">
            37 callsubr
            11 return
          </CharString>
          <CharString index="107">
            74 callsubr
            -11 callgsubr
            17 hvcurveto
            return
          </CharString>
          <CharString index="108">
            -13 -13 82 159 72 121 83 return
          </CharString>
          <CharString index="109">
            -6 -52 callsubr
            return
          </CharString>
          <CharString index="110">
            -8 callsubr
            15 hhcurveto
            17 return
          </CharString>
          <CharString index="111">
            70 -13 81 410 81 return
          </CharString>
          <CharString index="112">
            -12 37 callgsubr
            return
          </CharString>
          <CharString index="113">
            -11 17 31 -9 31 hhcurveto
            69 51 40 59 50 return
          </CharString>
          <CharString index="114">
            hhcurveto
            -15 -22 -1 -3 return
          </CharString>
          <CharString index="115">
            13 49 callsubr
            return
          </CharString>
          <CharString index="116">
            hlineto
            -6 -6 return
          </CharString>
          <CharString index="117">
            -34 65 27 35 3 4 23 vhcurveto
            2 7 return
          </CharString>
          <CharString index="118">
            -74 rmoveto
            3 -7 7 -8 8 -3 rrcurveto
            3 return
          </CharString>
          <CharString index="119">
            hstemhm
            40 109 return
          </CharString>
          <CharString index="120">
            60 callsubr
            -17 return
          </CharString>
          <CharString index="121">
            -123 -3 rlineto
            148 vlineto
            -7 7 rlineto
            -39 hlineto
            -43 -12 -20 -46 hvcurveto
            return
          </CharString>
          <CharString index="122">
            1 17 8 callsubr
            17 return
          </CharString>
          <CharString index="123">
            -240 546 -20 return
          </CharString>
          <CharString index="124">
            -226 -4 691 return
          </CharString>
          <CharString index="125">
            46 -12 20 -43 vhcurveto
            return
          </CharString>
          <CharString index="126">
            vvcurveto
            -13 1 return
          </CharString>
          <CharString index="127">
            -21 callsubr
            45 20 callgsubr
            20 571 return
          </CharString>
          <CharString index="128">
            -6 -7 rlineto
            -671 vlineto
            6 -7 rlineto
            return
          </CharString>
          <CharString index="129">
            64 callgsubr
            -3 return
          </CharString>
          <CharString index="130">
            -9 -22 callgsubr
            44 6 callgsubr
            84 104 return
          </CharString>
          <CharString index="131">
            46 -23 callsubr
            45 20 callgsubr
            90 105 return
          </CharString>
          <CharString index="132">
            34 callsubr
            -15 -14 19 callsubr
            -15 -4 callgsubr
            endchar
          </CharString>
          <CharString index="133">
            vhcurveto
            7 -11 -23 5 -18 hhcurveto
            -19 -21 -5 -7 -12 hvcurveto
            -5 return
          </CharString>
          <CharString index="134">
            -12 callgsubr
            60 6 callgsubr
            75 105 return
          </CharString>
          <CharString index="135">
            83 93 vvcurveto
            -108 hmoveto
            -89 -21 return
          </CharString>
          <CharString index="136">
            hlineto
            38 25 42 callsubr
            2 return
          </CharString>
          <CharString index="137">
            42 0 92 501 90 return
          </CharString>
          <CharString index="138">
            -252 418 79 return
          </CharString>
          <CharString index="139">
            -6 -32 callgsubr
            return
          </CharString>
          <CharString index="140">
            26 callgsubr
            -1 return
          </CharString>
          <CharString index="141">
            hlineto
            -3 -14 -1 return
          </CharString>
          <CharString index="142">
            vlineto
            3 -14 -16 13 callsubr
            -15 12 callgsubr
            return
          </CharString>
          <CharString index="143">
            -3 14 vhcurveto
            return
          </CharString>
          <CharString index="144">
            -12 vhcurveto
            -7 return
          </CharString>
          <CharString index="145">
            80 275 87 241 84 return
          </CharString>
          <CharString index="146">
            -194 -21 27 -21 200 return
          </CharString>
          <CharString index="147">
            10 12 15 vhcurveto
            return
          </CharString>
          <CharString index="148">
            149 -13 86 return
          </CharString>
          <CharString index="149">
            17 34 6 hvcurveto
            return
          </CharString>
          <CharString index="150">
            -4 -15 hvcurveto
            return
          </CharString>
          <CharString index="151">
            41 callsubr
            655 20 callgsubr
            82 106 return
          </CharString>
          <CharString index="152">
            vlineto
            46 -12 20 -44 vhcurveto
            -38 -18 callgsubr
            return
          </CharString>
          <CharString index="153">
            -52 -218 77 632 -20 27 -20 23 -20 return
          </CharString>
          <CharString index="154">
            0 callgsubr
            -21 1 return
          </CharString>
          <CharString index="155">
            -14 rlineto
            -16 -12 -13 return
          </CharString>
          <CharString index="156">
            vvcurveto
            14 -1 return
          </CharString>
          <CharString index="157">
            183 hstemhm
            return
          </CharString>
          <CharString index="158">
            4 -6 rlineto
            return
          </CharString>
          <CharString index="159">
            -139 hlineto
            -9 -31 -1 -10 hhcurveto
            21 1 return
          </CharString>
          <CharString index="160">
            hintmask 00000000
            hintmask 11110100
            return
          </CharString>
          <CharString index="161">
            110 199 112 return
          </CharString>
          <CharString index="162">
            36 -13 89 532 88 return
          </CharString>
          <CharString index="163">
            16 -13 89 398 85 return
          </CharString>
          <CharString index="164">
            -82 -13 78 363 79 return
          </CharString>
          <CharString index="165">
            97 114 97 return
          </CharString>
          <CharString index="166">
            hstemhm
            51 callgsubr
            return
          </CharString>
          <CharString index="167">
            1 -17 hhcurveto
            return
          </CharString>
          <CharString index="168">
            503 248 -248 261 hstemhm
            return
          </CharString>
          <CharString index="169">
            vlineto
            -28 1 -19 -27 vvcurveto
            -10 -37 1 return
          </CharString>
          <CharString index="170">
            vlineto
            45 31 43 20 36 hhcurveto
            endchar
          </CharString>
          <CharString index="171">
            1 -15 hhcurveto
            return
          </CharString>
          <CharString index="172">
            -5 12 vhcurveto
            return
          </CharString>
          <CharString index="173">
            -9 vhcurveto
            -8 13 22 -5 21 hhcurveto
            return
          </CharString>
          <CharString index="174">
            -14 -1 -17 -14 19 callsubr
            -17 return
          </CharString>
          <CharString index="175">
            12 vvcurveto
            11 -1 17 -4 13 vhcurveto
            return
          </CharString>
          <CharString index="176">
            hlineto
            -41 -30 -30 -44 -48 vvcurveto
            -60 return
          </CharString>
          <CharString index="177">
            hstem
            84 105 185 109 vstem
            return
          </CharString>
          <CharString index="178">
            22 -11 18 -12 10 return
          </CharString>
          <CharString index="179">
            41 callgsubr
            hstemhm
            return
          </CharString>
          <CharString index="180">
            49 callgsubr
            17 return
          </CharString>
          <CharString index="181">
            -1 16 hhcurveto
            16 return
          </CharString>
          <CharString index="182">
            -544 vlineto
            -3 return
          </CharString>
          <CharString index="183">
            -8 17 10 16 return
          </CharString>
          <CharString index="184">
            -12 vhcurveto
            -8 return
          </CharString>
        <CharString name=".notdef">
          -334 endchar
        </CharString>
        <CharString name=".null">
          -520 endchar
        </CharString>
        <CharString name="A">
          -21 callsubr
          hstem
          20 571 vstem
          -106 callgsubr
          endchar
        </CharString>
        <CharString name="AE">
          356 -1 91 75 88 48 88 204 90 hstem
          401 103 vstem
          257 165 rmoveto
          89 hlineto
          8 30 1 17 hhcurveto
          -101 vlineto
          -41 23 -25 37 vhcurveto
          297 hlineto
          38 25 16 34 5 hvcurveto
          -8 callgsubr
          -260 hlineto
          -26 -21 -1 -2 -19 hvcurveto
          19 1 15 18 vvcurveto
          163 vlineto
          -1 23 24 0 15 hhcurveto
          189 -58 callgsubr
          -189 hlineto
          -15 -24 -55 callsubr
          23 25 1 15 hhcurveto
          238 14 callgsubr
          3 20 -39 callgsubr
          -1 14 -3 16 vhcurveto
          -402 hlineto
          -19 -28 -2 -8 -17 hvcurveto
          -328 -665 51 callsubr
          -9 callsubr
          17 -11 callgsubr
          15 hvcurveto
          81 167 rlineto
          16 29 -1 8 hhcurveto
          76 268 rmoveto
          20 42 24 56 19 47 rrcurveto
          5 -326 hlineto
          -17 -30 1 -7 hhcurveto
          -61 hlineto
          -7 -19 -1 -15 hhcurveto
          endchar
        </CharString>
        <CharString name="Aacute">
          20 callsubr
          -385 249 -104 callgsubr
          hintmask 00010100
          5 530 -85 callgsubr
        </CharString>
        <CharString name="Acircumflex">
          -21 callsubr
          129 80 hstemhm
          20 571 -445 318 -104 callgsubr
          hintmask 00010100
          218 485 -85 callsubr
        </CharString>
        <CharString name="Adieresis">
          -21 callsubr
          65 94 hstemhm
          20 571 -438 58 callsubr
          -104 callgsubr
          hintmask 00010110
          212 590 rmoveto
          -22 -16 -50 callgsubr
          -8 -12 -2 -15 -13 vvcurveto
          -14 2 -16 8 33 callgsubr
          16 -4 22 hhcurveto
          19 17 4 -4 callsubr
          16 14 vvcurveto
          13 -3 15 32 callsubr
          -12 -17 5 -19 hhcurveto
          -212 hmoveto
          -20 -17 -3 callgsubr
          -3 -15 -13 vvcurveto
          -14 3 -16 7 callgsubr
          17 -4 20 hhcurveto
          20 18 4 78 callgsubr
          8 12 2 16 14 vvcurveto
          13 -2 15 -8 -52 callsubr
          -18 5 -20 hhcurveto
          endchar
        </CharString>
        <CharString name="Agrave">
          20 callsubr
          -419 249 -104 callgsubr
          hintmask 00010100
          17 650 -57 callgsubr
        </CharString>
        <CharString name="Aogonek">
          91 -217 69 143 12 -4 -20 24 -20 178 88 325 105 hstemhm
          420 83 hintmask 00000000
          hintmask 10011110
          20 7 rmoveto
          3 -5 rlineto
          hintmask 11001110
          -63 callsubr
          17 33 -1 8 hhcurveto
          -29 callsubr
          hintmask 10101110
          37 -117 7 -24 8 -14 11 -8 rlinecurve
          -38 -32 -34 -45 -50 vvcurveto
          -59 46 70 callgsubr
          -1 22 -10 18 -13 10 rrcurveto
          -8 -15 -22 -8 -21 hhcurveto
          -28 -21 15 30 42 37 36 51 32 hvcurveto
          -224 676 rlineto
          3 -15 -28 13 callsubr
          -28 -48 callgsubr
          13 -250 -89 callsubr
          endchar
        </CharString>
        <CharString name="Aring">
          91 -5 12 0 -20 178 88 582 59 hstemhm
          186 70 101 71 hintmask 00000000
          hintmask 01111100
          -83 callsubr
          674 rlineto
          38 19 23 38 43 vvcurveto
          62 -50 51 -71 -72 -49 -51 -62 -43 22 -37 37 -20 vhcurveto
          -225 -674 3 -5 rlineto
          hintmask 10111100
          -63 callsubr
          hintmask 01111100
          -90 callgsubr
          55 529 rmoveto
          31 21 23 30 29 21 -23 -31 -32 -21 -23 -29 -30 -21 23 32 vhcurveto
          endchar
        </CharString>
        <CharString name="Atilde">
          -21 callsubr
          58 85 hstemhm
          20 571 -465 362 -104 callgsubr
          hintmask 00000000
          117 504 -66 callgsubr
          hintmask 00010100
          -73 callgsubr
        </CharString>
        <CharString name="B">
          85 -4 81 241 82 206 81 hstemhm
          91 105 220 107 -76 109 53 callsubr
          97 684 rmoveto
          21 callsubr
          -1 75 65 -2 81 hhcurveto
          166 72 84 111 86 -59 69 -68 20 hvcurveto
          hintmask 11111000
          56 22 38 55 63 vvcurveto
          113 -71 68 -147 vhcurveto
          hintmask 11110100
          -66 -69 -2 -1 -73 hvcurveto
          214 -366 rmoveto
          107 29 -71 -50 -51 -22 -69 -108 hvcurveto
          -37 -42 -1 -42 hhcurveto
          242 vlineto
          289 vmoveto
          -1 32 47 0 28 hhcurveto
          hintmask 11111000
          94 19 -54 -49 -47 -21 -56 -94 hvcurveto
          -105 hlineto
          endchar
        </CharString>
        <CharString name="C">
          55 callgsubr
          hstem
          51 callgsubr
          vstem
          -78 callgsubr
          endchar
        </CharString>
        <CharString name="CR">
          -334 endchar
        </CharString>
        <CharString name="Cacute">
          55 callgsubr
          33 174 59 callsubr
          59 249 hintmask 11010000
          -78 callgsubr
          hintmask 00101000
          -240 336 -85 callgsubr
        </CharString>
        <CharString name="Ccaron">
          55 callgsubr
          43 80 59 callsubr
          0 319 hintmask 11010000
          -78 callgsubr
          hintmask 00101000
          -253 446 -93 callsubr
        </CharString>
        <CharString name="Ccedilla">
          84 16 callgsubr
          26 91 530 86 59 callsubr
          185 83 hintmask 00000000
          hintmask 01111110
          262 -38 callsubr
          -38 34 -55 52 callgsubr
          87 10 77 40 48 48 -57 callsubr
          -43 callgsubr
          -169 63 -165 171 -15 hvcurveto
          hintmask 01111110
          -8 -20 -8 -25 -5 -18 rrcurveto
          endchar
        </CharString>
        <CharString name="D">
          128 -5 86 520 86 hstem
          91 106 290 110 vstem
          -56 callsubr
          endchar
        </CharString>
        <CharString name="Dcaron">
          128 -5 86 520 86 51 80 hstemhm
          91 106 -48 319 19 110 hintmask 11010100
          -56 callsubr
          hintmask 00101000
          -292 551 -93 callsubr
        </CharString>
        <CharString name="E">
          46 -23 callsubr
          hstem
          90 105 vstem
          -106 callsubr
          endchar
        </CharString>
        <CharString name="Eacute">
          24 callsubr
          3 249 -104 callsubr
          hintmask 00010100
          -321 692 -85 callgsubr
        </CharString>
        <CharString name="Ecaron">
          46 -23 callsubr
          55 80 hstemhm
          90 105 -56 319 -104 callsubr
          hintmask 00010100
          -334 802 -93 callsubr
        </CharString>
        <CharString name="Ecircumflex">
          46 -23 callsubr
          129 80 hstemhm
          90 105 -57 318 -104 callsubr
          hintmask 00010100
          -108 647 -85 callsubr
        </CharString>
        <CharString name="Edieresis">
          46 -23 callsubr
          65 94 hstemhm
          90 105 -50 58 callsubr
          -104 callsubr
          hintmask 00010110
          -114 752 rmoveto
          -22 -16 -50 callgsubr
          -8 -12 -2 -15 -13 vvcurveto
          -14 2 -16 8 33 callgsubr
          16 -4 22 hhcurveto
          19 17 4 -4 callsubr
          16 14 vvcurveto
          13 -3 15 32 callsubr
          -12 -17 5 -19 hhcurveto
          -212 hmoveto
          -20 -17 -3 callgsubr
          -3 -15 -13 vvcurveto
          -14 3 -16 7 callgsubr
          17 -4 20 hhcurveto
          20 18 4 78 callgsubr
          8 12 2 16 14 vvcurveto
          13 -2 15 -8 -52 callsubr
          -18 5 -20 hhcurveto
          endchar
        </CharString>
        <CharString name="Egrave">
          24 callsubr
          -31 249 -104 callsubr
          hintmask 00010100
          -309 812 -57 callgsubr
        </CharString>
        <CharString name="Eogonek">
          50 -217 69 147 91 211 88 204 90 hstem
          90 105 109 83 vstem
          -107 callsubr
          224 69 callsubr
          -10 callsubr
          -16 -21 -8 -22 hhcurveto
          -28 -20 15 30 38 34 45 58 23 hvcurveto
          1 0 1 1 hhcurveto
          19 8 12 15 4 22 rrcurveto
          -8 callgsubr
          endchar
        </CharString>
        <CharString name="Eth">
          144 -5 86 221 88 211 86 hstem
          106 105 291 111 vstem
          613 342 rmoveto
          116 -17 104 -89 74 vhcurveto
          36 -44 -77 22 callgsubr
          -7 -7 rlineto
          -287 -77 vlineto
          -3 -14 -1 -15 -16 vvcurveto
          -16 1 -14 -4 callgsubr
          77 -296 hlineto
          7 -7 rlineto
          -2 87 52 -2 81 hhcurveto
          53 77 15 36 44 hvcurveto
          90 74 16 105 117 vvcurveto
          -248 -40 rmoveto
          3 13 2 14 26 callgsubr
          -2 13 36 callsubr
          -154 212 hlineto
          46 33 -1 43 hhcurveto
          148 21 -140 -119 -119 -21 -142 -148 -43 -33 1 -1 -46 hvcurveto
          221 vlineto
          endchar
        </CharString>
        <CharString name="Euro">
          46 -13 88 137 71 79 71 140 88 hstem
          97 104 vstem
          496 515 rmoveto
          23 14 19 28 6 23 rrcurveto
          51 -62 -77 30 -74 hhcurveto
          -144 -63 -100 -128 -20 hvcurveto
          -79 34 callsubr
          -10 -12 19 callsubr
          -9 -4 callgsubr
          72 hlineto
          -1 -13 0 -12 -13 vvcurveto
          -14 0 -14 1 -13 vhcurveto
          -72 34 callsubr
          -9 -13 19 callsubr
          -9 -4 callgsubr
          79 hlineto
          -127 21 63 -98 143 hhcurveto
          74 77 29 52 62 hvcurveto
          -6 23 -18 27 -24 15 rrcurveto
          -36 -47 -57 -22 -47 hhcurveto
          -74 -44 46 91 -17 hvcurveto
          205 hlineto
          10 callgsubr
          9 8 callsubr
          8 36 callsubr
          -213 hlineto
          -1 13 0 13 14 vvcurveto
          39 214 vlineto
          10 callgsubr
          9 13 vvcurveto
          13 -1 9 36 callsubr
          -206 hlineto
          93 17 44 47 75 hhcurveto
          47 57 -22 -36 47 hvcurveto
          endchar
        </CharString>
        <CharString name="Euro.smcp">
          -19 -13 84 106 65 62 66 105 84 -63 -20 hstemhm
          86 100 53 callsubr
          436 434 rmoveto
          hintmask 11101100
          23 12 19 27 4 23 rrcurveto
          hintmask 11110100
          41 -54 -65 22 -66 hhcurveto
          -129 -56 -84 -105 -19 hvcurveto
          -70 hlineto
          -4 -13 0 -11 -10 vvcurveto
          -10 0 -9 4 -13 vhcurveto
          63 hlineto
          -1 -11 0 -11 -10 vvcurveto
          -10 0 -10 1 -10 vhcurveto
          -63 hlineto
          -4 -13 0 -10 -9 vvcurveto
          -10 0 -10 4 -13 vhcurveto
          70 hlineto
          -105 19 57 -85 128 hhcurveto
          67 63 21 42 55 hvcurveto
          -4 23 -18 26 -24 12 rrcurveto
          -26 -40 -47 -14 -39 hhcurveto
          -63 -37 36 70 -16 hvcurveto
          170 hlineto
          4 13 1 9 11 vvcurveto
          11 -1 8 -4 13 vhcurveto
          -178 30 hlineto
          32 178 vlineto
          4 13 1 9 10 vvcurveto
          12 -1 9 -4 13 vhcurveto
          -169 hlineto
          70 15 37 35 63 hhcurveto
          39 46 -15 -26 41 hvcurveto
          endchar
        </CharString>
        <CharString name="F">
          2 299 89 204 91 hstem
          91 106 vstem
          197 hmoveto
          299 42 vlineto
          201 8 callgsubr
          19 12 vvcurveto
          11 -1 19 -4 14 vhcurveto
          -201 hlineto
          -13 -14 0 -1 -15 hvcurveto
          88 vlineto
          38 -1 40 40 vvcurveto
          -1 28 31 0 37 hhcurveto
          147 hlineto
          40 20 14 35 13 -2 17 -4 12 hvcurveto
          -396 -18 callgsubr
          -677 77 callgsubr
          20 73 callsubr
          65 callgsubr
          17 hvcurveto
          endchar
        </CharString>
        <CharString name="G">
          123 -13 88 193 92 245 91 hstem
          49 111 318 102 vstem
          350 359 rmoveto
          -5 -13 -3 -18 -13 vvcurveto
          -34 16 -13 34 vhcurveto
          88 hlineto
          -2 -20 0 -21 -23 vvcurveto
          -112 vlineto
          -10 -33 -43 -7 -51 hhcurveto
          -125 -66 86 175 197 83 72 102 68 64 -24 -38 50 hvcurveto
          22 15 24 32 5 33 rrcurveto
          45 -60 -87 28 -86 hhcurveto
          -147 -149 -105 -254 -187 77 -163 207 99 88 20 23 60 hvcurveto
          260 vlineto
          44 -20 26 -56 vhcurveto
          endchar
        </CharString>
        <CharString name="H">
          155 307 91 hstem
          91 106 280 107 vstem
          477 hmoveto
          -3 17 20 73 callsubr
          65 callgsubr
          17 hvcurveto
          683 0 callgsubr
          -22 -14 callgsubr
          -21 -48 callgsubr
          -212 62 callsubr
          -9 hhcurveto
          -169 hlineto
          -9 -38 66 callgsubr
          212 -39 callsubr
          234 vlineto
          28 -1 19 27 vvcurveto
          10 38 -1 9 hhcurveto
          169 hlineto
          9 62 callgsubr
          endchar
        </CharString>
        <CharString name="Hbar">
          164 306 91 97 83 hstem
          95 107 280 107 vstem
          202 hmoveto
          233 vlineto
          28 -1 19 27 vvcurveto
          10 37 -1 10 hhcurveto
          168 hlineto
          10 62 callgsubr
          -233 77 callgsubr
          21 -1 16 hhcurveto
          18 65 callgsubr
          17 hvcurveto
          494 71 vlineto
          10 callgsubr
          12 33 callsubr
          10 36 callsubr
          -71 106 hlineto
          3 -17 -21 -11 callsubr
          -17 -20 -48 callgsubr
          -106 -280 106 50 callgsubr
          -20 1 -17 -2 callsubr
          -48 callgsubr
          -106 -71 vlineto
          -3 -14 -2 -12 -16 vvcurveto
          -16 2 -12 -4 callgsubr
          71 -494 hlineto
          -3 16 -22 callsubr
          17 hvcurveto
          224 397 rmoveto
          -168 hlineto
          -10 -37 66 callgsubr
          24 280 -24 62 callsubr
          -10 hhcurveto
          endchar
        </CharString>
        <CharString name="I">
          17 callsubr
          hstem
          94 106 vstem
          94 hmoveto
          -25 callgsubr
          16 21 -7 callgsubr
          683 47 callsubr
          -16 hhcurveto
          -16 32 callgsubr
          endchar
        </CharString>
        <CharString name="IJ">
          220 -10 89 -83 691 hstemhm
          94 106 356 106 hintmask 01100000
          94 hmoveto
          -25 callgsubr
          16 21 -7 callgsubr
          683 47 callsubr
          -16 hhcurveto
          -16 32 callgsubr
          hintmask 10010000
          248 -571 -61 callsubr
          endchar
        </CharString>
        <CharString name="Iacute">
          17 callsubr
          41 20 callgsubr
          46 249 -201 106 -74 callsubr
          hintmask 01100000
          -48 99 -85 callgsubr
        </CharString>
        <CharString name="Icircumflex">
          17 callsubr
          125 80 hstemhm
          -14 318 -210 106 -74 callsubr
          hintmask 01100000
          165 54 -85 callsubr
        </CharString>
        <CharString name="Idieresis">
          17 callsubr
          61 94 hstemhm
          -7 97 4 106 4 97 -74 callsubr
          hintmask 01101000
          159 159 rmoveto
          -22 -16 -50 callgsubr
          -8 -12 -2 -15 -13 vvcurveto
          -14 2 -16 8 33 callgsubr
          16 -4 22 hhcurveto
          19 17 4 -4 callsubr
          16 14 vvcurveto
          13 -3 15 32 callsubr
          -12 -17 5 -19 hhcurveto
          -212 hmoveto
          -20 -17 -3 callgsubr
          -3 -15 -13 vvcurveto
          -14 3 -16 7 callgsubr
          17 -4 20 hhcurveto
          20 18 4 78 callgsubr
          8 12 2 16 14 vvcurveto
          13 -2 15 -8 -52 callsubr
          -18 5 -20 hhcurveto
          endchar
        </CharString>
        <CharString name="Igrave">
          17 callsubr
          41 20 callgsubr
          12 249 -167 106 -74 callsubr
          hintmask 01100000
          -36 219 -57 callgsubr
        </CharString>
        <CharString name="Itilde">
          17 callsubr
          54 85 hstemhm
          -34 362 -234 106 -74 callsubr
          hintmask 00000000
          64 73 -66 callgsubr
          hintmask 01100000
          -73 callgsubr
        </CharString>
        <CharString name="J">
          -72 -10 89 hstem
          264 106 vstem
          50 112 -61 callsubr
          endchar
        </CharString>
        <CharString name="Jcircumflex">
          -72 -10 89 733 80 hstemhm
          157 318 -211 106 hintmask 10010000
          50 112 -61 callsubr
          hintmask 01100000
          380 625 -85 callsubr
        </CharString>
        <CharString name="K">
          76 307 91 276 12 hstem
          91 106 vstem
          -75 callsubr
          endchar
        </CharString>
        <CharString name="Kcommaaccent">
          76 -28 callsubr
          360 91 276 12 hstemhm
          91 106 83 98 hintmask 00011100
          -75 callsubr
          hintmask 11100010
          -212 -86 -94 callgsubr
        </CharString>
        <CharString name="L">
          -8 -1 93 hstem
          90 107 vstem
          -32 callsubr
          endchar
        </CharString>
        <CharString name="Ldot">
          -8 -1 93 215 93 hstemhm
          90 107 140 112 hintmask 10100000
          -32 callsubr
          hintmask 01010000
          -148 262 -62 callgsubr
        </CharString>
        <CharString name="Lslash">
          -2 -1 93 hstem
          97 106 vstem
          203 619 rmoveto
          -35 callgsubr
          -308 vlineto
          -78 -27 -6 -26 1 -33 7 -22 rlinecurve
          7 -4 69 24 rlineto
          -220 vlineto
          -43 25 -23 37 vhcurveto
          260 hlineto
          38 26 17 34 5 hvcurveto
          3 13 0 18 11 vvcurveto
          -199 hlineto
          -27 -31 -1 -3 -31 hvcurveto
          229 vlineto
          186 61 5 26 0 34 -7 21 rlinecurve
          -8 4 -176 -60 rlineto
          endchar
        </CharString>
        <CharString name="M">
          288 1 -20 123 107 357 115 hstem
          74 660 vstem
          74 1 rmoveto
          -4 14 21 -2 18 hhcurveto
          16 -5 callsubr
          15 hvcurveto
          24 366 3 54 3 90 2 59 rlinecurve
          6 hlineto
          137 -464 rlineto
          -2 15 22 -2 16 hhcurveto
          16 23 2 2 16 hvcurveto
          137 464 rlineto
          6 hlineto
          1 -59 3 -90 4 -54 23 -366 rcurveline
          -3 16 15 73 callsubr
          22 2 4 15 hvcurveto
          -53 682 rlineto
          4 -26 -29 0 -17 hhcurveto
          -18 -24 0 -4 -26 hvcurveto
          -95 -313 -9 -31 -26 -100 -4 -28 rlinecurve
          -6 hlineto
          -5 28 -25 100 -10 31 -95 313 rcurveline
          4 -23 -27 0 -17 hhcurveto
          -17 -31 0 -4 -24 hvcurveto
          endchar
        </CharString>
        <CharString name="N">
          47 callgsubr
          hstem
          91 99 301 98 vstem
          -98 callsubr
          endchar
        </CharString>
        <CharString name="Nacute">
          47 callgsubr
          191 20 callgsubr
          91 99 52 249 0 -86 callgsubr
          hintmask 01010000
          -347 100 -85 callgsubr
        </CharString>
        <CharString name="Ncaron">
          47 callgsubr
          201 80 hstemhm
          91 99 -7 319 -11 -86 callgsubr
          hintmask 01010000
          -360 210 -93 callsubr
        </CharString>
        <CharString name="Ntilde">
          47 callgsubr
          204 85 hstemhm
          91 99 -28 362 -33 -86 callgsubr
          hintmask 00000000
          -235 74 -66 callgsubr
          hintmask 01010000
          -73 callgsubr
        </CharString>
        <CharString name="O">
          -5 callgsubr
          hstem
          51 callgsubr
          335 112 vstem
          -105 callsubr
          endchar
        </CharString>
        <CharString name="OE">
          376 -23 callsubr
          hstem
          49 111 265 103 vstem
          853 90 rmoveto
          -259 hlineto
          -26 -21 -1 -1 -20 hvcurveto
          19 1 13 18 vvcurveto
          164 vlineto
          -1 23 25 0 15 hhcurveto
          188 -58 callgsubr
          -188 hlineto
          -15 -25 -55 callsubr
          24 -74 callgsubr
          -377 hlineto
          5 -37 -47 8 -42 24 callgsubr
          -109 29 -118 78 -68 vhcurveto
          -36 42 51 -24 81 hhcurveto
          44 46 7 5 38 hvcurveto
          324 hlineto
          38 24 42 callsubr
          3 13 0 18 9 vvcurveto
          -523 -18 rmoveto
          -140 -30 149 121 121 30 148 140 31 33 -6 -7 31 hvcurveto
          -513 vlineto
          -8 -30 -34 -5 -31 hhcurveto
          endchar
        </CharString>
        <CharString name="Oacute">
          28 callgsubr
          67 249 19 -96 callgsubr
          hintmask 00101000
          179 440 -85 callgsubr
        </CharString>
        <CharString name="Ocircumflex">
          -5 callgsubr
          116 80 59 callsubr
          7 318 10 -96 callgsubr
          hintmask 00101000
          392 395 -85 callsubr
        </CharString>
        <CharString name="Odieresis">
          -5 callgsubr
          52 94 59 callsubr
          14 58 callsubr
          13 112 hintmask 11010010
          -105 callsubr
          hintmask 00101100
          386 500 rmoveto
          -22 -16 -50 callgsubr
          -8 -12 -2 -15 -13 vvcurveto
          -14 2 -16 8 33 callgsubr
          16 -4 22 hhcurveto
          19 17 4 -4 callsubr
          16 14 vvcurveto
          13 -3 15 32 callsubr
          -12 -17 5 -19 hhcurveto
          -212 hmoveto
          -20 -17 -3 callgsubr
          -3 -15 -13 vvcurveto
          -14 3 -16 7 callgsubr
          17 -4 20 hhcurveto
          20 18 4 78 callgsubr
          8 12 2 16 14 vvcurveto
          13 -2 15 -8 -52 callsubr
          -18 5 -20 hhcurveto
          endchar
        </CharString>
        <CharString name="Ograve">
          28 callgsubr
          33 249 53 -96 callgsubr
          hintmask 00101000
          191 560 -57 callgsubr
        </CharString>
        <CharString name="Oslash">
          139 -13 83 543 83 hstem
          49 109 342 110 vstem
          49 342 rmoveto
          -101 25 -107 64 -70 vhcurveto
          -44 -79 15 -18 30 -17 25 -3 rlinecurve
          38 68 rlineto
          -17 34 40 -11 54 hhcurveto
          80 52 24 36 41 hvcurveto
          78 68 29 118 109 vvcurveto
          99 -25 108 -65 70 vhcurveto
          46 80 -15 18 -31 17 -24 3 rlinecurve
          -40 -69 rlineto
          18 -33 -41 10 -52 24 callgsubr
          109 hmoveto
          122 31 149 141 34 27 -9 -15 22 vhcurveto
          -223 -428 rlineto
          -25 53 -7 67 61 vvcurveto
          342 hmoveto
          -122 -30 -150 -140 -34 -28 9 15 -23 vhcurveto
          223 428 rlineto
          24 -53 8 -67 -60 vvcurveto
          endchar
        </CharString>
        <CharString name="Otilde">
          -5 callgsubr
          51 84 59 callsubr
          -13 358 -10 -96 callgsubr
          hintmask 00000000
          289 420 rmoveto
          -7 15 21 -8 22 hhcurveto
          41 39 26 46 21 hvcurveto
          9 20 rlineto
          17 -8 -23 14 -21 hhcurveto
          -11 -14 rlineto
          -15 -50 callsubr
          hintmask 00101000
          -56 27 rlineto
          8 -16 -19 7 -23 hhcurveto
          -44 -36 -28 -44 -21 -15 callgsubr
          11 14 rlineto
          14 11 14 10 14 hhcurveto
          11 13 -4 -5 9 hvcurveto
          endchar
        </CharString>
        <CharString name="P">
          48 241 85 276 85 hstem
          91 106 224 111 vstem
          532 464 rmoveto
          150 -96 73 -133 -68 -63 -2 -1 -75 vhcurveto
          -6 -7 rlineto
          -677 vlineto
          -26 callsubr
          241 106 vlineto
          134 95 77 146 hvcurveto
          -335 139 rmoveto
          -1 33 41 0 28 hhcurveto
          100 22 -77 -61 -60 -22 -78 -100 hvcurveto
          -19 -46 -1 -37 hhcurveto
          endchar
        </CharString>
        <CharString name="Q">
          132 -128 78 37 87 537 85 hstem
          49 111 331 111 vstem
          453 -101 rmoveto
          -16 21 24 -11 32 hhcurveto
          35 34 26 52 3 hvcurveto
          -35 -29 10 45 -63 hvcurveto
          -22 16 20 8 19 13 19 20 rlinecurve
          71 68 20 109 103 vvcurveto
          106 -25 121 -79 69 vhcurveto
          36 -41 -51 22 -80 hhcurveto
          -80 -52 -22 -36 -41 hvcurveto
          -79 -69 -25 -121 -106 vvcurveto
          -107 25 -120 79 -70 vhcurveto
          -35 42 54 -23 80 hhcurveto
          10 hlineto
          -179 355 rmoveto
          123 26 146 140 140 25 -146 -123 -122 -25 -146 -140 -140 -26 146 122 vhcurveto
          endchar
        </CharString>
        <CharString name="R">
          38 callsubr
          hstem
          91 105 233 110 vstem
          -101 callgsubr
          endchar
        </CharString>
        <CharString name="Racute">
          38 callsubr
          41 20 callgsubr
          91 105 2 249 -18 -72 callsubr
          2 422 -85 callgsubr
        </CharString>
        <CharString name="Rcaron">
          38 callsubr
          51 80 hstemhm
          91 105 -57 319 -29 -72 callsubr
          -11 532 -93 callsubr
        </CharString>
        <CharString name="Rcommaaccent">
          80 -28 callsubr
          328 87 241 84 hstemhm
          91 105 83 98 52 110 hintmask 00011101
          -101 callgsubr
          hintmask 11100010
          171 -418 -94 callgsubr
        </CharString>
        <CharString name="S">
          55 callsubr
          hstem
          58 108 238 111 vstem
          -84 callgsubr
          endchar
        </CharString>
        <CharString name="Sacute">
          55 callsubr
          32 20 callgsubr
          58 108 20 249 -31 -64 callgsubr
          156 720 -85 callgsubr
        </CharString>
        <CharString name="Scaron">
          55 callsubr
          42 80 hstemhm
          58 108 -39 319 -42 -64 callgsubr
          143 830 -93 callsubr
        </CharString>
        <CharString name="T">
          -28 593 90 hstem
          193 107 vstem
          -44 callgsubr
          endchar
        </CharString>
        <CharString name="Tcaron">
          -28 593 90 55 80 hstemhm
          86 319 -212 107 hintmask 10010000
          -44 callgsubr
          hintmask 01100000
          -61 372 -93 callsubr
        </CharString>
        <CharString name="Thorn">
          51 145 85 268 85 hstem
          91 106 223 111 vstem
          91 hmoveto
          -26 callsubr
          145 104 vlineto
          134 96 73 146 150 -97 69 -133 -35 -35 -1 -1 -34 hvcurveto
          102 -17 callgsubr
          206 -185 rmoveto
          100 23 -73 -61 -60 -23 -74 -100 hvcurveto
          -18 -44 -1 -38 hhcurveto
          270 vlineto
          -1 38 41 0 21 hhcurveto
          endchar
        </CharString>
        <CharString name="U">
          41 callsubr
          hstem
          82 106 292 107 vstem
          -97 callgsubr
          endchar
        </CharString>
        <CharString name="Uacute">
          44 callsubr
          44 249 -1 -75 callgsubr
          -355 542 -85 callgsubr
        </CharString>
        <CharString name="Ucircumflex">
          41 callsubr
          739 80 hstemhm
          82 106 -16 318 -10 -75 callgsubr
          -142 497 -85 callsubr
        </CharString>
        <CharString name="Udieresis">
          41 callsubr
          675 94 hstemhm
          82 106 -9 58 callsubr
          -7 107 hintmask 10100100
          -97 callgsubr
          hintmask 01011000
          -148 602 rmoveto
          -22 -16 -50 callgsubr
          -8 -12 -2 -15 -13 vvcurveto
          -14 2 -16 8 33 callgsubr
          16 -4 22 hhcurveto
          19 17 4 -4 callsubr
          16 14 vvcurveto
          13 -3 15 32 callsubr
          -12 -17 5 -19 hhcurveto
          -212 hmoveto
          -20 -17 -3 callgsubr
          -3 -15 -13 vvcurveto
          -14 3 -16 7 callgsubr
          17 -4 20 hhcurveto
          20 18 4 78 callgsubr
          8 12 2 16 14 vvcurveto
          13 -2 15 -8 -52 callsubr
          -18 5 -20 hhcurveto
          endchar
        </CharString>
        <CharString name="Ugrave">
          44 callsubr
          10 249 33 -75 callgsubr
          -343 662 -57 callgsubr
        </CharString>
        <CharString name="Uring">
          41 callsubr
          594 72 callsubr
          82 106 24 71 100 71 26 107 hintmask 10010010
          -97 callgsubr
          hintmask 01101100
          -375 541 -25 callsubr
        </CharString>
        <CharString name="V">
          55 -5 100 hstemhm
          20 538 54 callgsubr
          300 95 rmoveto
          -5 -2 2 8 -2 hvcurveto
          -12 53 -18 70 -14 49 -103 361 rcurveline
          38 -11 -18 14 -29 hhcurveto
          -23 -23 -7 -9 -20 hvcurveto
          184 -627 rlineto
          -45 13 26 -7 35 hhcurveto
          27 29 2 2 26 hvcurveto
          198 674 -5 8 rlineto
          4 -13 -20 2 -15 hhcurveto
          -17 -15 -1 -3 -14 hvcurveto
          endchar
        </CharString>
        <CharString name="W">
          330 -5 93 474 107 hstem
          30 792 vstem
          156 48 rmoveto
          -46 9 28 -7 33 hhcurveto
          28 38 2 3 26 hvcurveto
          61 315 13 67 17 94 14 86 rlinecurve
          7 hlineto
          13 -86 16 -96 11 -65 48 -268 rcurveline
          -45 8 26 -7 32 hhcurveto
          27 42 2 4 26 hvcurveto
          143 673 -5 7 rlineto
          4 -15 -20 2 -16 hhcurveto
          -15 -18 12 callgsubr
          -77 -389 -10 -53 -17 -92 -9 -61 rlinecurve
          -5 -2 1 11 -2 hvcurveto
          -100 569 rlineto
          3 -17 -31 2 -20 hhcurveto
          -20 -29 -2 -3 -20 hvcurveto
          -109 -581 rlineto
          -6 -2 1 11 -1 hvcurveto
          -7 48 -16 94 -9 51 -63 340 rcurveline
          43 -7 -15 14 -35 hhcurveto
          -19 -20 -4 -9 -20 hvcurveto
          endchar
        </CharString>
        <CharString name="X">
          67 -7 697 hstem
          18 551 vstem
          445 683 rmoveto
          -143 -235 -123 200 rlineto
          32 -20 -20 10 -27 hhcurveto
          -22 -26 -8 -15 -22 hvcurveto
          190 -310 -214 -345 3 -7 rlineto
          -6 13 22 -4 21 hhcurveto
          17 19 2 3 10 hvcurveto
          163 270 145 -234 rlineto
          -33 21 20 -10 27 hhcurveto
          22 26 8 15 22 hvcurveto
          -213 345 192 310 -3 7 rlineto
          6 -13 -21 4 -22 hhcurveto
          -16 -18 -2 -3 -10 hvcurveto
          endchar
        </CharString>
        <CharString name="Y">
          -17 -4 694 hstem
          199 107 vstem
          303 454 rmoveto
          -11 -29 -22 -58 -11 -40 rrcurveto
          -5 hlineto
          -12 41 -16 49 -14 35 -79 192 rcurveline
          32 -13 -15 14 -29 hhcurveto
          -21 -23 -6 -13 -23 hvcurveto
          190 -450 rlineto
          -221 vlineto
          -3 15 22 -12 callsubr
          17 hvcurveto
          219 vlineto
          190 454 -5 7 rlineto
          5 -15 -18 3 -19 hhcurveto
          -14 -16 13 callgsubr
          endchar
        </CharString>
        <CharString name="Yacute">
          -21 -4 694 38 20 callgsubr
          152 249 -205 107 hintmask 10010000
          300 454 rmoveto
          -11 -29 -22 -58 -11 -40 rrcurveto
          -5 hlineto
          -12 41 -16 49 -14 35 -79 192 rcurveline
          32 -13 -15 14 -29 hhcurveto
          -21 -23 -6 -13 -23 hvcurveto
          190 -450 rlineto
          -221 vlineto
          -3 15 22 -12 callsubr
          17 hvcurveto
          219 vlineto
          190 454 -5 7 rlineto
          5 -15 -18 3 -19 hhcurveto
          -14 -16 13 callgsubr
          hintmask 01100000
          -239 99 -85 callgsubr
        </CharString>
        <CharString name="Ydieresis">
          -21 -4 694 58 94 hstemhm
          99 97 0 107 7 97 hintmask 10010000
          300 454 rmoveto
          -11 -29 -22 -58 -11 -40 rrcurveto
          -5 hlineto
          -12 41 -16 49 -14 35 -79 192 rcurveline
          32 -13 -15 14 -29 hhcurveto
          -21 -23 -6 -13 -23 hvcurveto
          190 -450 rlineto
          -221 vlineto
          -3 15 22 -12 callsubr
          17 hvcurveto
          219 vlineto
          190 454 -5 7 rlineto
          5 -15 -18 3 -19 hhcurveto
          -14 -16 13 callgsubr
          hintmask 01101000
          -32 159 rmoveto
          -22 -16 -50 callgsubr
          -8 -12 -2 -15 -13 vvcurveto
          -14 2 -16 8 33 callgsubr
          16 -4 22 hhcurveto
          19 17 4 -4 callsubr
          16 14 vvcurveto
          13 -3 15 32 callsubr
          -12 -17 5 -19 hhcurveto
          -212 hmoveto
          -20 -17 -3 callgsubr
          -3 -15 -13 vvcurveto
          -14 3 -16 7 callgsubr
          17 -4 20 hhcurveto
          20 18 4 78 callgsubr
          8 12 2 16 14 vvcurveto
          13 -2 15 -8 -52 callsubr
          -18 5 -20 hhcurveto
          endchar
        </CharString>
        <CharString name="Z">
          30 callsubr
          hstem
          48 467 vstem
          -99 callsubr
          endchar
        </CharString>
        <CharString name="Zacute">
          30 callsubr
          45 20 callgsubr
          48 467 -332 249 -88 callgsubr
          -131 290 -85 callgsubr
        </CharString>
        <CharString name="Zcaron">
          30 callsubr
          55 80 hstemhm
          48 467 -391 319 -88 callgsubr
          -144 400 -93 callsubr
        </CharString>
        <CharString name="Zdotaccent">
          30 callsubr
          72 90 hstemhm
          48 467 -295 119 -88 callgsubr
          -94 308 -37 callgsubr
        </CharString>
        <CharString name="a">
          1 callsubr
          hstem
          43 103 185 102 vstem
          -100 callsubr
          endchar
        </CharString>
        <CharString name="a.smcp">
          -30 callsubr
          hstem
          13 518 vstem
          -107 callgsubr
          endchar
        </CharString>
        <CharString name="aacute">
          1 callsubr
          34 6 callgsubr
          43 103 23 217 -55 102 hintmask 11101010
          -100 callsubr
          hintmask 00010100
          -44 511 -99 callgsubr
        </CharString>
        <CharString name="aacute.smcp">
          21 callgsubr
          -332 217 -103 callgsubr
          hintmask 00010100
          16 426 -99 callgsubr
        </CharString>
        <CharString name="acircumflex">
          -13 46 0 97 195 endchar
        </CharString>
        <CharString name="acircumflex.smcp">
          -30 callsubr
          47 182 43 callgsubr
          -403 291 -103 callgsubr
          hintmask 00010100
          186 392 -91 callgsubr
        </CharString>
        <CharString name="acute">
          538 201 hstem
          123 217 vstem
          123 580 -99 callgsubr
        </CharString>
        <CharString name="acute.cap">
          728 174 hstem
          98 249 vstem
          98 782 -85 callgsubr
        </CharString>
        <CharString name="adieresis">
          1 callsubr
          69 79 hstemhm
          43 103 -50 60 callgsubr
          -55 102 hintmask 11101001
          -100 callsubr
          hintmask 00010110
          69 543 rmoveto
          -12 3 -15 5 -1 callsubr
          21 -5 9 callgsubr
          21 -16 callgsubr
          11 2 16 -39 callgsubr
          -2 16 -6 -95 callgsubr
          -5 -12 -3 -16 -12 vvcurveto
          -186 hmoveto
          -12 2 -15 6 37 callsubr
          10 22 -5 9 callgsubr
          20 5 7 11 hvcurveto
          5 11 3 16 -39 callgsubr
          -3 16 -5 -95 callgsubr
          -6 -12 -2 -16 -12 vvcurveto
          endchar
        </CharString>
        <CharString name="adieresis.smcp">
          -30 callsubr
          79 79 43 callgsubr
          -406 60 callgsubr
          -103 callgsubr
          hintmask 00010110
          128 458 rmoveto
          -12 3 -15 5 -1 callsubr
          21 -5 9 callgsubr
          21 -16 callgsubr
          11 2 16 -39 callgsubr
          -2 16 -6 -95 callgsubr
          -5 -12 -3 -16 -12 vvcurveto
          -186 hmoveto
          -12 2 -15 6 37 callsubr
          10 22 -5 9 callgsubr
          20 5 7 11 hvcurveto
          5 11 3 16 -39 callgsubr
          -3 16 -5 -95 callgsubr
          -6 -12 -2 -16 -12 vvcurveto
          endchar
        </CharString>
        <CharString name="ae">
          261 -13 84 143 75 -61 72 121 83 -74 77 hstemhm
          43 103 185 104 199 100 hintmask 00000000
          hintmask 11001111
          726 214 rmoveto
          6 28 2 19 32 vvcurveto
          119 -68 95 -130 -61 -46 -25 -39 -33 vhcurveto
          hintmask 10110111
          40 -27 -45 21 -59 hhcurveto
          -66 -81 -21 -25 -56 hvcurveto
          1 -26 12 -33 17 -16 rrcurveto
          21 52 55 17 51 hhcurveto
          51 30 -26 -62 hvcurveto
          -40 vlineto
          5 -32 -34 2 -30 hhcurveto
          -109 -83 -51 -114 -73 48 -75 100 77 62 41 42 40 hvcurveto
          -56 34 55 -27 75 hhcurveto
          69 70 22 34 47 hvcurveto
          -3 21 -12 30 18 callgsubr
          -46 -17 -51 hhcurveto
          hintmask 11001111
          -84 -26 60 83 -4 hvcurveto
          -222 -145 rmoveto
          -43 -24 32 41 hvcurveto
          hintmask 10101111
          54 35 32 60 28 32 -1 -4 29 vhcurveto
          2 -32 4 -28 6 -25 rrcurveto
          hintmask 11001111
          -47 -37 -50 -22 -42 hhcurveto
          323 361 rmoveto
          71 27 -59 -70 hvcurveto
          -12 -199 vlineto
          89 5 32 52 64 hhcurveto
          endchar
        </CharString>
        <CharString name="ae.smcp">
          262 -1 86 39 82 29 83 142 86 hstemhm
          358 100 hintmask 00000000
          hintmask 11111000
          229 124 rmoveto
          84 hlineto
          7 23 0 1 15 hvcurveto
          -63 vlineto
          -39 23 -24 37 vhcurveto
          254 -43 callsubr
          8 vvcurveto
          -222 hlineto
          -27 -16 -1 -1 -17 hvcurveto
          14 1 15 17 vvcurveto
          hintmask 10111000
          106 56 vlineto
          159 hlineto
          4 13 1 17 68 callsubr
          -159 hlineto
          -13 -22 -1 -21 hhcurveto
          91 vlineto
          20 -1 17 15 vvcurveto
          -1 21 22 1 14 hhcurveto
          204 hlineto
          6 15 -45 callsubr
          -359 hlineto
          -19 -29 -2 -8 -16 hvcurveto
          -290 -527 3 -7 rlineto
          -5 14 17 -2 17 hhcurveto
          16 16 -7 callgsubr
          67 126 rlineto
          12 32 -1 9 hhcurveto
          46 184 rmoveto
          22 43 34 68 22 47 rrcurveto
          5 -261 hlineto
          -15 -24 1 -7 hhcurveto
          -54 hlineto
          -7 -19 -1 -13 hhcurveto
          endchar
        </CharString>
        <CharString name="agrave">
          -13 48 0 97 193 endchar
        </CharString>
        <CharString name="agrave.smcp">
          21 callgsubr
          -389 216 -103 callgsubr
          hintmask 00010100
          31 585 -69 callgsubr
        </CharString>
        <CharString name="ampersand">
          103 -13 84 246 90 204 85 hstemhm
          50 110 -81 110 209 102 53 callsubr
          313 407 rmoveto
          hintmask 11101100
          -86 -38 41 63 58 39 42 70 54 47 -12 -14 45 hvcurveto
          18 20 10 34 28 vvcurveto
          16 -46 -70 13 -68 hhcurveto
          -132 -77 -79 -99 -72 43 -60 60 -20 hvcurveto
          hintmask 11110100
          -70 -22 -62 -71 -93 vvcurveto
          -109 66 -84 126 58 58 21 32 44 vhcurveto
          8 -41 rlineto
          -3 12 17 -2 19 hhcurveto
          19 17 2 4 13 hvcurveto
          -2 38 -5 75 38 vvcurveto
          104 vlineto
          16 -1 23 23 vvcurveto
          32 hlineto
          44 31 14 41 18 -5 21 -9 11 hvcurveto
          -10 -23 -36 -5 -36 hhcurveto
          -99 -153 rmoveto
          -136 vlineto
          -24 -29 -49 -23 -54 hhcurveto
          -64 -42 42 72 66 41 66 102 hvcurveto
          96 hlineto
          -1 -23 0 -23 -17 vvcurveto
          endchar
        </CharString>
        <CharString name="ampersand.smcp">
          38 -13 81 178 85 146 82 hstemhm
          45 109 -82 110 172 101 53 callsubr
          287 331 rmoveto
          hintmask 11101100
          -73 -32 28 46 41 31 31 60 46 43 -11 -11 40 hvcurveto
          19 19 10 33 -2 27 rrcurveto
          13 -42 -64 12 -59 hhcurveto
          -123 -69 -63 -83 -58 37 -47 53 -17 hvcurveto
          hintmask 11110100
          -63 -17 -54 -57 -74 vvcurveto
          -87 58 -69 112 56 50 17 27 38 vhcurveto
          6 -36 rlineto
          -2 12 17 -2 16 hhcurveto
          20 20 2 5 12 hvcurveto
          -2 24 -5 55 29 vvcurveto
          84 vlineto
          19 -1 19 18 vvcurveto
          21 hlineto
          43 28 13 39 17 -6 19 -7 11 hvcurveto
          -9 -21 -29 -5 -33 hhcurveto
          -96 -139 rmoveto
          -89 vlineto
          -19 -25 -42 -16 -44 hhcurveto
          -53 -36 28 54 52 36 44 87 hvcurveto
          78 hlineto
          -1 -18 0 -18 -18 vvcurveto
          endchar
        </CharString>
        <CharString name="aogonek">
          17 -217 69 135 82 159 72 121 83 hstemhm
          43 103 131 82 -28 102 hintmask 00000000
          hintmask 11111010
          466 -132 rmoveto
          hintmask 11111100
          -8 -15 -21 -8 -22 hhcurveto
          -28 -21 15 30 36 27 28 34 28 hvcurveto
          hintmask 11111010
          23 20 15 18 7 21 rrcurveto
          -23 19 -9 27 -86 callsubr
          hvcurveto
          hintmask 11111100
          65 51 34 35 36 hvcurveto
          6 -14 9 -12 11 -10 rrcurveto
          -48 -34 -44 -51 -59 vvcurveto
          -59 45 70 callgsubr
          hintmask 11111010
          -1 22 -10 18 -13 10 rrcurveto
          -253 201 -56 callgsubr
          endchar
        </CharString>
        <CharString name="aogonek.smcp">
          24 -217 69 143 13 -6 -20 26 -20 133 86 252 87 hstemhm
          360 83 hintmask 00000000
          hintmask 10011110
          13 8 rmoveto
          51 callsubr
          hintmask 11001110
          -77 callsubr
          -28 callgsubr
          hintmask 10101110
          29 -81 6 -20 8 -12 10 -7 rlinecurve
          -39 -31 -34 -45 -50 vvcurveto
          -59 -1 callgsubr
          41 37 37 51 30 hvcurveto
          -198 541 rlineto
          3 -18 -24 -11 callsubr
          -18 -27 -1 -3 -18 hvcurveto
          12 -225 -87 callgsubr
          endchar
        </CharString>
        <CharString name="aring">
          1 callsubr
          35 72 callsubr
          43 103 -22 71 100 71 -35 102 hintmask 1110010010000000
          -100 callsubr
          hintmask 0001101100000000
          -89 583 -70 callsubr
        </CharString>
        <CharString name="aring.smcp">
          -30 callsubr
          45 72 callsubr
          13 518 -378 71 100 71 hintmask 11100100
          -107 callgsubr
          hintmask 00011011
          -30 498 -70 callsubr
        </CharString>
        <CharString name="asciicircum">
          10 566 82 -82 87 hstemhm
          44 442 hintmask 00000000
          hintmask 01100000
          321 648 rmoveto
          -26 7 -60 -1 -26 -6 -165 -342 rcurveline
          23 -6 52 -1 27 7 rrcurveto
          hintmask 10100000
          82 176 10 23 15 38 9 23 rlinecurve
          6 hlineto
          9 -23 15 -38 10 -23 82 -176 rcurveline
          27 -7 52 1 23 6 rrcurveto
          endchar
        </CharString>
        <CharString name="asciitilde">
          66 211 97 -29 97 hstemhm
          40 506 hintmask 00000000
          hintmask 01100000
          276 356 rmoveto
          12 -29 -29 8 -27 hhcurveto
          -61 -46 -32 -56 -31 hvcurveto
          -13 -23 9 -23 30 -15 22 -2 rlinecurve
          19 22 rlineto
          20 16 20 12 24 hhcurveto
          16 18 -4 -8 17 hvcurveto
          hintmask 10100000
          79 -36 rlineto
          -12 28 30 -8 27 hhcurveto
          61 46 32 56 31 hvcurveto
          13 23 -9 23 -30 16 -22 1 rlinecurve
          -19 -22 rlineto
          -20 -16 -20 -12 -24 hhcurveto
          -16 -18 5 7 -18 hvcurveto
          endchar
        </CharString>
        <CharString name="asterisk">
          -16 731 7 hstem
          208 88 vstem
          45 547 rmoveto
          53 -16 35 -12 41 -3 36 -2 rlinecurve
          -28 -24 -31 -27 -22 -30 -33 -44 rcurveline
          13 -21 37 -26 23 -6 32 46 rcurveline
          22 30 16 37 13 34 13 -34 16 -37 22 -31 32 -45 rcurveline
          25 6 36 27 11 20 -32 44 rcurveline
          -22 30 -32 28 -28 23 36 2 42 3 35 11 54 17 rcurveline
          2 25 -15 44 -15 16 -53 -17 rcurveline
          -35 -12 -35 -21 -32 -19 rrcurveto
          9 35 10 40 37 vvcurveto
          1 56 -22 9 -47 0 -21 -9 rlinecurve
          1 -56 rlineto
          -38 9 -40 9 -35 vhcurveto
          -31 19 -36 22 -34 12 -52 18 rcurveline
          -16 -19 -15 -44 3 -23 rrcurveto
          endchar
        </CharString>
        <CharString name="at">
          429 -188 80 113 81 -77 79 318 75 119 77 hstemhm
          50 104 130 100 180 98 143 102 hintmask 0000000000000000
          hintmask 1011111110000000
          663 412 rmoveto
          38 -40 -65 31 -70 hhcurveto
          -132 -72 -113 -142 hvcurveto
          hintmask 1101111110000000
          -134 59 -87 100 53 51 29 37 35 vhcurveto
          hintmask 1011111110000000
          -38 23 42 -24 56 hhcurveto
          103 101 95 186 238 -173 149 -243 -258 -183 -192 -260 -272 167 -141 229 81 86 17 27 70 hvcurveto
          25 -11 31 -16 17 vhcurveto
          -25 -61 -69 -12 -73 hhcurveto
          -179 -120 116 217 215 133 160 204 190 124 -121 -186 -153 -50 -52 -49 -30 -14 19 50 hvcurveto
          hintmask 1101111110000000
          -197 -71 rmoveto
          -58 -23 57 86 97 33 80 71 32 28 -14 -16 16 hvcurveto
          -231 vlineto
          -33 -25 -40 -26 -34 hhcurveto
          endchar
        </CharString>
        <CharString name="atilde">
          -13 46 0 97 196 endchar
        </CharString>
        <CharString name="atilde.smcp">
          -30 callsubr
          62 85 43 callgsubr
          -434 354 -103 callgsubr
          hintmask 00000000
          102 417 -92 callgsubr
          hintmask 00010100
          -95 callsubr
        </CharString>
        <CharString name="b">
          8 -8 77 347 86 hstem
          78 101 200 105 vstem
          484 253 rmoveto
          146 -58 103 -115 -56 -44 -24 -27 -32 vhcurveto
          218 vlineto
          46 -13 20 -43 vhcurveto
          -39 -18 callgsubr
          -704 vlineto
          -21 56 62 -12 64 hhcurveto
          123 102 86 175 -1 hvcurveto
          -196 163 rmoveto
          51 40 -48 -116 -122 -49 -61 -69 -31 -26 4 8 -25 hvcurveto
          278 vlineto
          34 29 41 23 39 hhcurveto
          endchar
        </CharString>
        <CharString name="b.smcp">
          28 -3 77 174 78 146 77 hstemhm
          84 103 183 105 -78 107 53 callsubr
          89 546 rmoveto
          11 callgsubr
          71 54 -1 73 hhcurveto
          146 71 59 99 66 -50 56 -60 17 hvcurveto
          hintmask 11111000
          50 17 31 46 49 vvcurveto
          94 -68 49 -132 vhcurveto
          hintmask 11110100
          -60 -67 -2 -1 -59 hvcurveto
          191 -298 rmoveto
          91 26 -50 -38 -37 -18 -49 -90 -34 -32 0 -1 -36 hvcurveto
          175 vlineto
          225 vmoveto
          hintmask 11111000
          -1 27 36 0 23 hhcurveto
          79 18 -37 -36 -34 -19 -39 -80 hvcurveto
          -84 hlineto
          endchar
        </CharString>
        <CharString name="backslash">
          -98 -111 872 hstem
          10 405 vstem
          326 -111 rmoveto
          29 3 35 12 25 19 -316 838 rcurveline
          -30 -2 -33 -11 -26 -20 rrcurveto
          endchar
        </CharString>
        <CharString name="bar">
          -265 -145 924 hstem
          79 97 vstem
          79 -141 rmoveto
          -3 15 21 -1 13 hhcurveto
          15 18 1 3 15 hvcurveto
          915 vlineto
          4 -15 -18 64 callsubr
          -13 -21 13 callgsubr
          endchar
        </CharString>
        <CharString name="braceleft">
          -174 -169 988 hstemhm
          38 108 -22 36 callgsubr
          hintmask 10100000
          42 360 rmoveto
          hintmask 11000000
          -6 -17 0 -35 6 -17 rrcurveto
          hintmask 10100000
          47 -14 35 -45 -58 vvcurveto
          -171 vlineto
          -96 60 -53 82 -14 vhcurveto
          52 -9 14 16 9 35 -5 21 rlinecurve
          -49 15 rlineto
          -36 12 -22 29 45 vvcurveto
          168 vlineto
          63 -32 63 -51 23 vhcurveto
          8 vlineto
          51 24 32 63 63 vvcurveto
          167 vlineto
          45 22 30 36 11 vhcurveto
          49 16 5 20 -9 35 -14 16 rlinecurve
          -52 -9 rlineto
          -82 -13 -60 -54 -96 vvcurveto
          -170 vlineto
          -59 -35 -44 -47 -14 vhcurveto
          endchar
        </CharString>
        <CharString name="braceright">
          -174 -169 988 hstem
          117 105 vstem
          304 360 rmoveto
          -46 14 -36 44 59 vvcurveto
          170 vlineto
          96 -60 54 -82 13 vhcurveto
          -51 9 -14 -16 -10 -35 5 -20 rlinecurve
          50 -16 rlineto
          36 -11 21 -30 -45 vvcurveto
          -167 vlineto
          -63 33 -63 50 -24 vhcurveto
          -8 vlineto
          -50 -23 -33 -63 -63 vvcurveto
          -168 vlineto
          -45 -21 -29 -36 -12 vhcurveto
          -50 -15 -5 -21 10 -35 14 -16 rlinecurve
          51 9 rlineto
          82 14 60 53 96 vvcurveto
          171 vlineto
          58 36 45 46 14 vhcurveto
          7 17 0 35 -7 17 rrcurveto
          endchar
        </CharString>
        <CharString name="bracketleft">
          61 callgsubr
          99 104 vstem
          309 -142 rmoveto
          3 9 1 13 9 vvcurveto
          15 -5 19 -3 10 vhcurveto
          -102 3 rlineto
          794 vlineto
          102 3 rlineto
          3 10 5 19 15 vvcurveto
          9 -1 13 -3 9 vhcurveto
          -203 7 -7 -6 rlineto
          -952 vlineto
          7 -6 rlineto
          endchar
        </CharString>
        <CharString name="bracketright">
          61 callgsubr
          141 103 vstem
          237 -149 rmoveto
          7 6 rlineto
          952 vlineto
          -7 6 -202 -7 rlineto
          -3 -9 -1 -13 -9 vvcurveto
          -15 5 -19 3 -10 vhcurveto
          102 -3 rlineto
          -794 vlineto
          -102 -3 rlineto
          -3 -10 -5 -19 -15 vvcurveto
          -9 1 -13 3 -9 vhcurveto
          endchar
        </CharString>
        <CharString name="brokenbar">
          -271 -145 924 hstem
          77 96 vstem
          77 -141 rmoveto
          -6 callsubr
          141 vmoveto
          -6 callsubr
          endchar
        </CharString>
        <CharString name="bullet">
          -73 186 171 hstem
          110 215 vstem
          110 272 rmoveto
          -21 5 -45 10 -20 vhcurveto
          -14 23 42 -9 36 hhcurveto
          32 48 9 14 19 hvcurveto
          10 20 5 45 21 vvcurveto
          21 -5 45 -10 19 vhcurveto
          14 -21 -46 10 -32 hhcurveto
          -36 -42 -10 -14 -23 hvcurveto
          -10 -19 -5 -45 -21 vvcurveto
          endchar
        </CharString>
        <CharString name="c">
          -49 -13 85 355 80 hstem
          44 107 188 95 vstem
          -46 callgsubr
          endchar
        </CharString>
        <CharString name="c.smcp">
          56 callsubr
          hstem
          40 109 255 100 vstem
          -76 callgsubr
          endchar
        </CharString>
        <CharString name="cacute">
          -49 53 0 99 194 endchar
        </CharString>
        <CharString name="cacute.smcp">
          56 callsubr
          40 callgsubr
          65 217 -27 100 hintmask 11010100
          -76 callgsubr
          hintmask 00101000
          -190 300 -99 callgsubr
        </CharString>
        <CharString name="caron">
          550 183 hstem
          55 292 vstem
          105 727 -101 callsubr
        </CharString>
        <CharString name="caron.alt">
          -96 557 9 hstem
          201 107 vstem
          201 566 -21 callgsubr
        </CharString>
        <CharString name="caron.cap">
          738 80 hstem
          39 319 vstem
          85 892 -93 callsubr
        </CharString>
        <CharString name="ccaron">
          -49 -13 85 355 80 43 50 callsubr
          44 107 -44 292 -60 95 hintmask 11010100
          -46 callgsubr
          hintmask 00101000
          -182 424 -101 callsubr
        </CharString>
        <CharString name="ccaron.smcp">
          56 callsubr
          43 183 12 callsubr
          -4 292 -33 100 hintmask 11010100
          -76 callgsubr
          hintmask 00101000
          -209 447 -101 callsubr
        </CharString>
        <CharString name="ccedilla">
          -49 16 callgsubr
          464 80 hstemhm
          44 107 127 84 -23 95 hintmask 00000000
          hintmask 01111100
          195 -74 rmoveto
          2 -7 8 -8 7 -3 rrcurveto
          3 7 9 2 8 hhcurveto
          28 14 -18 -21 -21 -13 -18 -31 -18 -20 6 8 -12 hvcurveto
          hintmask 10111100
          -12 -14 -8 -19 -1 -19 rrcurveto
          hintmask 01111100
          -11 17 30 -9 32 hhcurveto
          69 51 40 59 50 -39 34 -54 3 hvcurveto
          2 8 5 10 4 8 59 7 52 27 38 38 -30 callgsubr
          hvcurveto
          hintmask 01111010
          73 17 -59 -65 -2 hvcurveto
          -24 callgsubr
          -128 52 -111 120 -16 hvcurveto
          hintmask 01111100
          -8 -19 -9 -26 -4 -18 rrcurveto
          endchar
        </CharString>
        <CharString name="ccedilla.smcp">
          16 16 callgsubr
          25 88 398 85 12 callsubr
          166 83 6 100 hintmask 00000000
          hintmask 01111110
          231 -38 callsubr
          -39 34 -54 52 callgsubr
          76 9 62 31 44 39 -44 callsubr
          hvcurveto
          hintmask 01011101
          92 26 -67 -75 hvcurveto
          -41 callgsubr
          -135 55 -136 157 -12 hvcurveto
          hintmask 01111110
          -8 -19 -8 -26 -5 -17 rrcurveto
          endchar
        </CharString>
        <CharString name="cedilla">
          16 callgsubr
          -50 87 hstemhm
          229 83 hintmask 00000000
          hintmask 01011000
          145 11 callsubr
          7 8 3 callgsubr
          -19 6 8 -13 hvcurveto
          hintmask 10011000
          -11 -14 -9 -19 -1 -19 rrcurveto
          hintmask 01101000
          6 callsubr
          -38 34 -55 3 hvcurveto
          hintmask 01011000
          4 12 8 15 5 10 rrcurveto
          -65 hlineto
          -9 -20 -11 -33 -6 -21 rrcurveto
          endchar
        </CharString>
        <CharString name="cent">
          -52 -31 182 355 175 hstem
          42 108 55 83 47 95 vstem
          205 -31 rmoveto
          38 callgsubr
          99 vlineto
          55 10 50 28 34 38 -7 22 -21 25 -18 11 rrcurveto
          -28 -33 -41 -23 -45 hhcurveto
          -70 -42 52 120 122 35 61 62 72 19 -65 -58 -3 hvcurveto
          -3 13 15 -2 12 hhcurveto
          41 14 23 38 57 -45 71 -94 16 hvcurveto
          98 vlineto
          2 67 callgsubr
          -2 -10 hvcurveto
          -100 vlineto
          -89 -19 -77 -79 -160 vvcurveto
          -113 40 -120 123 -22 vhcurveto
          endchar
        </CharString>
        <CharString name="cent.smcp">
          -99 -29 157 294 155 hstemhm
          38 101 42 79 35 92 hintmask 00000000
          hintmask 11111000
          181 -29 rmoveto
          -3 10 20 -1 10 hhcurveto
          10 65 callgsubr
          10 hvcurveto
          78 vlineto
          48 7 46 22 31 31 -7 22 -19 24 -17 11 rrcurveto
          -21 -31 -36 -17 -39 hhcurveto
          -61 -36 47 95 102 31 50 52 58 16 -47 -58 -1 hvcurveto
          -3 11 16 -2 11 hhcurveto
          39 15 21 38 58 -43 56 -82 13 hvcurveto
          79 vlineto
          3 -10 -19 1 -9 hhcurveto
          -10 -20 -1 -3 -10 hvcurveto
          -81 vlineto
          -79 -17 -67 -71 -136 vvcurveto
          -96 34 -105 109 -21 vhcurveto
          endchar
        </CharString>
        <CharString name="circumflex">
          541 182 hstem
          53 291 vstem
          294 546 -91 callgsubr
        </CharString>
        <CharString name="circumflex.cap">
          812 80 hstem
          38 318 vstem
          311 737 -85 callsubr
        </CharString>
        <CharString name="colon">
          -251 5 99 230 99 hstemhm
          64 132 hintmask 10100000
          64 55 rmoveto
          -78 callsubr
          hintmask 01100000
          329 vmoveto
          -78 callsubr
          endchar
        </CharString>
        <CharString name="comma">
          -251 -161 278 hstem
          76 132 vstem
          197 -40 callgsubr
          endchar
        </CharString>
        <CharString name="commaaccent">
          -40 callsubr
        </CharString>
        <CharString name="commaaccent.cap">
          -40 callsubr
        </CharString>
        <CharString name="copyright">
          282 -19 73 89 69 262 67 88 73 hstem
          40 87 101 89 359 86 vstem
          40 341 rmoveto
          -204 157 -156 204 203 158 156 204 204 -158 157 -203 -204 -157 -157 -204 vhcurveto
          87 hmoveto
          158 115 130 159 159 116 -130 -158 -158 -116 -129 -159 -159 -115 129 158 vhcurveto
          345 39 rmoveto
          -3 9 13 -2 12 hhcurveto
          33 13 19 28 53 -51 66 -97 -86 -90 -60 -140 -111 56 -87 116 54 60 26 34 34 hvcurveto
          -5 18 -15 23 -17 9 rrcurveto
          -22 -28 -37 -19 -33 hhcurveto
          -60 -36 46 83 87 31 46 53 56 18 -50 -44 -3 hvcurveto
          endchar
        </CharString>
        <CharString name="currency">
          55 120 78 273 79 hstem
          68 105 229 104 vstem
          68 334 rmoveto
          -46 12 -41 23 -34 vhcurveto
          -71 -77 13 -23 22 -21 21 -12 rlinecurve
          79 72 rlineto
          -21 34 41 -11 45 hhcurveto
          45 41 11 21 33 hvcurveto
          80 -73 22 14 22 21 12 22 rlinecurve
          -71 77 rlineto
          22 34 13 41 46 vvcurveto
          46 -13 42 -22 34 vhcurveto
          72 78 -13 22 -22 22 -22 12 rlinecurve
          -79 -73 rlineto
          21 -34 -41 12 -45 hhcurveto
          -46 -41 -12 -21 -34 hvcurveto
          -78 72 -22 -14 -22 -21 -12 -22 rlinecurve
          70 -77 rlineto
          -22 -34 -12 -41 -46 vvcurveto
          105 hmoveto
          74 40 63 74 74 41 -63 -74 -73 -41 -63 -74 -74 -40 64 72 vhcurveto
          endchar
        </CharString>
        <CharString name="currency.smcp">
          -54 89 74 210 73 hstem
          49 99 170 98 vstem
          49 267 rmoveto
          -37 10 -33 17 -27 vhcurveto
          -58 -64 13 -21 21 -22 21 -11 rlinecurve
          66 59 rlineto
          -14 27 32 -8 35 hhcurveto
          35 31 8 14 27 hvcurveto
          66 -61 22 14 22 21 11 21 rlinecurve
          -58 63 rlineto
          17 28 10 33 37 vvcurveto
          36 -10 32 -16 27 vhcurveto
          59 67 -13 21 -22 22 -21 12 rlinecurve
          -66 -61 rlineto
          15 -27 -32 8 -35 hhcurveto
          -36 -32 -8 -15 -27 hvcurveto
          -65 59 -22 -13 -22 -21 -11 -21 rlinecurve
          57 -64 rlineto
          -16 -27 -10 -33 -36 vvcurveto
          99 hmoveto
          57 28 49 57 55 30 -49 -57 -58 -30 -46 -55 -57 -28 48 56 vhcurveto
          endchar
        </CharString>
        <CharString name="d">
          10 -13 86 347 82 hstem
          44 105 200 101 vstem
          -60 callsubr
          endchar
        </CharString>
        <CharString name="d.smcp">
          64 -3 82 387 83 hstem
          84 105 244 108 vstem
          -53 callsubr
          endchar
        </CharString>
        <CharString name="dcaron">
          77 -13 86 347 82 54 9 hstemhm
          44 105 200 101 62 107 hintmask 11011000
          -60 callsubr
          hintmask 00100100
          272 492 -21 callgsubr
        </CharString>
        <CharString name="dcaron.smcp">
          64 -3 82 387 83 53 50 callsubr
          84 105 -55 292 7 108 hintmask 11010100
          -53 callsubr
          hintmask 00101000
          -249 507 -101 callsubr
        </CharString>
        <CharString name="degree">
          -193 378 70 153 71 hstem
          18 79 133 79 vstem
          18 525 rmoveto
          -85 62 -62 84 83 62 62 85 84 -62 63 -83 -84 -62 -63 -84 vhcurveto
          79 hmoveto
          44 25 32 42 40 26 -32 -44 -45 -26 -32 -40 -42 -25 32 45 vhcurveto
          endchar
        </CharString>
        <CharString name="dieresis">
          573 79 hstem
          50 60 callgsubr
          vstem
          236 612 rmoveto
          -12 3 -15 5 -1 callsubr
          21 -5 9 callgsubr
          21 -16 callgsubr
          11 2 16 -39 callgsubr
          -2 16 -6 -95 callgsubr
          -5 -12 -3 -16 -12 vvcurveto
          -186 hmoveto
          -12 2 -15 6 37 callsubr
          10 22 -5 9 callgsubr
          20 5 7 11 hvcurveto
          5 11 3 16 -39 callgsubr
          -3 16 -5 -95 callgsubr
          -6 -12 -2 -16 -12 vvcurveto
          endchar
        </CharString>
        <CharString name="dieresis.cap">
          748 94 hstem
          45 58 callsubr
          vstem
          305 842 rmoveto
          -22 -16 -50 callgsubr
          -8 -12 -2 -15 -13 vvcurveto
          -14 2 -16 8 33 callgsubr
          16 -4 22 hhcurveto
          19 17 4 -4 callsubr
          16 14 vvcurveto
          13 -3 15 32 callsubr
          -12 -17 5 -19 hhcurveto
          -212 hmoveto
          -20 -17 -3 callgsubr
          -3 -15 -13 vvcurveto
          -14 3 -16 7 callgsubr
          17 -4 20 hhcurveto
          20 18 4 78 callgsubr
          8 12 2 16 14 vvcurveto
          13 -2 15 -8 -52 callsubr
          -18 5 -20 hhcurveto
          endchar
        </CharString>
        <CharString name="divide">
          10 72 85 93 89 90 85 hstem
          204 113 vstem
          204 471 rmoveto
          -14 4 -18 5 -10 vhcurveto
          -8 11 22 -4 19 hhcurveto
          18 24 -2 callgsubr
          5 10 4 18 14 vvcurveto
          14 -4 18 -5 11 26 callsubr
          -11 -4 -18 -14 vvcurveto
          -356 vmoveto
          -15 4 -17 5 -11 vhcurveto
          -7 11 22 -5 19 hhcurveto
          18 24 -2 callgsubr
          5 11 4 17 15 vvcurveto
          13 -4 19 -5 10 26 callsubr
          -10 -4 -18 -14 vvcurveto
          270 135 76 callgsubr
          17 14 49 callsubr
          16 -3 15 vhcurveto
          -418 59 callgsubr
          -16 -14 vvcurveto
          -14 1 -17 -4 callgsubr
          endchar
        </CharString>
        <CharString name="dollar">
          -21 -39 161 400 166 hstemhm
          56 106 38 83 -79 83 65 108 hintmask 00000000
          hintmask 11101100
          33 98 rmoveto
          hintmask 11110100
          34 -23 62 -26 71 -10 rrcurveto
          -78 vlineto
          38 callgsubr
          76 vlineto
          110 9 67 63 90 vvcurveto
          79 -57 53 -75 27 vhcurveto
          -97 36 rlineto
          -44 15 -25 15 33 vvcurveto
          41 35 24 53 46 59 -16 -23 50 vhcurveto
          22 18 16 33 31 vvcurveto
          -41 19 -53 18 -62 6 rrcurveto
          80 vlineto
          3 67 callgsubr
          -3 -10 hvcurveto
          -82 vlineto
          -91 -15 -57 -62 -79 vvcurveto
          -72 46 -45 77 -29 vhcurveto
          100 -36 rlineto
          45 -16 28 -28 -35 vvcurveto
          -44 -43 -23 -54 -71 -63 30 26 -47 vhcurveto
          -21 -14 -19 -38 -1 -28 rrcurveto
          endchar
        </CharString>
        <CharString name="dollar.smcp">
          -78 -32 143 325 144 hstemhm
          176 78 -75 77 47 106 hintmask 00000000
          hintmask 11011000
          29 79 rmoveto
          hintmask 11101000
          30 -19 54 -23 63 -8 rrcurveto
          -61 vlineto
          -2 10 19 -1 10 hhcurveto
          10 19 1 2 10 hvcurveto
          60 vlineto
          93 10 62 49 79 vvcurveto
          70 -49 45 -75 27 vhcurveto
          -77 27 rlineto
          -34 13 -23 11 27 vvcurveto
          31 27 19 44 42 51 -15 -20 42 vhcurveto
          23 17 13 29 1 32 -38 17 -49 15 -51 5 rrcurveto
          64 vlineto
          2 -9 -19 1 -10 hhcurveto
          -9 -20 -1 -2 -10 hvcurveto
          -67 vlineto
          -82 -15 -49 -51 -70 vvcurveto
          -65 45 -38 65 -25 vhcurveto
          87 -31 rlineto
          41 -14 17 -20 -25 vvcurveto
          -33 -31 -15 -46 -61 -56 22 22 -41 vhcurveto
          -21 -14 -17 -36 -1 -26 rrcurveto
          endchar
        </CharString>
        <CharString name="dotaccent">
          587 89 68 callgsubr
          631 -92 callsubr
          endchar
        </CharString>
        <CharString name="dotaccent.cap">
          755 90 68 callgsubr
          800 -37 callgsubr
        </CharString>
        <CharString name="dotlessi">
          -249 418 79 hstemhm
          92 103 54 callgsubr
          195 -97 callsubr
          endchar
        </CharString>
        <CharString name="dotlessj">
          -242 30 callgsubr
          hstem
          99 102 vstem
          201 408 -81 callgsubr
          endchar
        </CharString>
        <CharString name="e">
          -20 -13 4 callgsubr
          hstem
          44 106 202 99 vstem
          -80 callsubr
          endchar
        </CharString>
        <CharString name="e.smcp">
          -9 -22 callgsubr
          hstem
          84 104 vstem
          -105 callgsubr
          endchar
        </CharString>
        <CharString name="eacute">
          -20 -13 4 callgsubr
          75 callgsubr
          44 106 30 217 -45 99 hintmask 11101010
          -80 callsubr
          hintmask 00010100
          -72 150 -99 callgsubr
        </CharString>
        <CharString name="eacute.smcp">
          23 callsubr
          10 217 -102 callgsubr
          hintmask 00010100
          -270 546 -99 callgsubr
        </CharString>
        <CharString name="ecaron">
          -20 56 0 101 207 endchar
        </CharString>
        <CharString name="ecaron.smcp">
          -9 -22 callgsubr
          56 50 callsubr
          84 104 -59 292 -102 callgsubr
          hintmask 00010100
          -289 693 -101 callsubr
        </CharString>
        <CharString name="ecircumflex">
          -20 56 0 101 195 endchar
        </CharString>
        <CharString name="ecircumflex.smcp">
          -9 -22 callgsubr
          47 182 hstemhm
          84 104 -61 291 -102 callgsubr
          hintmask 00010100
          -100 512 -91 callgsubr
        </CharString>
        <CharString name="edieresis">
          -20 -13 4 callgsubr
          66 79 hstemhm
          44 106 -44 60 callgsubr
          -44 99 hintmask 11101001
          -80 callsubr
          hintmask 00010110
          40 182 rmoveto
          -12 3 -15 5 -1 callsubr
          21 -5 9 callgsubr
          21 -16 callgsubr
          11 2 16 -39 callgsubr
          -2 16 -6 -95 callgsubr
          -5 -12 -3 -16 -12 vvcurveto
          -186 hmoveto
          -12 2 -15 6 37 callsubr
          10 22 -5 9 callgsubr
          20 5 7 11 hvcurveto
          5 11 3 16 -39 callgsubr
          -3 16 -5 -95 callgsubr
          -6 -12 -2 -16 -12 vvcurveto
          endchar
        </CharString>
        <CharString name="edieresis.smcp">
          -9 -22 callgsubr
          79 79 hstemhm
          84 104 -64 60 callgsubr
          -102 callgsubr
          hintmask 00010110
          -158 578 rmoveto
          -12 3 -15 5 -1 callsubr
          21 -5 9 callgsubr
          21 -16 callgsubr
          11 2 16 -39 callgsubr
          -2 16 -6 -95 callgsubr
          -5 -12 -3 -16 -12 vvcurveto
          -186 hmoveto
          -12 2 -15 6 37 callsubr
          10 22 -5 9 callgsubr
          20 5 7 11 hvcurveto
          5 11 3 16 -39 callgsubr
          -3 16 -5 -95 callgsubr
          -6 -12 -2 -16 -12 vvcurveto
          endchar
        </CharString>
        <CharString name="egrave">
          -20 59 0 101 193 endchar
        </CharString>
        <CharString name="egrave.smcp">
          23 callsubr
          -48 216 -102 callgsubr
          hintmask 00010100
          -256 705 -69 callgsubr
        </CharString>
        <CharString name="eight">
          10 -13 75 522 77 hstemhm
          44 106 -89 104 199 103 -89 107 hintmask 00000000
          hintmask 11100100
          44 163 rmoveto
          -112 87 -64 129 123 102 69 115 vhcurveto
          1 83 -47 57 -69 37 rrcurveto
          hintmask 11011000
          54 29 43 51 66 vvcurveto
          98 -83 69 -120 -114 -89 -72 -99 -71 39 -49 61 -33 vhcurveto
          hintmask 11100100
          -64 -34 -53 -62 -78 vvcurveto
          193 142 rmoveto
          17 -6 rlineto
          66 -20 58 -39 -68 vvcurveto
          -67 -50 -43 -64 -64 -50 39 70 51 28 51 57 32 vhcurveto
          hintmask 11011000
          -70 186 rmoveto
          56 44 37 55 56 44 -36 -58 -46 -26 -40 -45 -26 vhcurveto
          -12 5 rlineto
          -71 19 -45 33 56 vvcurveto
          endchar
        </CharString>
        <CharString name="eight.smcp">
          -38 -13 72 427 73 hstemhm
          41 102 -86 100 167 100 -88 36 callgsubr
          hintmask 11100100
          41 131 rmoveto
          -89 78 -55 117 113 92 55 106 66 -41 46 -59 33 vhcurveto
          hintmask 11011000
          47 23 36 42 59 vvcurveto
          83 -74 59 -109 -106 -78 -64 -87 -59 36 -40 56 -31 vhcurveto
          hintmask 11100100
          -57 -26 -51 -53 -68 vvcurveto
          191 113 rmoveto
          52 -18 52 -31 -54 vvcurveto
          -51 -38 -31 -59 -56 -40 29 51 41 27 40 58 25 vhcurveto
          hintmask 11011000
          -71 171 rmoveto
          39 34 31 50 51 32 -30 -42 -33 -20 -33 -39 -21 vhcurveto
          -10 4 rlineto
          -61 22 -37 21 42 vvcurveto
          endchar
        </CharString>
        <CharString name="emdash">
          279 223 84 hstem
          75 649 vstem
          719 223 rmoveto
          4 13 1 15 8 callsubr
          15 -4 14 vhcurveto
          -640 25 callsubr
        </CharString>
        <CharString name="endash">
          11 223 84 hstem
          61 409 vstem
          466 223 76 callgsubr
          15 8 callsubr
          15 36 callsubr
          -401 25 callsubr
        </CharString>
        <CharString name="eogonek">
          -20 -217 69 135 4 callgsubr
          hstem
          44 106 66 83 53 99 vstem
          -58 callsubr
          vhcurveto
          8 8 1 8 hhcurveto
          -35 -32 -23 -39 -39 vvcurveto
          -61 -1 callgsubr
          35 24 41 46 35 hvcurveto
          25 9 24 12 20 14 -69 callsubr
          endchar
        </CharString>
        <CharString name="eogonek.smcp">
          -9 -217 69 147 88 147 85 140 87 hstem
          84 104 66 83 vstem
          444 -132 rmoveto
          -8 -16 -21 -8 -22 hhcurveto
          -27 -21 15 30 38 33 44 59 24 hvcurveto
          1 0 1 1 hhcurveto
          19 7 12 15 4 23 rrcurveto
          2 12 0 17 9 vvcurveto
          -221 hlineto
          -25 -17 -1 -2 -18 hvcurveto
          1 vlineto
          13 1 14 -29 callgsubr
          13 1 18 -68 callgsubr
          15 16 -84 callsubr
          180 69 callsubr
          46 -34 62 41 41 15 20 24 vhcurveto
          -1 71 callsubr
          rrcurveto
          endchar
        </CharString>
        <CharString name="equal">
          10 154 89 104 89 hstem
          52 426 vstem
          474 154 rmoveto
          3 14 15 callsubr
          36 callsubr
          -418 hlineto
          -3 67 callsubr
          3 -14 vhcurveto
          418 193 rmoveto
          3 13 15 callsubr
          -3 15 vhcurveto
          -418 59 callgsubr
          -17 -14 19 callsubr
          -17 -4 callgsubr
          endchar
        </CharString>
        <CharString name="eth">
          -3 -13 78 345 77 hstem
          42 107 219 106 vstem
          111 572 rmoveto
          4 -20 18 -24 16 -11 99 69 rcurveline
          35 -36 27 -39 15 -41 rrcurveto
          10 -22 -25 7 -25 hhcurveto
          -58 -46 -19 -34 -36 hvcurveto
          -49 -49 -22 -62 -82 vvcurveto
          -76 18 -70 -37 callsubr
          72 78 vvcurveto
          159 -53 136 -98 98 vhcurveto
          73 50 -3 19 -19 24 -15 11 rlinecurve
          -87 -60 -34 26 -38 22 -42 18 rlinecurve
          -19 -11 -18 -30 -4 -25 27 -14 28 -17 25 -20 rrcurveto
          171 -386 rmoveto
          -92 -24 -88 -86 -86 -23 87 88 94 26 76 84 35 32 -12 -18 26 vhcurveto
          10 -35 6 -42 -58 vvcurveto
          endchar
        </CharString>
        <CharString name="eth.smcp">
          71 -3 80 154 84 153 81 hstem
          91 103 246 108 vstem
          548 272 rmoveto
          93 -15 84 -81 59 vhcurveto
          29 -40 -73 12 -48 hhcurveto
          -75 -43 -1 -2 -77 hvcurveto
          -5 -5 rlineto
          -226 -65 vlineto
          -3 -14 -1 -12 57 callgsubr
          -13 vhcurveto
          65 -226 hlineto
          5 -5 rlineto
          -2 77 43 -1 75 hhcurveto
          48 73 11 28 40 hvcurveto
          82 60 14 28 callsubr
          -106 -129 vhcurveto
          -36 -27 -1 -33 hhcurveto
          155 126 vlineto
          10 callgsubr
          12 33 callsubr
          11 36 callsubr
          -126 154 hlineto
          -1 33 27 0 36 hhcurveto
          129 21 -106 -90 hvcurveto
          endchar
        </CharString>
        <CharString name="exclam">
          -232 4 106 573 7 hstemhm
          96 98 hintmask 00000000
          hintmask 11100000
          102 194 rmoveto
          -4 12 17 -1 12 hhcurveto
          12 14 1 4 13 hvcurveto
          25 489 -7 7 rlineto
          -44 -42 -12 -18 -24 hvcurveto
          52 -550 rmoveto
          -21 -22 -5 -8 -13 hvcurveto
          -6 -9 -3 -24 -14 vvcurveto
          -14 3 -23 6 66 callsubr
          20 24 5 8 13 hvcurveto
          5 9 4 23 14 vvcurveto
          14 -4 24 -5 9 vhcurveto
          8 -13 -24 5 -20 hhcurveto
          endchar
        </CharString>
        <CharString name="exclamdown">
          -232 -197 8 573 106 hstemhm
          93 98 hintmask 00000000
          hintmask 11100000
          186 299 rmoveto
          4 -13 -16 1 -12 hhcurveto
          -12 -14 -1 -4 -13 hvcurveto
          -25 -488 7 -8 rlineto
          44 42 12 18 24 hvcurveto
          -52 551 rmoveto
          21 22 4 8 13 hvcurveto
          6 9 3 24 5 callgsubr
          23 -6 10 vhcurveto
          7 -13 -22 5 -21 hhcurveto
          -20 -24 -5 -7 -13 hvcurveto
          -5 -10 -4 -23 -14 vvcurveto
          -14 4 -24 5 -9 vhcurveto
          -8 13 24 -4 20 hhcurveto
          endchar
        </CharString>
        <CharString name="f">
          -187 419 76 hstem
          101 101 vstem
          101 hmoveto
          -3 15 19 -1 16 72 callgsubr
          16 hvcurveto
          420 vlineto
          134 -2 rlineto
          10 callgsubr
          13 13 vvcurveto
          13 -1 12 -3 13 vhcurveto
          -141 -2 rlineto
          -4 29 -3 29 26 vvcurveto
          54 28 30 46 28 32 -7 -8 26 vhcurveto
          15 16 9 30 24 vvcurveto
          12 -31 -52 11 -45 hhcurveto
          -98 -56 -67 -89 -28 3 -30 3 -31 hvcurveto
          -81 1 rlineto
          -3 -13 -1 -12 -13 19 callsubr
          -13 -4 callgsubr
          86 2 rlineto
          endchar
        </CharString>
        <CharString name="f.smcp">
          -52 228 84 146 88 hstem
          84 105 vstem
          444 546 rmoveto
          -355 hlineto
          -13 callgsubr
          20 -1 9 callgsubr
          65 callgsubr
          17 hvcurveto
          228 35 vlineto
          171 hlineto
          4 13 1 18 68 callsubr
          -171 hlineto
          -11 -12 -1 -12 hhcurveto
          68 vlineto
          26 -1 26 27 vvcurveto
          82 hlineto
          125 hlineto
          42 13 17 31 10 -2 18 -4 12 hvcurveto
          endchar
        </CharString>
        <CharString name="five">
          10 -13 85 276 83 128 89 hstem
          86 103 176 108 vstem
          439 648 rmoveto
          -339 hlineto
          -7 -7 -14 -301 9 -15 22 -17 19 -3 rlinecurve
          28 34 40 15 39 hhcurveto
          58 65 -30 -101 -100 -61 -45 -67 -54 -43 20 28 -40 hvcurveto
          -21 -15 -19 -33 -4 -21 rrcurveto
          -37 43 66 -27 79 hhcurveto
          114 115 74 162 129 -81 79 -122 -32 -29 -7 -11 -27 hvcurveto
          3 26 4 70 rlineto
          50 38 vlineto
          173 hlineto
          30 16 16 30 11 -2 17 -5 15 hvcurveto
          endchar
        </CharString>
        <CharString name="five.smcp">
          -38 -13 83 213 77 100 86 hstem
          80 100 145 105 vstem
          51 42 rmoveto
          -33 41 61 -22 70 hhcurveto
          106 101 65 132 106 -76 70 -102 -28 -27 -5 -9 -24 hvcurveto
          3 33 4 62 rlineto
          19 29 vlineto
          153 hlineto
          31 16 15 29 10 -1 15 -6 17 hvcurveto
          -309 9 callsubr
          -14 -259 12 -16 20 -15 18 -4 rlinecurve
          22 33 32 15 37 hhcurveto
          48 52 -31 -73 -73 -50 -36 -59 -48 -38 14 25 -36 hvcurveto
          -21 -15 -18 -33 -4 -19 rrcurveto
          endchar
        </CharString>
        <CharString name="four">
          10 137 88 hstem
          292 101 vstem
          292 hmoveto
          -3 16 17 73 callsubr
          -5 callsubr
          17 hvcurveto
          85 vlineto
          17 -1 20 17 vvcurveto
          16 13 49 callgsubr
          49 hlineto
          5 16 2 19 13 vvcurveto
          12 -1 14 -2 14 vhcurveto
          -53 hlineto
          -17 -13 -1 -16 hhcurveto
          16 1 20 17 vvcurveto
          132 vlineto
          -5 5 rlineto
          -28 hlineto
          -42 -26 -30 -50 hvcurveto
          -78 vlineto
          -7 0 -14 1 -11 vhcurveto
          -37 hlineto
          -21 -55 -2 -3 -38 hvcurveto
          -3 4 22 36 30 67 18 42 rlinecurve
          115 266 -19 17 -49 9 -29 -7 rlinecurve
          -169 -391 rlineto
          -10 -25 -10 -22 -16 vvcurveto
          -19 11 -23 13 -21 vhcurveto
          177 hlineto
          17 21 2 16 hhcurveto
          -17 -1 -20 -17 vvcurveto
          endchar
        </CharString>
        <CharString name="four.smcp">
          -38 109 85 357 -20 hstem
          266 96 vstem
          266 hmoveto
          -3 16 16 49 callgsubr
          16 14 1 3 17 hvcurveto
          60 vlineto
          16 -1 18 17 vvcurveto
          11 15 -1 11 hhcurveto
          43 hlineto
          6 17 2 15 17 vvcurveto
          12 0 11 -3 13 vhcurveto
          -46 hlineto
          -10 -18 -1 -11 hhcurveto
          16 1 28 17 vvcurveto
          94 vlineto
          -4 4 rlineto
          -26 hlineto
          -39 -27 -30 -46 hvcurveto
          -53 vlineto
          -6 0 -14 1 -10 vhcurveto
          -24 hlineto
          -18 -52 -2 -3 -35 hvcurveto
          -2 3 22 38 27 54 17 35 rlinecurve
          102 211 -21 17 -43 10 -31 -6 rlinecurve
          -155 -327 rlineto
          -8 -18 -9 -20 -15 vvcurveto
          -18 10 -23 13 -21 vhcurveto
          154 hlineto
          17 19 2 17 hhcurveto
          -17 -1 -18 -16 vvcurveto
          endchar
        </CharString>
        <CharString name="foursuperior">
          -100 417 75 hstem
          223 85 vstem
          223 340 -90 callsubr
        </CharString>
        <CharString name="fraction">
          -295 0 -20 hstem
          -126 478 vstem
          -126 hmoveto
          -36 callgsubr
          endchar
        </CharString>
        <CharString name="g">
          8 -220 80 131 63 callgsubr
          202 100 hintmask 00000000
          hintmask 11101100
          44 246 rmoveto
          -152 58 -103 116 53 47 24 30 33 vhcurveto
          -46 vlineto
          -77 -21 -62 -102 -39 -55 11 20 -42 vhcurveto
          -15 -18 -11 -34 -1 -26 rrcurveto
          -18 46 66 -15 61 hhcurveto
          76 58 26 40 32 hvcurveto
          31 39 16 57 115 vvcurveto
          296 vlineto
          hintmask 11011100
          39 7 36 21 20 vhcurveto
          -4 18 -18 25 -16 10 -33 -7 -22 -16 -14 -23 rrcurveto
          hintmask 11101100
          29 53 callgsubr
          hvcurveto
          307 123 rmoveto
          -233 vlineto
          -36 -30 -41 -23 -41 hhcurveto
          -49 -41 49 119 122 44 57 58 33 36 -17 -28 31 hvcurveto
          endchar
        </CharString>
        <CharString name="g.smcp">
          44 -13 82 139 88 175 88 -55 -20 hstemhm
          42 108 259 100 hintmask 00000000
          hintmask 11101100
          296 294 rmoveto
          -4 -11 -2 -17 -13 vvcurveto
          -31 17 -14 31 vhcurveto
          74 hlineto
          -3 -26 0 -23 0 vvcurveto
          -78 vlineto
          -7 -27 -34 -5 -38 hhcurveto
          -107 -53 68 132 145 67 57 87 57 52 -16 -29 45 hvcurveto
          hintmask 11011100
          21 14 21 34 5 30 rrcurveto
          hintmask 11101100
          33 -52 -77 22 -73 hhcurveto
          -134 -127 -81 -208 -150 64 -133 185 80 87 17 17 51 hvcurveto
          214 vlineto
          40 -18 21 -61 -46 -43 0 -2 -45 vhcurveto
          endchar
        </CharString>
        <CharString name="germandbls">
          -82 callsubr
        </CharString>
        <CharString name="germandbls.cap">
          -82 callsubr
        </CharString>
        <CharString name="germandbls.cap_smcp">
          50 -11 78 196 81 138 77 hstem
          92 105 237 109 vstem
          92 hmoveto
          -3 15 20 49 callgsubr
          18 18 1 3 17 hvcurveto
          381 vlineto
          66 33 35 67 66 33 -44 -51 vhcurveto
          -6 -1 -5 -5 vvcurveto
          -49 -19 -34 -39 -44 vvcurveto
          -32 19 -26 37 -28 vhcurveto
          34 -27 rlineto
          23 -17 9 -15 -16 vvcurveto
          -24 -23 -17 -37 -24 -26 6 11 -23 vhcurveto
          -17 -16 -13 -35 -1 -22 rrcurveto
          -15 34 43 -7 39 hhcurveto
          92 65 46 70 35 -16 33 -44 36 hvcurveto
          -31 24 rlineto
          -20 16 -9 11 15 vvcurveto
          26 27 22 42 10 vhcurveto
          6 20 2 21 18 vvcurveto
          99 -82 68 -120 -120 -86 -53 -113 vhcurveto
          -49 vlineto
          -77 1 rlineto
          -3 -12 -2 -16 5 callsubr
          -17 44 callgsubr
          77 1 rlineto
          endchar
        </CharString>
        <CharString name="germandbls.smcp">
          470 48 callgsubr
          hstemhm
          43 54 callsubr
          74 54 callsubr
          hintmask 11110000
          -96 callsubr
          hintmask 11001100
          495 hmoveto
          -102 callsubr
          endchar
        </CharString>
        <CharString name="grave">
          538 201 hstem
          64 216 vstem
          136 739 -69 callgsubr
        </CharString>
        <CharString name="grave.cap">
          728 174 hstem
          64 249 vstem
          110 902 -57 callgsubr
        </CharString>
        <CharString name="greater">
          10 50 488 hstem
          370 112 vstem
          476 252 rmoveto
          9 26 -2 32 -7 25 -369 203 rcurveline
          -23 -15 -22 -33 -3 -34 237 -125 rcurveline
          19 -10 39 -17 16 -7 rrcurveto
          -7 vlineto
          -16 -7 -39 -17 -19 -10 -237 -124 rcurveline
          3 -35 20 -32 25 -15 rrcurveto
          endchar
        </CharString>
        <CharString name="guillemotleft">
          38 37 435 hstemhm
          33 262 -35 262 hintmask 10100000
          517 418 -45 callgsubr
          hintmask 11000000
          -88 161 -45 callgsubr
          endchar
        </CharString>
        <CharString name="guillemotright">
          38 37 435 hstemhm
          36 262 -35 262 hintmask 11000000
          42 92 -46 callsubr
          hintmask 10100000
          89 -161 -46 callsubr
          endchar
        </CharString>
        <CharString name="guilsinglleft">
          -188 37 435 hstem
          33 262 vstem
          290 418 -45 callgsubr
          endchar
        </CharString>
        <CharString name="guilsinglright">
          -188 37 435 hstem
          36 262 vstem
          42 92 -46 callsubr
          endchar
        </CharString>
        <CharString name="h">
          24 409 93 hstem
          78 101 188 103 vstem
          470 338 rmoveto
          92 -39 72 -94 -59 -57 -28 -38 -42 vhcurveto
          233 vlineto
          -16 callsubr
          -729 -31 callgsubr
          endchar
        </CharString>
        <CharString name="h.smcp">
          95 240 87 219 -20 hstem
          84 105 237 105 vstem
          426 hmoveto
          -3 16 20 0 callsubr
          546 0 callgsubr
          -22 1 -16 -20 callgsubr
          -161 vlineto
          -22 1 -16 -21 vvcurveto
          -10 -31 1 -9 hhcurveto
          52 callsubr
          16 22 vvcurveto
          161 0 callgsubr
          -54 callsubr
          -546 vlineto
          -54 callgsubr
          16 hvcurveto
          181 vlineto
          23 -1 15 22 27 callgsubr
          -22 -1 -15 -23 vvcurveto
          endchar
        </CharString>
        <CharString name="hbar">
          27 409 93 67 69 hstem
          81 101 188 103 vstem
          182 669 rmoveto
          -16 callsubr
          -91 vlineto
          -70 1 rlineto
          -3 -13 -2 -9 -13 37 callgsubr
          -10 -4 callgsubr
          70 1 rlineto
          -569 -31 callgsubr
          232 vlineto
          92 -39 72 -94 -59 -57 -28 -38 -42 vhcurveto
          134 vlineto
          160 -2 rlineto
          10 callgsubr
          10 13 vvcurveto
          13 -1 9 -3 13 vhcurveto
          -160 -2 rlineto
          endchar
        </CharString>
        <CharString name="hbar.smcp">
          103 238 87 70 151 hstem
          88 105 237 105 vstem
          193 hmoveto
          180 vlineto
          23 -1 15 21 27 callgsubr
          -21 -1 -15 -23 vvcurveto
          -180 77 callgsubr
          20 0 callsubr
          395 62 vlineto
          3 12 1 12 8 callsubr
          9 -3 12 vhcurveto
          -62 79 hlineto
          3 -16 -22 1 -16 -20 callgsubr
          -79 -237 79 0 callgsubr
          -54 callsubr
          -79 -62 vlineto
          -3 -12 -1 -11 -13 vvcurveto
          -12 1 -12 44 callgsubr
          62 -395 hlineto
          -54 callgsubr
          16 hvcurveto
          188 325 rmoveto
          52 callsubr
          17 22 vvcurveto
          11 237 -11 vlineto
          -22 1 -17 -21 vvcurveto
          -10 -31 1 -9 hhcurveto
          endchar
        </CharString>
        <CharString name="hyphen">
          -34 callgsubr
        </CharString>
        <CharString name="i">
          -249 -74 0 245 199 endchar
        </CharString>
        <CharString name="i.smcp">
          16 callsubr
          hstem
          87 106 vstem
          87 hmoveto
          -54 callgsubr
          17 hvcurveto
          546 50 callgsubr
          -54 callsubr
          endchar
        </CharString>
        <CharString name="iacute">
          31 callsubr
          41 6 callgsubr
          46 217 -174 103 -89 callgsubr
          hintmask 01100000
          -146 580 -99 callgsubr
        </CharString>
        <CharString name="iacute.smcp">
          16 callsubr
          64 6 callgsubr
          65 217 -195 106 hintmask 10010000
          87 hmoveto
          -54 callgsubr
          17 hvcurveto
          546 50 callgsubr
          -54 callsubr
          hintmask 01100000
          -22 86 -99 callgsubr
        </CharString>
        <CharString name="icircumflex">
          31 callsubr
          44 182 hstemhm
          -25 291 -177 103 -89 callgsubr
          hintmask 01100000
          24 546 -91 callgsubr
        </CharString>
        <CharString name="icircumflex.smcp">
          16 callsubr
          67 182 hstemhm
          -6 291 -198 106 hintmask 10010000
          87 hmoveto
          -54 callgsubr
          17 hvcurveto
          546 50 callgsubr
          -54 callsubr
          hintmask 01100000
          148 52 -91 callgsubr
        </CharString>
        <CharString name="idieresis">
          31 callsubr
          76 79 hstemhm
          -28 104 13 103 -34 104 -89 callgsubr
          hintmask 01101000
          -34 612 rmoveto
          -12 3 -15 5 -1 callsubr
          21 -5 9 callgsubr
          21 -16 callgsubr
          11 2 16 -39 callgsubr
          -2 16 -6 -95 callgsubr
          -5 -12 -3 -16 -12 vvcurveto
          -186 hmoveto
          -12 2 -15 6 37 callsubr
          10 22 -5 9 callgsubr
          20 5 7 11 hvcurveto
          5 11 3 16 -39 callgsubr
          -3 16 -5 -95 callgsubr
          -6 -12 -2 -16 -12 vvcurveto
          endchar
        </CharString>
        <CharString name="idieresis.smcp">
          16 callsubr
          99 79 hstemhm
          -9 104 -8 106 -16 104 hintmask 10010000
          87 hmoveto
          -54 callgsubr
          17 hvcurveto
          546 50 callgsubr
          -54 callsubr
          hintmask 01101000
          90 118 rmoveto
          -12 3 -15 5 -1 callsubr
          21 -5 9 callgsubr
          21 -16 callgsubr
          11 2 16 -39 callgsubr
          -2 16 -6 -95 callgsubr
          -5 -12 -3 -16 -12 vvcurveto
          -186 hmoveto
          -12 2 -15 6 37 callsubr
          10 22 -5 9 callgsubr
          20 5 7 11 hvcurveto
          5 11 3 16 -39 callgsubr
          -3 16 -5 -95 callgsubr
          -6 -12 -2 -16 -12 vvcurveto
          endchar
        </CharString>
        <CharString name="igrave">
          31 callsubr
          41 6 callgsubr
          -11 216 -116 103 -89 callgsubr
          hintmask 01100000
          -131 739 -69 callgsubr
        </CharString>
        <CharString name="igrave.smcp">
          16 callsubr
          64 6 callgsubr
          8 216 -137 106 hintmask 10010000
          87 hmoveto
          -54 callgsubr
          17 hvcurveto
          546 50 callgsubr
          -54 callsubr
          hintmask 01100000
          -7 245 -69 callgsubr
        </CharString>
        <CharString name="ij">
          26 30 callgsubr
          90 89 hstemhm
          61 119 -88 103 139 119 -86 102 hintmask 00000000
          hintmask 01001000
          195 -97 callsubr
          hintmask 00110000
          -134 631 -92 callsubr
          hintmask 11000010
          408 -223 -81 callgsubr
          hintmask 00100100
          -135 613 -92 callsubr
          endchar
        </CharString>
        <CharString name="ij.smcp">
          159 73 callgsubr
          hstemhm
          87 106 310 105 hintmask 01100000
          87 hmoveto
          -54 callgsubr
          17 hvcurveto
          546 50 callgsubr
          -54 callsubr
          hintmask 11010000
          232 -444 rmoveto
          -19 -19 -13 -30 -4 -26 rrcurveto
          -21 32 55 -18 55 hhcurveto
          130 53 69 137 hvcurveto
          352 0 callgsubr
          -20 1 -16 7 callsubr
          -16 hvcurveto
          -354 vlineto
          -80 -24 -39 -64 -31 -39 13 16 -26 vhcurveto
          endchar
        </CharString>
        <CharString name="itilde">
          31 callsubr
          59 85 hstemhm
          -56 354 -209 103 -89 callgsubr
          hintmask 00000000
          -60 571 -81 callsubr
        </CharString>
        <CharString name="itilde.smcp">
          16 callsubr
          82 85 hstemhm
          -37 354 -230 106 hintmask 10010000
          87 hmoveto
          -54 callgsubr
          17 hvcurveto
          546 50 callgsubr
          -54 callsubr
          hintmask 00000000
          64 77 -81 callsubr
        </CharString>
        <CharString name="j">
          -242 30 callgsubr
          90 89 hstemhm
          67 119 -87 102 hintmask 11001000
          201 408 -81 callgsubr
          hintmask 00110000
          -134 613 -92 callsubr
          endchar
        </CharString>
        <CharString name="j.smcp">
          -121 73 callgsubr
          hstem
          223 105 vstem
          39 102 rmoveto
          -19 -19 -13 -30 -4 -26 rrcurveto
          -21 32 55 -18 55 hhcurveto
          130 53 69 137 hvcurveto
          352 0 callgsubr
          -20 1 -16 7 callsubr
          -16 hvcurveto
          -354 vlineto
          -80 -24 -39 -64 -31 -39 13 16 -26 vhcurveto
          endchar
        </CharString>
        <CharString name="jcircumflex">
          -246 30 callgsubr
          44 182 hstemhm
          -20 291 -176 102 hintmask 11001000
          197 408 -81 callgsubr
          hintmask 00110000
          24 528 -91 callgsubr
        </CharString>
        <CharString name="jcircumflex.smcp">
          -121 73 callgsubr
          67 182 hstemhm
          129 291 -197 105 hintmask 11001000
          39 102 rmoveto
          -19 -19 -13 -30 -4 -26 rrcurveto
          -21 32 55 -18 55 hhcurveto
          130 53 69 137 hvcurveto
          352 0 callgsubr
          -20 1 -16 7 callsubr
          -16 hvcurveto
          -354 vlineto
          -80 -24 -39 -64 -31 -39 13 16 -26 vhcurveto
          hintmask 00110000
          331 496 -91 callgsubr
        </CharString>
        <CharString name="k">
          -18 215 86 187 9 hstem
          78 101 vstem
          -71 callgsubr
          endchar
        </CharString>
        <CharString name="k.smcp">
          27 238 87 213 11 -3 -20 hstemhm
          84 36 callgsubr
          hintmask 11010000
          -73 callsubr
          hintmask 10110000
          -41 callsubr
          endchar
        </CharString>
        <CharString name="kcommaaccent">
          -18 -28 callsubr
          268 86 187 9 hstemhm
          78 101 56 98 hintmask 00011100
          -71 callgsubr
          hintmask 11100010
          -114 -161 -94 callgsubr
        </CharString>
        <CharString name="kcommaaccent.smcp">
          20 -28 callsubr
          291 87 213 11 -3 -20 hstemhm
          84 105 58 98 hintmask 00000000
          hintmask 00011010
          -73 callsubr
          hintmask 00010110
          -41 callsubr
          hintmask 11100001
          -192 -86 -94 callgsubr
        </CharString>
        <CharString name="kgreenlandic">
          -18 215 86 187 9 hstem
          78 101 vstem
          -61 callgsubr
          133 vlineto
          -16 callsubr
          -492 -62 callsubr
          endchar
        </CharString>
        <CharString name="kgreenlandic.smcp">
          27 238 87 213 11 hstem
          84 105 vstem
          -73 callsubr
          160 vlineto
          18 callsubr
          -44 -18 callgsubr
          75 callsubr
          14 20 -1 18 hhcurveto
          19 20 1 3 14 -14 callsubr
          endchar
        </CharString>
        <CharString name="l">
          -226 -4 81 hstem
          76 102 vstem
          -33 callgsubr
          endchar
        </CharString>
        <CharString name="l.smcp">
          -54 -1 89 461 -20 hstem
          83 106 vstem
          -34 callsubr
          endchar
        </CharString>
        <CharString name="ldot">
          -170 -4 81 230 93 hstemhm
          76 102 63 112 hintmask 10100000
          -33 callgsubr
          hintmask 01010000
          -13 277 -62 callgsubr
        </CharString>
        <CharString name="ldot.smcp">
          -50 -1 89 176 93 192 -20 hstemhm
          83 106 113 112 hintmask 10110000
          -34 callsubr
          hintmask 01001000
          -140 223 -62 callgsubr
        </CharString>
        <CharString name="less">
          10 49 487 hstem
          48 112 vstem
          54 334 rmoveto
          -9 -25 2 -33 7 -25 369 -202 rcurveline
          23 15 22 33 3 34 -237 125 rcurveline
          -74 34 rlineto
          6 vlineto
          74 34 237 125 -3 34 -20 32 -25 15 rlinecurve
          endchar
        </CharString>
        <CharString name="logicalnot">
          10 255 89 hstem
          378 95 vstem
          51 344 rmoveto
          -3 -15 -1 -16 -14 19 callsubr
          -18 -4 callgsubr
          280 hlineto
          14 18 1 16 hhcurveto
          -15 -1 -18 -14 vvcurveto
          -94 vlineto
          -3 17 14 73 callsubr
          16 -35 callsubr
          222 vlineto
          -6 7 rlineto
          endchar
        </CharString>
        <CharString name="lslash">
          -189 -4 81 hstem
          106 100 vstem
          246 77 rmoveto
          -27 -13 15 30 hvcurveto
          236 vlineto
          88 46 6 26 -1 30 -6 22 rlinecurve
          -8 4 -79 -42 rlineto
          225 45 callsubr
          -337 vlineto
          -79 -41 -6 -26 1 -30 6 -22 rlinecurve
          8 -4 70 36 rlineto
          -206 vlineto
          -69 33 10 callsubr
          0 8 7 vvcurveto
          19 -3 19 -5 14 vhcurveto
          endchar
        </CharString>
        <CharString name="lslash.smcp">
          -42 -1 89 461 -20 hstem
          95 105 vstem
          200 483 rmoveto
          47 -16 19 -43 vhcurveto
          -41 hlineto
          -5 -5 rlineto
          -240 vlineto
          -67 -19 -5 -26 0 -32 7 -20 rlinecurve
          7 -4 58 18 rlineto
          -159 vlineto
          -40 24 -23 37 vhcurveto
          227 hlineto
          38 23 17 33 6 hvcurveto
          3 13 0 14 12 vvcurveto
          -169 hlineto
          -25 -29 -2 -2 -30 hvcurveto
          166 vlineto
          158 49 6 25 0 33 -7 19 rlinecurve
          -8 3 -149 -47 rlineto
          endchar
        </CharString>
        <CharString name="m">
          277 409 94 hstem
          78 103 168 103 168 104 vstem
          349 313 rmoveto
          -313 -64 callsubr
          347 vlineto
          1 vlineto
          37 33 41 24 34 hhcurveto
          40 20 -25 -70 hvcurveto
          -255 vlineto
          -43 15 -23 40 25 25 40 callsubr
          -13 24 -3 32 35 vvcurveto
          240 vlineto
          87 -41 70 -88 -57 -56 -32 -42 -46 vhcurveto
          44 -19 -38 30 -57 hhcurveto
          -51 -50 -28 -40 -41 hvcurveto
          40 -2 -16 23 -39 hhcurveto
          -39 hlineto
          -6 -7 rlineto
          -491 vlineto
          -3 15 18 -59 callgsubr
          348 vlineto
          36 32 42 25 34 hhcurveto
          40 20 -26 -70 hvcurveto
          endchar
        </CharString>
        <CharString name="m.smcp">
          213 1 -20 101 93 263 108 hstem
          67 599 vstem
          67 1 rmoveto
          -3 14 21 -3 19 hhcurveto
          16 18 2 2 15 hvcurveto
          21 268 rlineto
          4 48 2 78 45 vvcurveto
          5 hlineto
          111 -356 rlineto
          -25 callgsubr
          15 23 1 3 15 hvcurveto
          112 356 rlineto
          5 hlineto
          -45 1 -78 4 -48 vhcurveto
          22 -268 rlineto
          -2 15 18 -2 15 hhcurveto
          19 21 3 3 15 hvcurveto
          -53 545 rlineto
          4 -18 -32 2 -19 hhcurveto
          -19 -30 -2 -4 -18 hvcurveto
          -77 -253 -8 -26 -18 -63 -4 -29 rlinecurve
          -5 hlineto
          -5 29 -19 63 -8 26 -77 253 rcurveline
          4 -18 -30 2 -19 hhcurveto
          -19 -30 -2 -4 -20 hvcurveto
          endchar
        </CharString>
        <CharString name="macron">
          575 83 hstemhm
          59 281 54 callgsubr
          340 575 rmoveto
          3 14 1 11 33 callsubr
          10 36 callsubr
          -281 hlineto
          -4 -14 -1 -12 -16 vvcurveto
          -16 1 -11 4 -14 vhcurveto
          endchar
        </CharString>
        <CharString name="mu">
          34 -218 20 188 90 414 -20 hstem
          78 102 191 103 vstem
          474 494 rmoveto
          2 -15 -19 2 -18 hhcurveto
          -19 -18 -2 -2 -14 hvcurveto
          -354 vlineto
          -37 -27 -35 -23 -41 hhcurveto
          -53 -35 37 63 hvcurveto
          314 vlineto
          2 -15 -18 2 -19 hhcurveto
          -18 -18 -2 -2 -14 hvcurveto
          -601 vlineto
          -28 -3 -38 -14 -25 vhcurveto
          -13 17 22 -7 25 hhcurveto
          41 8 26 43 hvcurveto
          167 vlineto
          -18 22 28 -10 32 hhcurveto
          55 43 28 40 29 hvcurveto
          13 -33 26 -25 41 -7 -18 callsubr
          endchar
        </CharString>
        <CharString name="multiply">
          10 100 387 hstem
          72 386 vstem
          235 200 rmoveto
          29 30 31 -30 98 -99 14 5 14 10 11 11 rlinecurve
          11 11 8 12 7 15 -99 99 rcurveline
          -9 9 -13 11 -10 9 10 10 13 11 9 10 99 98 rcurveline
          -7 15 -9 13 -11 11 -11 11 -13 9 -14 6 -98 -100 rcurveline
          -9 -9 -11 -12 -11 -10 -10 10 -10 12 -9 10 -99 99 rcurveline
          -14 -6 -13 -9 -11 -11 -12 -12 -8 -13 -6 -14 99 -98 rcurveline
          30 -31 -10 -10 -11 -10 -9 -10 rlinecurve
          -99 -98 6 -15 10 -13 10 -10 rlinecurve
          11 -10 12 -10 15 -7 rrcurveto
          endchar
        </CharString>
        <CharString name="n">
          56 callgsubr
          hstemhm
          78 103 188 103 hintmask 00000000
          hintmask 10110000
          -6 callgsubr
          hintmask 01110000
          -72 callgsubr
          endchar
        </CharString>
        <CharString name="n.smcp">
          15 callgsubr
          hstem
          84 99 254 100 vstem
          532 550 rmoveto
          -37 hlineto
          -42 -16 -15 -46 hvcurveto
          -176 vlineto
          -44 6 -97 4 -54 vhcurveto
          -5 -1 -15 30 -28 59 -17 29 rlinecurve
          -177 311 rlineto
          3 -17 -30 1 -14 hhcurveto
          -12 -31 -2 -4 -17 hvcurveto
          75 callsubr
          17 21 -1 12 hhcurveto
          14 -5 callsubr
          18 hvcurveto
          230 vlineto
          37 -3 94 -3 60 vhcurveto
          3 1 16 -30 25 -53 18 -29 rlinecurve
          176 -310 rlineto
          -3 16 32 -1 14 hhcurveto
          13 30 2 3 17 hvcurveto
          543 vlineto
          endchar
        </CharString>
        <CharString name="nacute">
          26 80 0 110 194 endchar
        </CharString>
        <CharString name="nacute.smcp">
          15 callgsubr
          60 6 callgsubr
          84 99 54 217 -17 -87 callsubr
          hintmask 00101000
          -300 88 -99 callgsubr
        </CharString>
        <CharString name="nbspace">
          -300 0 0 32 32 endchar
        </CharString>
        <CharString name="ncaron">
          56 callgsubr
          72 50 callsubr
          78 103 -47 292 -57 -53 callgsubr
          hintmask 00101000
          -288 621 -101 callsubr
        </CharString>
        <CharString name="ncaron.smcp">
          15 callgsubr
          72 50 callsubr
          84 99 -15 292 -23 -87 callsubr
          hintmask 00101000
          -319 235 -101 callsubr
        </CharString>
        <CharString name="nine">
          10 -13 83 145 87 279 80 hstem
          45 106 220 109 vstem
          258 661 rmoveto
          -124 -89 -92 -137 -148 73 -69 109 56 51 23 33 37 hvcurveto
          -114 -4 -44 -87 -107 hhcurveto
          -43 -33 11 11 -25 hvcurveto
          -22 -15 -13 -32 -2 -26 rrcurveto
          -20 35 52 -12 57 hhcurveto
          169 89 130 204 198 -52 55 -18 23 hvcurveto
          22 -19 -45 42 -88 hhcurveto
          -5 -359 rmoveto
          -59 -43 34 103 85 36 57 70 33 24 -16 -21 17 hvcurveto
          31 -40 9 -75 -55 vvcurveto
          -17 vlineto
          -34 -34 -44 -21 -40 hhcurveto
          endchar
        </CharString>
        <CharString name="nine.smcp">
          -38 -13 80 124 80 211 77 hstem
          49 102 185 105 vstem
          241 559 rmoveto
          -112 -80 -76 -116 -111 57 -65 104 49 43 16 26 34 hvcurveto
          -98 -3 -34 -68 -96 hhcurveto
          -37 -32 8 8 -22 hvcurveto
          -19 -16 -13 -25 -4 -28 rrcurveto
          -17 32 53 -10 47 hhcurveto
          152 81 106 172 94 -13 94 -54 56 hvcurveto
          31 -31 -43 19 -59 hhcurveto
          -4 -288 rmoveto
          -50 -36 30 76 65 32 40 57 29 20 -13 -15 14 hvcurveto
          25 -32 8 -55 -45 vvcurveto
          -12 vlineto
          -23 -30 -36 -16 -33 hhcurveto
          endchar
        </CharString>
        <CharString name="ntilde">
          56 callgsubr
          78 85 hstemhm
          78 103 -80 354 -86 -53 callgsubr
          hintmask 00000000
          -183 465 -91 callsubr
        </CharString>
        <CharString name="ntilde.smcp">
          15 callgsubr
          78 85 hstemhm
          84 99 -48 354 -52 -87 callsubr
          hintmask 00000000
          -214 79 -91 callsubr
        </CharString>
        <CharString name="numbersign">
          125 5 8 142 85 172 86 141 7 hstem
          23 602 vstem
          428 498 rmoveto
          -126 46 callgsubr
          -32 -141 rlineto
          -132 hlineto
          -8 -24 0 -39 8 -23 rrcurveto
          113 hlineto
          -39 -172 rlineto
          -121 hlineto
          -9 -23 0 -39 9 -23 rrcurveto
          102 25 callgsubr
          125 25 callgsubr
          126 hlineto
          9 23 0 39 -9 23 rrcurveto
          -107 hlineto
          38 172 rlineto
          117 hlineto
          8 23 0 39 -8 24 rrcurveto
          -98 46 callgsubr
          -177 -227 rmoveto
          126 hlineto
          -39 -172 rlineto
          -125 hlineto
          endchar
        </CharString>
        <CharString name="o">
          58 callgsubr
          hstem
          44 107 219 106 vstem
          -79 callsubr
          endchar
        </CharString>
        <CharString name="o.smcp">
          4 callsubr
          hstem
          40 109 291 110 vstem
          -103 callsubr
          endchar
        </CharString>
        <CharString name="oacute">
          58 callgsubr
          75 callgsubr
          44 107 33 217 -31 106 hintmask 11010100
          -79 callsubr
          hintmask 00101000
          33 333 -99 callgsubr
        </CharString>
        <CharString name="oacute.smcp">
          4 callsubr
          40 callgsubr
          70 217 4 -93 callgsubr
          hintmask 00101000
          179 360 -99 callgsubr
        </CharString>
        <CharString name="ocircumflex">
          0 61 0 111 195 endchar
        </CharString>
        <CharString name="ocircumflex.smcp">
          4 callsubr
          34 182 12 callsubr
          -1 291 1 -93 callgsubr
          hintmask 00101000
          349 326 -91 callgsubr
        </CharString>
        <CharString name="odieresis">
          0 61 0 111 200 endchar
        </CharString>
        <CharString name="odieresis.smcp">
          4 callsubr
          66 79 12 callsubr
          -4 60 callgsubr
          5 110 hintmask 11010010
          -103 callsubr
          hintmask 00101100
          291 392 rmoveto
          -12 3 -15 5 -1 callsubr
          21 -5 9 callgsubr
          21 -16 callgsubr
          11 2 16 -39 callgsubr
          -2 16 -6 -95 callgsubr
          -5 -12 -3 -16 -12 vvcurveto
          -186 hmoveto
          -12 2 -15 6 37 callsubr
          10 22 -5 9 callgsubr
          20 5 7 11 hvcurveto
          5 11 3 16 -39 callgsubr
          -3 16 -5 -95 callgsubr
          -6 -12 -2 -16 -12 vvcurveto
          endchar
        </CharString>
        <CharString name="oe">
          309 -13 79 -79 4 callgsubr
          hstemhm
          44 107 219 112 199 100 hintmask 00000000
          hintmask 10111110
          774 -24 callsubr
          -68 95 -130 -75 -52 -33 -53 -32 vhcurveto
          52 -32 -52 34 -80 -17 callsubr
          -82 18 -71 53 -52 vhcurveto
          -37 37 49 -18 59 hhcurveto
          79 52 32 49 31 hvcurveto
          hintmask 01111110
          -49 29 49 -32 81 hhcurveto
          69 70 22 35 48 hvcurveto
          -4 20 -12 29 18 callgsubr
          -46 -16 -50 hhcurveto
          -85 -26 60 83 -4 hvcurveto
          hintmask 10111110
          -331 33 rmoveto
          -33 callsubr
          432 183 rmoveto
          72 26 -58 -71 hvcurveto
          -12 -199 vlineto
          89 5 33 52 63 hhcurveto
          endchar
        </CharString>
        <CharString name="oe.smcp">
          289 -22 callgsubr
          hstem
          40 111 231 102 vstem
          766 86 rmoveto
          -222 hlineto
          -26 -17 -1 -1 -18 hvcurveto
          15 1 24 15 vvcurveto
          96 vlineto
          -1 21 23 1 13 hhcurveto
          159 hlineto
          4 13 1 18 -27 callsubr
          -159 hlineto
          -13 -23 -1 -21 hhcurveto
          87 vlineto
          15 -1 25 15 vvcurveto
          -1 22 22 0 14 hhcurveto
          204 -52 callgsubr
          -335 hlineto
          6 -37 -41 7 -40 hhcurveto
          -75 -47 -20 -29 -38 hvcurveto
          -72 -56 -25 -95 -85 vvcurveto
          -87 25 -96 72 -55 vhcurveto
          -29 38 47 -20 75 hhcurveto
          40 41 6 6 36 hvcurveto
          285 -48 callsubr
          -469 -17 rmoveto
          -122 -24 113 91 91 24 113 122 27 30 -6 -7 28 hvcurveto
          -382 vlineto
          -8 -27 -30 -5 -28 hhcurveto
          endchar
        </CharString>
        <CharString name="ograve">
          0 63 0 111 193 endchar
        </CharString>
        <CharString name="ograve.smcp">
          4 callsubr
          40 callgsubr
          13 216 62 -93 callgsubr
          hintmask 00101000
          194 519 -69 callgsubr
        </CharString>
        <CharString name="one">
          10 0 87 561 -20 hstem
          242 102 vstem
          59 456 rmoveto
          5 -26 17 -24 22 -12 50 22 56 39 38 47 rrcurveto
          -2 -42 -3 -54 -25 vvcurveto
          -228 vlineto
          -24 1 -20 -23 vvcurveto
          -14 -30 1 -13 hhcurveto
          -92 34 callsubr
          -15 -15 vvcurveto
          -14 1 -14 3 -15 vhcurveto
          377 hlineto
          3 14 1 15 14 vvcurveto
          15 -1 15 36 callsubr
          -69 hlineto
          -13 -31 -1 -15 hhcurveto
          23 1 20 24 vvcurveto
          495 vlineto
          4 -18 -16 64 callsubr
          -14 -18 -1 -4 -17 hvcurveto
          -27 -61 -63 -71 -97 -60 rrcurveto
          endchar
        </CharString>
        <CharString name="one.smcp">
          -38 0 84 462 -20 hstem
          214 102 vstem
          54 388 rmoveto
          4 -25 16 -25 22 -11 47 19 44 28 32 36 rrcurveto
          -2 -25 -3 -26 -18 vvcurveto
          -201 vlineto
          -20 1 -18 -20 vvcurveto
          -14 -28 2 -11 hhcurveto
          -78 hlineto
          -3 -13 -2 -16 -13 vvcurveto
          -14 2 -14 3 -14 vhcurveto
          343 hlineto
          10 callgsubr
          15 14 vvcurveto
          13 -1 16 -3 13 vhcurveto
          -56 hlineto
          -12 -32 -2 -11 hhcurveto
          464 50 callgsubr
          -16 0 -15 hhcurveto
          -14 -19 0 -20 callsubr
          -26 -55 -51 -53 -88 -50 rrcurveto
          endchar
        </CharString>
        <CharString name="onehalf">
          426 0 -20 20 80 178 76 22 79 hstemhm
          164 86 5 478 59 94 hintmask 10000100
          255 hmoveto
          -36 callgsubr
          hintmask 00101000
          -596 -137 -79 callgsubr
          hintmask 01010010
          862 -466 -59 callsubr
        </CharString>
        <CharString name="onequarter">
          426 0 -20 100 75 103 76 hstemhm
          164 86 20 478 9 85 hintmask 00110000
          35 546 -79 callgsubr
          hintmask 10001000
          235 -546 rmoveto
          -36 callgsubr
          hintmask 01000100
          111 -680 -90 callsubr
        </CharString>
        <CharString name="onesuperior">
          -100 340 76 hstem
          188 86 vstem
          59 628 -79 callgsubr
          endchar
        </CharString>
        <CharString name="ordfeminine">
          -96 292 68 116 61 88 71 -36 -20 hstemhm
          40 87 139 88 hintmask 00000000
          hintmask 11010100
          379 342 rmoveto
          -21 15 -4 23 30 vvcurveto
          154 vlineto
          hintmask 11101100
          90 -53 42 -79 -55 -66 -17 -19 -45 vhcurveto
          -25 12 -24 13 -14 vhcurveto
          17 44 39 11 43 hhcurveto
          34 25 -19 -45 hvcurveto
          -28 vlineto
          2 -26 -26 2 -22 hhcurveto
          -88 -64 -39 -90 -58 40 -58 79 49 40 24 27 29 hvcurveto
          12 -25 22 -17 31 -5 rrcurveto
          hintmask 11010100
          17 9 17 21 3 16 rrcurveto
          hintmask 11011100
          -200 18 rmoveto
          -32 -20 25 29 38 26 24 43 21 26 -2 -2 23 hvcurveto
          -69 vlineto
          -28 -28 -33 -15 -26 hhcurveto
          endchar
        </CharString>
        <CharString name="ordmasculine">
          -107 292 70 265 69 hstem
          36 89 162 90 vstem
          377 495 rmoveto
          61 -16 56 -40 43 vhcurveto
          27 -29 -40 14 -46 hhcurveto
          -46 -39 -14 -27 -29 hvcurveto
          -40 -43 -16 -56 -61 vvcurveto
          -63 16 -57 40 -42 vhcurveto
          -27 29 39 -14 46 hhcurveto
          46 40 14 27 29 hvcurveto
          40 42 16 57 63 vvcurveto
          -252 hmoveto
          70 21 62 61 60 20 -62 -70 -72 -20 -61 -60 -61 -21 61 72 vhcurveto
          endchar
        </CharString>
        <CharString name="oslash">
          2 -13 76 368 76 43 -20 hstem
          45 98 235 99 vstem
          477 247 rmoveto
          78 -18 73 -52 53 vhcurveto
          38 66 -13 17 -26 13 -20 3 rlinecurve
          -35 -61 rlineto
          12 -27 -30 6 -34 hhcurveto
          -58 -49 -18 -37 -38 hvcurveto
          -53 -53 -17 -73 -79 vvcurveto
          -77 16 -74 51 -52 vhcurveto
          -38 -67 12 -16 26 -14 21 -3 rlinecurve
          36 61 rlineto
          -12 27 30 -6 34 hhcurveto
          60 49 18 37 37 hvcurveto
          53 52 18 75 78 vvcurveto
          -99 hmoveto
          -91 -25 -93 -92 -21 -17 4 9 -15 vhcurveto
          151 287 rlineto
          14 -33 5 -42 -41 vvcurveto
          -235 hmoveto
          92 26 92 92 20 16 -5 -7 14 vhcurveto
          -150 -285 rlineto
          -13 32 -5 41 40 vvcurveto
          endchar
        </CharString>
        <CharString name="oslash.smcp">
          70 -13 76 -59 -20 499 76 hstemhm
          40 105 300 36 callgsubr
          hintmask 01111000
          40 272 rmoveto
          -71 18 -77 46 -56 vhcurveto
          -46 -64 rlineto
          hintmask 10111000
          11 -18 27 -19 21 -6 43 59 rcurveline
          -20 34 41 -13 59 hhcurveto
          74 46 19 29 38 hvcurveto
          71 55 27 96 86 vvcurveto
          72 -19 79 -47 56 vhcurveto
          45 64 -12 19 -26 17 -21 7 rlinecurve
          -42 -59 rlineto
          20 -34 -41 12 -59 hhcurveto
          -72 -46 -19 -29 -38 hvcurveto
          hintmask 01111000
          -9 callgsubr
          405 hmoveto
          hintmask 10111000
          -93 -27 -116 -123 -36 -28 10 16 -21 vhcurveto
          214 306 rlineto
          hintmask 01111000
          16 -38 5 -45 -40 vvcurveto
          -300 hmoveto
          94 27 117 123 35 27 -10 -16 21 vhcurveto
          -214 -304 rlineto
          -14 37 -5 43 39 vvcurveto
          endchar
        </CharString>
        <CharString name="otilde">
          58 callgsubr
          49 85 hstemhm
          44 107 -68 354 -67 106 hintmask 11010100
          -79 callsubr
          hintmask 00000000
          120 324 -91 callsubr
        </CharString>
        <CharString name="otilde.smcp">
          4 callsubr
          49 85 12 callsubr
          -32 354 -31 -93 callgsubr
          hintmask 00000000
          265 351 -91 callsubr
        </CharString>
        <CharString name="p">
          10 39 callsubr
          83 346 87 -9 -20 hstemhm
          78 102 201 36 callgsubr
          hintmask 01110110
          486 253 rmoveto
          150 -58 104 -114 -56 -47 -25 -35 -34 vhcurveto
          hintmask 01101110
          32 -7 -20 19 -34 hhcurveto
          -32 -18 callgsubr
          -701 vlineto
          6 -6 rlineto
          hintmask 10110110
          40 hlineto
          43 13 20 46 hvcurveto
          173 vlineto
          -19 34 38 -14 42 hhcurveto
          hintmask 01110110
          96 96 83 179 hvcurveto
          -196 167 rmoveto
          48 43 -48 -119 -122 -45 -57 -56 -35 -35 16 20 -30 hvcurveto
          245 63 callsubr
        </CharString>
        <CharString name="p.smcp">
          -10 190 81 197 81 70 callsubr
          483 369 rmoveto
          124 -88 56 -121 -63 -62 -2 -1 -60 vhcurveto
          -5 -5 rlineto
          -541 vlineto
          -54 callgsubr
          16 hvcurveto
          190 85 vlineto
          122 87 59 120 hvcurveto
          -294 100 rmoveto
          -1 29 27 0 24 hhcurveto
          86 19 -54 -44 -44 -19 -55 -86 -16 -34 0 -1 -30 hvcurveto
          endchar
        </CharString>
        <CharString name="paragraph">
          151 -156 82 666 91 hstem
          287 105 65 106 vstem
          287 60 rmoveto
          -56 -7 -29 -14 -18 vhcurveto
          -23 -18 -25 -8 -32 hhcurveto
          -31 -38 11 10 -27 hvcurveto
          -15 -19 -10 -37 -23 vvcurveto
          -11 28 54 -13 48 hhcurveto
          58 55 17 38 34 hvcurveto
          39 43 6 59 77 vvcurveto
          600 vlineto
          -6 6 rlineto
          2 -44 -29 2 -41 hhcurveto
          -133 -97 -68 -149 -146 96 -74 130 hvcurveto
          19 hlineto
          170 -384 rmoveto
          -3 16 22 -1 15 hhcurveto
          17 65 callgsubr
          17 hvcurveto
          726 vlineto
          -1 13 13 0 15 hhcurveto
          39 hlineto
          7 20 0 50 -7 21 rrcurveto
          -180 -18 callgsubr
          endchar
        </CharString>
        <CharString name="parenleft">
          -188 -180 1009 hstem
          62 112 vstem
          174 325 rmoveto
          155 43 164 99 129 vhcurveto
          -13 30 -24 18 -25 8 rrcurveto
          -124 -122 -68 -207 -175 vvcurveto
          -176 68 -207 124 -122 vhcurveto
          25 8 24 18 13 30 rrcurveto
          -99 129 -43 164 156 vvcurveto
          endchar
        </CharString>
        <CharString name="parenright">
          -188 -180 1009 hstem
          158 111 vstem
          158 325 rmoveto
          -156 -44 -164 -98 -129 vhcurveto
          13 -30 24 -18 25 -8 rrcurveto
          124 122 67 207 176 vvcurveto
          175 -67 207 -124 122 vhcurveto
          -25 -8 -24 -18 -13 -30 rrcurveto
          98 -129 44 -164 -155 vvcurveto
          endchar
        </CharString>
        <CharString name="percent">
          387 -12 68 -56 -20 305 69 -25 69 229 68 hstemhm
          48 89 137 89 181 89 138 88 hintmask 0000000000000000
          hintmask 0110111110000000
          859 193 rmoveto
          hintmask 1001111110000000
          61 -9 62 -40 40 vhcurveto
          29 -28 -36 13 -45 hhcurveto
          -43 -37 -13 -29 -28 hvcurveto
          -40 -40 -9 -62 -61 vvcurveto
          -62 10 -61 39 -41 vhcurveto
          -29 29 36 -12 43 hhcurveto
          45 36 12 29 28 hvcurveto
          hintmask 0110111110000000
          40 41 9 61 62 vvcurveto
          hintmask 1001111110000000
          -226 hmoveto
          72 12 64 57 57 12 -64 -72 -72 -12 -65 -57 -57 -12 65 72 vhcurveto
          -270 298 rmoveto
          61 -9 61 -40 41 vhcurveto
          29 -28 -36 12 -45 hhcurveto
          -44 -36 -12 -29 -28 hvcurveto
          -40 -41 -9 -61 -61 vvcurveto
          hintmask 0110111110000000
          -63 9 -61 40 -40 vhcurveto
          -29 28 36 -13 44 hhcurveto
          45 36 13 29 28 hvcurveto
          hintmask 1001111110000000
          40 40 9 61 63 vvcurveto
          hintmask 0110111110000000
          -226 hmoveto
          71 12 65 57 56 12 -65 -71 -72 -12 -65 -56 -57 -12 65 72 vhcurveto
          77 -491 rmoveto
          19 -7 57 -1 26 8 376 683 rcurveline
          -18 7 -57 1 -26 -8 rrcurveto
          endchar
        </CharString>
        <CharString name="period">
          -257 5 99 hstem
          61 132 vstem
          61 55 rmoveto
          -78 callsubr
          endchar
        </CharString>
        <CharString name="periodcentered">
          -215 234 99 hstem
          86 124 vstem
          86 284 rmoveto
          -12 3 -26 -19 callgsubr
          13 24 -5 21 hhcurveto
          19 27 5 8 11 -36 callsubr
          -12 -26 6 -19 hhcurveto
          -21 -24 -6 -8 -13 hvcurveto
          -6 -11 -3 -26 -12 vvcurveto
          endchar
        </CharString>
        <CharString name="plus">
          10 249 89 hstem
          218 94 vstem
          218 386 rmoveto
          -15 1 -18 -16 vvcurveto
          -16 -18 64 callsubr
          -114 34 callsubr
          -13 -17 vvcurveto
          -17 1 -15 -4 callgsubr
          114 hlineto
          15 18 1 16 hhcurveto
          -16 -1 -18 -14 vvcurveto
          -124 vlineto
          -3 15 15 -1 18 hhcurveto
          16 16 -35 callsubr
          124 vlineto
          14 -1 18 16 vvcurveto
          15 18 -1 16 hhcurveto
          114 hlineto
          10 callgsubr
          15 33 callsubr
          12 -3 15 vhcurveto
          -114 hlineto
          -16 -18 -1 -15 hhcurveto
          16 1 18 15 vvcurveto
          123 35 callsubr
          endchar
        </CharString>
        <CharString name="plusminus">
          10 0 86 217 84 hstem
          218 94 vstem
          218 436 rmoveto
          -15 1 -20 -15 vvcurveto
          -15 -18 1 -14 hhcurveto
          -105 59 callgsubr
          -10 57 callgsubr
          -14 vhcurveto
          105 hlineto
          14 18 1 15 hhcurveto
          -16 -1 -18 -15 vvcurveto
          -103 vlineto
          -3 15 15 73 callsubr
          16 -35 callsubr
          103 vlineto
          15 -1 18 16 vvcurveto
          14 18 -1 15 hhcurveto
          105 hlineto
          3 14 1 12 16 vvcurveto
          17 -1 10 -3 15 vhcurveto
          -105 hlineto
          -15 -18 -1 -14 hhcurveto
          15 1 20 15 vvcurveto
          102 35 callsubr
          245 -538 rmoveto
          3 15 1 12 16 vvcurveto
          17 -1 10 -3 16 vhcurveto
          -396 hlineto
          -3 -16 -1 -10 57 callgsubr
          -15 vhcurveto
          endchar
        </CharString>
        <CharString name="q">
          9 39 callsubr
          63 callgsubr
          201 101 hintmask 00000000
          hintmask 10101110
          350 -149 rmoveto
          -46 12 -20 44 vhcurveto
          39 hlineto
          6 6 rlineto
          562 vlineto
          39 6 36 22 20 vhcurveto
          -5 18 -17 25 -17 10 rrcurveto
          hintmask 01110110
          -32 -7 -21 -16 -15 -22 rrcurveto
          28 53 callgsubr
          -152 58 -103 116 53 46 23 29 33 hvcurveto
          -111 34 rmoveto
          -48 -42 49 119 122 45 57 57 33 35 -17 -27 31 hvcurveto
          -11 vlineto
          -234 vlineto
          -35 -30 -40 -23 -41 hhcurveto
          endchar
        </CharString>
        <CharString name="q.smcp">
          71 -104 76 15 81 410 81 12 callsubr
          291 110 hintmask 00000000
          hintmask 01111000
          40 272 rmoveto
          -23 callgsubr
          48 -19 74 hhcurveto
          9 8 1 2 8 hvcurveto
          hintmask 11111000
          84 -65 rlineto
          -23 27 25 -6 21 hhcurveto
          38 36 25 51 2 hvcurveto
          -29 1 -35 4 -59 43 -7 4 rcurveline
          23 12 19 15 15 18 rrcurveto
          49 56 18 73 74 -66 callsubr
          hintmask 01111000
          -9 callgsubr
          109 hmoveto
          -77 callgsubr
          endchar
        </CharString>
        <CharString name="question">
          -124 3 106 495 92 hstemhm
          91 113 -100 86 87 110 hintmask 00000000
          hintmask 11101000
          11 645 rmoveto
          2 -28 18 -34 18 -15 rrcurveto
          20 40 45 16 45 hhcurveto
          62 36 -35 -54 -58 -48 -41 -71 -36 hvcurveto
          hintmask 11011000
          -48 -25 -9 -11 6 -149 rlineto
          -4 12 16 -2 13 hhcurveto
          13 13 2 4 12 hvcurveto
          8 102 63 34 rlineto
          73 41 57 61 92 vvcurveto
          103 -71 68 -114 -70 -67 -21 -30 -54 vhcurveto
          136 -536 rmoveto
          -21 -22 -5 -8 -13 hvcurveto
          -5 -9 -4 -24 -14 vvcurveto
          -14 4 -23 5 66 callsubr
          21 23 5 8 13 hvcurveto
          6 9 3 23 5 callgsubr
          24 -6 9 vhcurveto
          8 -13 -23 5 -21 hhcurveto
          endchar
        </CharString>
        <CharString name="questiondown">
          -124 -204 92 496 106 hstemhm
          11 111 73 113 -100 87 hintmask 00000000
          hintmask 11110000
          388 -153 rmoveto
          -2 28 -18 34 -18 16 rrcurveto
          -21 -40 -45 -16 -45 hhcurveto
          -62 -36 36 53 59 48 40 70 37 hvcurveto
          hintmask 11101000
          49 24 9 11 -6 149 rlineto
          5 -12 -16 1 -13 hhcurveto
          -13 -14 -1 -5 -12 hvcurveto
          -8 -101 -62 -35 rlineto
          -73 -41 -58 -60 -93 vvcurveto
          -103 72 -68 114 70 67 22 29 54 vhcurveto
          -137 537 rmoveto
          21 22 4 8 14 hvcurveto
          5 9 3 24 5 callgsubr
          23 -5 10 vhcurveto
          7 -14 -22 5 -21 hhcurveto
          -20 -23 -5 -7 -13 hvcurveto
          -6 -10 -3 -23 -14 vvcurveto
          -14 3 -24 6 -9 vhcurveto
          -8 13 23 -4 20 hhcurveto
          endchar
        </CharString>
        <CharString name="quotedbl">
          -130 61 callsubr
          46 117 64 117 hintmask 00000000
          hintmask 01010000
          227 703 rmoveto
          hintmask 10010000
          -55 callgsubr
          hintmask 00000000
          -181 hmoveto
          hintmask 01100000
          -55 callgsubr
          endchar
        </CharString>
        <CharString name="quotedblbase">
          -97 -9 110 hstemhm
          58 131 63 131 hintmask 11000000
          178 101 rmoveto
          -68 callsubr
          hintmask 10100000
          194 hmoveto
          -68 callsubr
          endchar
        </CharString>
        <CharString name="quotedblleft">
          -98 518 110 hstemhm
          41 132 62 132 hintmask 11000000
          53 518 rmoveto
          -67 callgsubr
          hintmask 10100000
          194 hmoveto
          -67 callgsubr
          endchar
        </CharString>
        <CharString name="quotedblright">
          -98 554 -20 105 111 hstemhm
          55 132 62 132 hintmask 11100000
          176 750 rmoveto
          -67 callsubr
          hintmask 11010000
          194 hmoveto
          -67 callsubr
          endchar
        </CharString>
        <CharString name="quoteleft">
          -292 518 110 hstem
          42 132 vstem
          54 518 rmoveto
          -67 callgsubr
          endchar
        </CharString>
        <CharString name="quoteright">
          -292 554 -20 105 111 hstem
          53 132 vstem
          174 750 rmoveto
          -67 callsubr
          endchar
        </CharString>
        <CharString name="quotesinglbase">
          -291 -9 110 hstem
          58 131 vstem
          178 101 rmoveto
          -68 callsubr
          endchar
        </CharString>
        <CharString name="quotesingle">
          -309 61 callsubr
          43 117 hintmask 00000000
          hintmask 01100000
          43 703 rmoveto
          hintmask 10100000
          -55 callgsubr
          endchar
        </CharString>
        <CharString name="r">
          -152 402 99 hstem
          87 103 vstem
          -49 callgsubr
          endchar
        </CharString>
        <CharString name="r.smcp">
          39 callgsubr
          hstem
          84 105 195 108 vstem
          -100 callgsubr
          endchar
        </CharString>
        <CharString name="racute">
          -152 3 0 114 194 endchar
        </CharString>
        <CharString name="racute.smcp">
          39 callgsubr
          41 6 callgsubr
          84 105 6 217 -28 -71 callsubr
          6 337 -99 callgsubr
        </CharString>
        <CharString name="rcaron">
          -152 3 0 114 207 endchar
        </CharString>
        <CharString name="rcaron.smcp">
          39 callgsubr
          53 50 callsubr
          84 105 -62 292 -35 -71 callsubr
          -12 484 -101 callsubr
        </CharString>
        <CharString name="rcommaaccent">
          -152 -28 callsubr
          455 99 hstemhm
          87 103 -84 98 hintmask 00011000
          -49 callgsubr
          hintmask 11100100
          144 -504 -94 callgsubr
        </CharString>
        <CharString name="rcommaaccent.smcp">
          27 -28 callsubr
          267 83 172 80 hstemhm
          84 105 56 98 41 108 hintmask 00011101
          -100 callgsubr
          hintmask 11100010
          144 -353 -94 callgsubr
        </CharString>
        <CharString name="registered">
          73 219 63 169 48 65 47 70 62 hstem
          34 69 96 61 75 63 92 68 vstem
          34 481 rmoveto
          -147 115 -115 147 147 115 115 147 146 -115 116 -147 -147 -115 -116 -146 vhcurveto
          69 hmoveto
          110 83 90 110 111 83 -90 -110 -110 -83 -89 -111 -110 -83 89 110 vhcurveto
          295 55 rmoveto
          44 -30 31 -66 -30 -38 -1 -1 -32 vhcurveto
          -3 -3 rlineto
          -247 vlineto
          17 -5 27 0 17 5 rrcurveto
          92 22 vlineto
          16 8 -8 -12 6 hvcurveto
          25 -46 rlineto
          -20 9 10 -11 18 hhcurveto
          18 16 10 13 8 hvcurveto
          -9 6 -7 11 -6 11 -13 26 rcurveline
          -8 15 -8 17 -17 7 rrcurveto
          25 8 25 21 37 vvcurveto
          -138 28 rmoveto
          38 hlineto
          26 11 -15 -17 -18 -12 -15 -28 -8 -14 0 -1 -13 hvcurveto
          endchar
        </CharString>
        <CharString name="ring">
          539 45 callgsubr
          652 -70 callsubr
        </CharString>
        <CharString name="ring.cap">
          667 45 callgsubr
          781 -25 callsubr
        </CharString>
        <CharString name="s">
          57 callsubr
          hstem
          49 104 142 107 vstem
          -83 callgsubr
          endchar
        </CharString>
        <CharString name="s.smcp">
          -25 48 callgsubr
          hstem
          43 54 callsubr
          vstem
          -96 callsubr
          endchar
        </CharString>
        <CharString name="sacute">
          57 callsubr
          75 callgsubr
          49 104 -8 217 -67 107 hintmask 11010100
          -83 callgsubr
          hintmask 00101000
          114 543 -99 callgsubr
        </CharString>
        <CharString name="sacute.smcp">
          -25 48 callgsubr
          75 callgsubr
          43 110 18 217 -36 -65 callgsubr
          143 587 -99 callgsubr
        </CharString>
        <CharString name="scaron">
          57 callsubr
          43 50 callsubr
          49 104 -77 292 -73 107 hintmask 11010100
          -83 callgsubr
          hintmask 00101000
          95 690 -101 callsubr
        </CharString>
        <CharString name="scaron.smcp">
          -25 48 callgsubr
          43 50 callsubr
          43 110 -51 292 -42 -65 callgsubr
          124 734 -101 callsubr
        </CharString>
        <CharString name="section">
          -35 -108 79 36 -20 630 79 -35 -20 hstemhm
          32 102 -65 104 141 104 -66 103 hintmask 00000000
          hintmask 11011001
          455 304 rmoveto
          90 -77 43 -84 34 vhcurveto
          hintmask 11100101
          -58 23 rlineto
          -40 16 -23 18 30 vvcurveto
          36 32 23 44 44 46 -16 -15 35 vhcurveto
          hintmask 11011001
          18 15 13 34 -1 26 rrcurveto
          hintmask 11100101
          19 -41 -62 16 -54 hhcurveto
          -101 -77 -60 -86 -54 28 -37 41 -27 hvcurveto
          hintmask 11011010
          -60 -33 -46 -52 -63 vvcurveto
          -89 76 -43 85 -34 vhcurveto
          58 -23 rlineto
          40 -16 23 -19 -30 vvcurveto
          -36 -31 -23 -49 -54 -48 20 16 -33 vhcurveto
          -17 -13 -17 -34 1 -26 rrcurveto
          -26 42 67 -16 57 hhcurveto
          109 77 60 86 53 -29 37 -40 28 hvcurveto
          hintmask 11011001
          60 33 46 51 64 vvcurveto
          -206 78 rmoveto
          55 -22 48 -25 -47 vvcurveto
          -43 -35 -32 -41 -21 vhcurveto
          -38 15 rlineto
          -57 22 -47 25 46 vvcurveto
          43 35 33 41 21 vhcurveto
          endchar
        </CharString>
        <CharString name="semicolon">
          -247 -161 278 217 99 hstemhm
          66 132 -123 132 hintmask 10010000
          196 -40 callgsubr
          hintmask 01100000
          -130 280 rmoveto
          -78 callsubr
          endchar
        </CharString>
        <CharString name="seven">
          10 558 90 hstem
          153 107 vstem
          69 648 rmoveto
          -6 -16 -3 -19 -18 vvcurveto
          -12 2 -14 3 -11 vhcurveto
          164 hlineto
          26 99 3 6 27 hvcurveto
          4 -4 -13 -14 -27 -31 -16 -25 rlinecurve
          -11 -16 -81 -117 -64 -144 -18 -175 rlinecurve
          -4 -41 rlineto
          -3 16 20 -2 18 hhcurveto
          20 20 2 3 14 hvcurveto
          3 36 19 188 58 127 95 140 rlinecurve
          34 49 rlineto
          11 15 5 15 13 vvcurveto
          18 -9 27 -10 20 vhcurveto
          endchar
        </CharString>
        <CharString name="seven.smcp">
          -38 458 88 hstemhm
          52 391 -306 105 54 callgsubr
          62 546 rmoveto
          -6 -16 -4 -17 -18 vvcurveto
          -14 2 -13 3 -10 vhcurveto
          148 hlineto
          27 85 2 5 26 hvcurveto
          3 -3 -10 -10 -15 -17 -9 -10 rlinecurve
          -13 -16 rlineto
          hintmask 10100000
          -93 -118 -55 -118 -13 -156 -1 -17 rcurveline
          -4 15 20 -1 19 hhcurveto
          20 18 1 4 13 hvcurveto
          1 18 9 155 52 102 81 110 rlinecurve
          42 59 rlineto
          11 14 5 11 13 vvcurveto
          16 -10 27 -11 21 vhcurveto
          endchar
        </CharString>
        <CharString name="six">
          10 -13 80 279 87 145 83 hstem
          50 109 220 106 vstem
          272 -13 rmoveto
          124 89 92 137 148 -73 69 -109 -56 -51 -23 -34 -37 hvcurveto
          114 4 44 88 107 hhcurveto
          43 33 -11 -11 25 hvcurveto
          22 15 13 32 2 26 rrcurveto
          20 -35 -52 12 -57 hhcurveto
          -169 -89 -130 -204 -198 52 -55 18 -23 hvcurveto
          -22 19 45 -42 88 hhcurveto
          5 359 rmoveto
          59 43 -34 -103 -85 -36 -57 -70 -33 -24 16 21 -17 hvcurveto
          -31 40 -9 75 55 vvcurveto
          16 vlineto
          35 33 44 21 41 hhcurveto
          endchar
        </CharString>
        <CharString name="six.smcp">
          -38 -13 77 210 81 124 80 hstem
          47 106 184 103 vstem
          248 -13 rmoveto
          112 80 76 115 111 -58 66 -104 -49 -42 -16 -25 -34 hvcurveto
          97 3 34 68 96 hhcurveto
          37 32 -9 -7 22 hvcurveto
          18 16 13 25 4 27 rrcurveto
          17 -32 -52 11 -47 hhcurveto
          -152 -82 -107 -171 -95 13 -93 55 -56 hvcurveto
          -31 30 43 -19 60 hhcurveto
          4 287 rmoveto
          50 35 -29 -76 -65 -32 -40 -57 -29 -20 12 16 -13 hvcurveto
          -26 31 -7 55 45 vvcurveto
          13 vlineto
          22 29 37 16 33 hhcurveto
          endchar
        </CharString>
        <CharString name="slash">
          -98 -111 872 hstem
          7 406 vstem
          7 -77 rmoveto
          26 -20 34 -12 30 -2 316 839 rcurveline
          -26 19 -35 12 -29 2 rrcurveto
          endchar
        </CharString>
        <CharString name="space">
          -300 endchar
        </CharString>
        <CharString name="sterling">
          9 -1 89 179 79 228 87 hstemhm
          76 104 -46 96 hintmask 00000000
          hintmask 11101000
          230 266 rmoveto
          2 vlineto
          -1 56 56 0 57 hhcurveto
          7 23 0 34 -7 22 rrcurveto
          hintmask 11110000
          -69 -61 -1 -54 hhcurveto
          -14 44 -21 42 46 vvcurveto
          62 45 35 58 42 54 -21 -34 41 vhcurveto
          27 9 24 32 3 27 rrcurveto
          34 -37 -71 40 -91 hhcurveto
          -137 -62 -96 -82 -51 23 -43 17 -44 hvcurveto
          hintmask 11101000
          -20 -20 1 -18 hhcurveto
          -7 -24 0 -33 7 -22 rrcurveto
          76 hlineto
          -53 -27 -46 -22 -32 vhcurveto
          -16 -25 rlineto
          -11 -15 -3 -14 -15 vvcurveto
          -11 1 -10 12 -47 vhcurveto
          353 29 callsubr
          14 0 11 13 vvcurveto
          -184 hlineto
          -64 -39 -3 -2 -37 hvcurveto
          -3 3 rlineto
          28 39 37 71 70 vvcurveto
          endchar
        </CharString>
        <CharString name="sterling.smcp">
          -50 -1 86 143 73 173 85 -63 -20 hstemhm
          69 101 -51 95 hintmask 00000000
          hintmask 11101000
          357 301 rmoveto
          -59 -54 -1 -47 hhcurveto
          -12 33 -15 33 32 vvcurveto
          48 36 28 46 39 46 -18 -25 34 vhcurveto
          hintmask 11011000
          26 10 21 29 6 26 rrcurveto
          hintmask 11101000
          31 -35 -63 32 -81 hhcurveto
          -116 -60 -78 -75 -39 16 -35 14 -32 hvcurveto
          hintmask 11100100
          -15 -15 64 callsubr
          -7 -21 0 -32 7 -20 rrcurveto
          65 hlineto
          -2 -38 -18 -32 -20 -32 -14 -21 rcurveline
          -9 -14 -4 -14 -14 vvcurveto
          -12 3 -14 10 -38 vhcurveto
          301 hlineto
          39 24 42 callsubr
          2 13 -1 10 12 vvcurveto
          -148 hlineto
          -61 -38 -2 -2 -29 hvcurveto
          -3 2 rlineto
          27 36 30 59 51 vvcurveto
          -1 47 47 0 49 hhcurveto
          7 21 0 32 -7 20 rrcurveto
          endchar
        </CharString>
        <CharString name="t">
          -170 -4 81 342 76 -3 -20 175 -20 hstemhm
          97 101 hintmask 00000000
          hintmask 11011000
          321 495 rmoveto
          hintmask 10111000
          14 callsubr
          hintmask 11011000
          -49 callsubr
          endchar
        </CharString>
        <CharString name="t.smcp">
          -82 459 87 hstem
          169 106 vstem
          -47 callsubr
          endchar
        </CharString>
        <CharString name="tcaron">
          -155 -4 81 342 76 -3 -20 84 9 82 -20 hstemhm
          97 101 62 107 hintmask 00000000
          hintmask 11001100
          321 495 rmoveto
          hintmask 10101100
          14 callsubr
          hintmask 11001100
          -49 callsubr
          hintmask 00010010
          -61 70 -21 callgsubr
        </CharString>
        <CharString name="tcaron.smcp">
          -82 459 87 56 50 callsubr
          78 292 -201 106 hintmask 10010000
          -47 callsubr
          hintmask 01100000
          -41 379 -101 callsubr
        </CharString>
        <CharString name="thorn">
          8 39 callsubr
          83 342 86 hstemhm
          78 100 201 36 callgsubr
          hintmask 01111100
          484 256 rmoveto
          144 -62 102 -110 -54 -47 -24 -32 -33 vhcurveto
          223 45 callsubr
          -938 vlineto
          6 -6 rlineto
          hintmask 10111100
          38 hlineto
          44 12 20 46 hvcurveto
          173 vlineto
          -20 35 39 -13 42 hhcurveto
          hintmask 01111100
          91 99 79 186 hvcurveto
          -196 160 rmoveto
          48 43 -46 -118 -122 -45 -56 -56 -34 -35 16 20 -31 hvcurveto
          241 63 callsubr
        </CharString>
        <CharString name="thorn.smcp">
          -6 103 81 197 165 70 callsubr
          84 hmoveto
          3 callsubr
          65 callgsubr
          17 hvcurveto
          103 85 vlineto
          123 86 60 120 122 -88 57 -121 hvcurveto
          -29 -28 -1 -28 hhcurveto
          85 50 callgsubr
          -19 1 -17 hhcurveto
          -15 32 callgsubr
          185 -165 rmoveto
          85 20 -53 -45 -45 -20 -54 -85 hvcurveto
          -15 -35 -1 -30 hhcurveto
          199 vlineto
          -1 30 32 0 18 hhcurveto
          endchar
        </CharString>
        <CharString name="three">
          10 -13 85 251 70 165 90 hstem
          367 108 vstem
          430 536 rmoveto
          15 17 6 14 15 vvcurveto
          22 -12 25 -10 19 vhcurveto
          -349 hlineto
          -7 -18 -2 -18 74 callgsubr
          -14 5 -15 vhcurveto
          141 hlineto
          35 57 4 6 24 hvcurveto
          3 -5 -17 -14 -36 -36 -15 -15 rlinecurve
          -125 -136 7 -23 16 -24 19 -9 rlinecurve
          11 20 26 6 22 hhcurveto
          69 44 -43 -73 -89 -58 -46 -75 -55 -46 21 29 -39 hvcurveto
          -21 -16 -19 -29 -6 -24 rrcurveto
          -38 45 69 -28 86 hhcurveto
          112 115 71 145 126 -85 61 -101 3 hvcurveto
          13 10 12 10 11 11 rrcurveto
          endchar
        </CharString>
        <CharString name="three.smcp">
          -38 -13 83 194 67 129 86 hstem
          324 107 vstem
          387 440 rmoveto
          14 12 6 14 15 vvcurveto
          18 -11 27 -10 20 vhcurveto
          -316 hlineto
          -7 -17 -2 -18 -14 vvcurveto
          -9 1 -12 5 -16 vhcurveto
          121 hlineto
          28 55 2 5 22 hvcurveto
          3 -4 -15 -11 -28 -24 -14 -13 rlinecurve
          -111 -108 5 -20 19 -27 19 -9 rlinecurve
          8 17 21 5 20 hhcurveto
          60 35 -37 -53 -67 -49 -37 -63 -45 -42 17 25 -36 hvcurveto
          -22 -15 -17 -31 -5 -23 rrcurveto
          -32 41 64 -24 74 hhcurveto
          103 104 63 121 99 -74 59 -86 2 hvcurveto
          12 9 13 10 11 11 rrcurveto
          endchar
        </CharString>
        <CharString name="threequarters">
          426 0 -20 100 75 98 72 139 56 91 74 hstemhm
          255 478 -475 91 403 85 hintmask 10000100
          255 hmoveto
          -36 callgsubr
          hintmask 00111010
          -316 -84 -65 callsubr
          hintmask 01000001
          495 -539 -90 callsubr
        </CharString>
        <CharString name="threesuperior">
          -100 334 72 139 56 91 74 hstem
          259 91 vstem
          316 680 -65 callsubr
          endchar
        </CharString>
        <CharString name="tilde">
          556 85 -34 86 hstemhm
          22 354 hintmask 00000000
          hintmask 10100000
          210 571 -81 callsubr
        </CharString>
        <CharString name="tilde.cap">
          741 85 -34 85 hstemhm
          18 362 hintmask 00000000
          hintmask 10100000
          210 756 -66 callgsubr
          hintmask 01100000
          -73 callgsubr
        </CharString>
        <CharString name="two">
          10 0 91 484 86 hstem
          352 107 vstem
          475 91 rmoveto
          -184 hlineto
          -32 -51 -3 -5 -49 hvcurveto
          7 28 40 44 51 44 77 66 rcurveline
          66 55 59 56 98 vvcurveto
          110 -75 77 -120 -102 -73 -68 -78 -28 vhcurveto
          14 -22 35 -12 26 -1 rrcurveto
          53 21 42 42 56 hhcurveto
          57 40 -39 -60 -55 -29 -39 -46 -41 hvcurveto
          -98 -86 rlineto
          -65 -56 -60 -70 -64 vvcurveto
          -22 26 -30 15 -13 vhcurveto
          311 hlineto
          40 21 42 callsubr
          1 13 1 14 13 vvcurveto
          endchar
        </CharString>
        <CharString name="two.smcp">
          -38 -1 89 384 87 hstem
          309 106 vstem
          431 88 rmoveto
          -155 hlineto
          -28 -46 -2 -6 -45 hvcurveto
          8 22 32 31 39 31 71 57 rcurveline
          56 45 52 53 75 vvcurveto
          93 -69 72 -109 -91 -65 -60 -68 -25 vhcurveto
          14 -20 31 -15 29 -1 rrcurveto
          41 19 35 36 47 hhcurveto
          46 32 -34 -43 -38 -23 -32 -38 -31 hvcurveto
          -88 -73 rlineto
          -59 -48 -52 -63 -49 vvcurveto
          -21 25 -29 15 -12 vhcurveto
          274 hlineto
          39 21 17 33 5 hvcurveto
          2 11 1 17 11 vvcurveto
          endchar
        </CharString>
        <CharString name="twosuperior">
          -100 338 80 276 79 hstem
          248 94 vstem
          353 418 -59 callsubr
        </CharString>
        <CharString name="u">
          29 callgsubr
          hstemhm
          74 103 187 104 hintmask 00000000
          hintmask 10111000
          -42 callgsubr
          hintmask 11011000
          -60 callgsubr
          endchar
        </CharString>
        <CharString name="u.smcp">
          -12 callgsubr
          hstemhm
          75 105 245 36 callgsubr
          hintmask 11011000
          19 callgsubr
          hintmask 10111000
          -94 callsubr
          endchar
        </CharString>
        <CharString name="uacute">
          29 callgsubr
          58 6 callgsubr
          74 103 15 217 -45 104 hintmask 00000000
          hintmask 10101010
          -42 callgsubr
          hintmask 11001010
          -60 callgsubr
          hintmask 00010100
          118 192 -99 callgsubr
        </CharString>
        <CharString name="uacute.smcp">
          27 callsubr
          45 217 -17 -76 callsubr
          -305 437 -99 callgsubr
        </CharString>
        <CharString name="ucircumflex">
          27 69 0 117 195 endchar
        </CharString>
        <CharString name="ucircumflex.smcp">
          -12 callgsubr
          63 182 hstemhm
          75 105 -26 291 -20 -76 callsubr
          -135 403 -91 callgsubr
        </CharString>
        <CharString name="udieresis">
          29 callgsubr
          93 79 hstemhm
          74 103 -58 60 callgsubr
          -45 104 hintmask 00000000
          hintmask 10101001
          -42 callgsubr
          hintmask 11001001
          -60 callgsubr
          hintmask 00010110
          231 224 rmoveto
          -12 3 -15 5 -1 callsubr
          21 -5 9 callgsubr
          21 -16 callgsubr
          11 2 16 -39 callgsubr
          -2 16 -6 -95 callgsubr
          -5 -12 -3 -16 -12 vvcurveto
          -186 hmoveto
          -12 2 -15 6 37 callsubr
          10 22 -5 9 callgsubr
          20 5 7 11 hvcurveto
          5 11 3 16 -39 callgsubr
          -3 16 -5 -95 callgsubr
          -6 -12 -2 -16 -12 vvcurveto
          endchar
        </CharString>
        <CharString name="udieresis.smcp">
          -12 callgsubr
          95 79 hstemhm
          75 105 -29 60 callgsubr
          -16 36 callgsubr
          hintmask 11001001
          19 callgsubr
          hintmask 10101001
          -94 callsubr
          hintmask 00010110
          -193 469 rmoveto
          -12 3 -15 5 -1 callsubr
          21 -5 9 callgsubr
          21 -16 callgsubr
          11 2 16 -39 callgsubr
          -2 16 -6 -95 callgsubr
          -5 -12 -3 -16 -12 vvcurveto
          -186 hmoveto
          -12 2 -15 6 37 callsubr
          10 22 -5 9 callgsubr
          20 5 7 11 hvcurveto
          5 11 3 16 -39 callgsubr
          -3 16 -5 -95 callgsubr
          -6 -12 -2 -16 -12 vvcurveto
          endchar
        </CharString>
        <CharString name="ugrave">
          27 71 0 117 193 endchar
        </CharString>
        <CharString name="ugrave.smcp">
          27 callsubr
          -13 216 42 -76 callsubr
          -291 596 -69 callgsubr
        </CharString>
        <CharString name="underscore">
          10 -155 81 hstem
          -5 539 vstem
          530 -155 rmoveto
          3 12 1 11 33 callsubr
          11 -3 13 vhcurveto
          -530 hlineto
          -4 -13 -1 -16 -12 19 callsubr
          -15 4 -12 vhcurveto
          endchar
        </CharString>
        <CharString name="uni00AD">
          -34 callgsubr
        </CharString>
        <CharString name="uring">
          27 69 0 117 202 endchar
        </CharString>
        <CharString name="uring.smcp">
          -12 callgsubr
          61 72 callsubr
          75 105 -1 71 100 71 4 105 hintmask 0000000000000000
          hintmask 1100010010000000
          19 callgsubr
          hintmask 1010010010000000
          -94 callsubr
          hintmask 0001101100000000
          -351 509 -70 callsubr
        </CharString>
        <CharString name="v">
          -65 -5 89 414 -20 23 -20 hstemhm
          6 442 hintmask 00000000
          hintmask 10110000
          236 84 rmoveto
          -6 -1 0 8 -2 hvcurveto
          -7 30 -16 65 -16 50 -67 220 rcurveline
          33 -8 -19 11 -29 hhcurveto
          -17 -20 -5 -10 -22 hvcurveto
          138 -434 rlineto
          -49 16 18 -8 41 hhcurveto
          25 27 1 4 23 hvcurveto
          hintmask 11010000
          37 110 71 222 46 154 -3 4 rcurveline
          6 -16 -18 2 -18 hhcurveto
          -12 -13 -1 -3 -14 hvcurveto
          endchar
        </CharString>
        <CharString name="v.smcp">
          -7 -5 91 451 13 2 -20 hstemhm
          14 489 hintmask 00000000
          hintmask 10110000
          267 86 rmoveto
          -4 -2 0 8 -2 hvcurveto
          -12 51 -16 58 -14 43 -83 256 rcurveline
          39 -12 -17 11 -29 hhcurveto
          -22 -21 -5 -8 -19 hvcurveto
          160 -496 rlineto
          -41 12 25 -7 35 hhcurveto
          26 32 1 3 22 hvcurveto
          hintmask 11010000
          177 538 -5 6 rlineto
          6 -17 -19 64 callsubr
          -13 -13 12 callgsubr
          endchar
        </CharString>
        <CharString name="w">
          203 -5 82 321 93 7 -20 23 -20 hstemhm
          22 681 hintmask 00000000
          hintmask 10011000
          126 52 rmoveto
          -48 12 23 -9 35 hhcurveto
          26 34 2 3 23 hvcurveto
          40 191 rlineto
          hintmask 11001000
          11 52 17 83 13 72 rrcurveto
          5 hlineto
          38 -208 29 -139 rlineto
          -49 9 23 -7 40 hhcurveto
          24 33 1 3 21 hvcurveto
          hintmask 10101000
          121 486 -3 5 rlineto
          6 -13 -22 2 -17 hhcurveto
          -15 -17 -1 -3 -12 hvcurveto
          -54 -243 -13 -59 -12 -57 -11 -58 rlinecurve
          -6 -1 1 7 -1 hvcurveto
          hintmask 11001000
          -82 406 rlineto
          4 -14 -32 64 callsubr
          -15 -31 -1 -4 -16 hvcurveto
          -84 -414 rlineto
          -5 -1 1 7 -2 hvcurveto
          -7 38 -12 66 -14 62 -45 208 rcurveline
          30 -6 -15 12 -27 hhcurveto
          -18 -19 -3 -11 -24 hvcurveto
          endchar
        </CharString>
        <CharString name="w.smcp">
          250 -6 90 357 97 11 -20 23 -20 hstemhm
          28 719 hintmask 00000000
          hintmask 10011000
          137 44 rmoveto
          -42 10 26 -7 32 hhcurveto
          28 37 1 4 24 hvcurveto
          53 244 rlineto
          hintmask 11001000
          12 58 15 79 11 60 rrcurveto
          6 hlineto
          10 -60 14 -82 10 -55 41 -201 rcurveline
          -41 8 25 -8 31 hhcurveto
          26 41 2 5 23 hvcurveto
          hintmask 10101000
          127 536 -6 5 rlineto
          5 -15 -17 2 -18 hhcurveto
          -15 -17 0 -4 -16 hvcurveto
          -65 -304 -9 -40 -12 -68 -8 -49 rlinecurve
          -5 -1 1 9 -2 hvcurveto
          hintmask 11001000
          -86 444 rlineto
          3 -18 -28 2 -20 hhcurveto
          -20 -27 -2 -3 -19 hvcurveto
          -94 -454 rlineto
          -5 -1 1 9 -2 hvcurveto
          -7 40 -12 68 -8 38 -52 255 rcurveline
          42 -8 -12 15 -34 hhcurveto
          -18 -25 -5 -7 -17 hvcurveto
          endchar
        </CharString>
        <CharString name="x">
          -60 478 20 4 -20 hstemhm
          15 432 hintmask 00000000
          hintmask 10100000
          331 494 rmoveto
          -95 -155 rlineto
          hintmask 01100000
          -85 132 rlineto
          20 -14 -13 11 -26 hhcurveto
          -22 -28 -9 -15 -20 hvcurveto
          144 -223 -157 -244 3 -8 rlineto
          -5 14 19 -3 20 hhcurveto
          15 65 callgsubr
          9 hvcurveto
          108 177 100 -153 rlineto
          -20 14 14 -11 26 hhcurveto
          23 28 11 13 20 hvcurveto
          -161 246 141 221 -3 8 rlineto
          hintmask 10100000
          4 -13 -18 3 -20 hhcurveto
          -15 -18 -2 -2 -9 hvcurveto
          endchar
        </CharString>
        <CharString name="x.smcp">
          -1 530 20 hstem
          11 498 vstem
          385 546 rmoveto
          -118 -176 -95 140 rlineto
          29 -20 -17 13 -29 hhcurveto
          -20 -25 -5 -17 -26 hvcurveto
          163 -242 -187 -278 51 callsubr
          -6 15 18 -3 21 hhcurveto
          15 19 2 3 12 hvcurveto
          137 208 118 -173 rlineto
          -29 20 19 -13 28 hhcurveto
          19 29 6 18 24 hvcurveto
          -188 274 165 245 -2 7 rlineto
          5 -15 -22 2 -17 hhcurveto
          -15 -18 -1 -3 -12 hvcurveto
          endchar
        </CharString>
        <CharString name="y">
          46 callsubr
          hstemhm
          5 451 hintmask 00000000
          hintmask 11001000
          69 callgsubr
          hintmask 10101000
          -10 callgsubr
          hintmask 10011000
          -42 callsubr
          endchar
        </CharString>
        <CharString name="y.smcp">
          -76 553 -20 hstem
          171 104 vstem
          -80 callgsubr
          endchar
        </CharString>
        <CharString name="yacute">
          -52 35 0 121 194 endchar
        </CharString>
        <CharString name="yacute.smcp">
          -76 553 -20 57 6 callgsubr
          150 217 -196 104 hintmask 10010000
          -80 callgsubr
          hintmask 01100000
          -191 87 -99 callgsubr
        </CharString>
        <CharString name="ydieresis">
          46 callsubr
          92 79 hstemhm
          5 451 -372 60 callgsubr
          hintmask 00000000
          hintmask 11000100
          69 callgsubr
          hintmask 10100100
          -10 callgsubr
          hintmask 10010100
          -42 callsubr
          hintmask 00001011
          -54 596 rmoveto
          -12 3 -15 5 -1 callsubr
          21 -5 9 callgsubr
          21 -16 callgsubr
          11 2 16 -39 callgsubr
          -2 16 -6 -95 callgsubr
          -5 -12 -3 -16 -12 vvcurveto
          -186 hmoveto
          -12 2 -15 6 37 callsubr
          10 22 -5 9 callgsubr
          20 5 7 11 hvcurveto
          5 11 3 16 -39 callgsubr
          -3 16 -5 -95 callgsubr
          -6 -12 -2 -16 -12 vvcurveto
          endchar
        </CharString>
        <CharString name="ydieresis.smcp">
          -76 553 -20 92 79 hstemhm
          76 104 -9 104 -13 104 hintmask 10010000
          -80 callgsubr
          hintmask 01101000
          -79 119 rmoveto
          -12 3 -15 5 -1 callsubr
          21 -5 9 callgsubr
          21 -16 callgsubr
          11 2 16 -39 callgsubr
          -2 16 -6 -95 callgsubr
          -5 -12 -3 -16 -12 vvcurveto
          -186 hmoveto
          -12 2 -15 6 37 callsubr
          10 22 -5 9 callgsubr
          20 5 7 11 hvcurveto
          5 11 3 16 -39 callgsubr
          -3 16 -5 -95 callgsubr
          -6 -12 -2 -16 -12 vvcurveto
          endchar
        </CharString>
        <CharString name="yen">
          -4 171 71 79 71 246 20 hstem
          206 102 vstem
          459 171 76 callgsubr
          5 33 callsubr
          5 36 callsubr
          -146 hlineto
          35 79 rlineto
          111 hlineto
          10 callgsubr
          5 33 callsubr
          5 36 callsubr
          -79 hlineto
          113 251 -4 6 rlineto
          5 -19 -15 2 -17 hhcurveto
          -14 -14 -2 43 callsubr
          -88 -210 -14 -30 -18 -52 -11 -35 rlinecurve
          -6 hlineto
          -10 32 -19 57 -12 27 -74 179 rcurveline
          26 -11 -13 14 -27 hhcurveto
          -21 -22 -6 -14 -25 hvcurveto
          110 -246 rlineto
          -79 hlineto
          -3 -14 -2 -6 -16 vvcurveto
          -16 2 -6 -4 callgsubr
          111 hlineto
          35 -79 rlineto
          -146 hlineto
          -3 -14 -2 -6 -16 vvcurveto
          -17 2 -5 -4 callgsubr
          151 -171 hlineto
          -3 15 20 -1 9 callgsubr
          -5 callsubr
          17 hvcurveto
          171 vlineto
          endchar
        </CharString>
        <CharString name="yen.smcp">
          -57 137 66 63 66 222 -20 hstem
          181 99 vstem
          416 137 76 callgsubr
          6 8 callsubr
          7 -3 13 vhcurveto
          -131 hlineto
          30 63 rlineto
          101 hlineto
          10 callgsubr
          6 8 callsubr
          6 36 callsubr
          -70 hlineto
          98 208 -4 6 rlineto
          5 -19 -12 -11 callsubr
          -14 -17 -2 43 callsubr
          -77 -176 -13 -28 -11 -30 -10 -34 rlinecurve
          -4 hlineto
          -9 29 -12 36 -12 28 -64 147 rcurveline
          22 -10 -13 14 -25 hhcurveto
          -22 -22 -8 -11 -23 hvcurveto
          95 -203 rlineto
          -71 hlineto
          -3 -13 -1 -8 -13 vvcurveto
          -14 1 -5 -4 callgsubr
          102 hlineto
          29 -63 rlineto
          -131 hlineto
          -3 -13 -1 -8 -13 19 callsubr
          -6 -4 callgsubr
          137 -137 hlineto
          -3 15 21 -1 14 hhcurveto
          16 17 -7 callgsubr
          137 vlineto
          endchar
        </CharString>
        <CharString name="z">
          -74 0 80 334 80 hstem
          35 377 vstem
          -63 callgsubr
          endchar
        </CharString>
        <CharString name="z.smcp">
          31 callgsubr
          hstem
          41 422 vstem
          -98 callgsubr
          endchar
        </CharString>
        <CharString name="zacute">
          -74 26 0 122 194 endchar
        </CharString>
        <CharString name="zacute.smcp">
          31 callgsubr
          44 6 callgsubr
          41 422 -281 217 -88 callsubr
          -89 250 -99 callgsubr
        </CharString>
        <CharString name="zcaron">
          -74 25 0 122 207 endchar
        </CharString>
        <CharString name="zcaron.smcp">
          31 callgsubr
          56 50 callsubr
          41 422 -350 292 -88 callsubr
          -108 397 -101 callsubr
        </CharString>
        <CharString name="zdotaccent">
          -74 0 80 334 80 93 89 hstemhm
          35 377 -252 119 hintmask 11010000
          -63 callgsubr
          hintmask 00101000
          -54 312 -92 callsubr
          endchar
        </CharString>
        <CharString name="zdotaccent.smcp">
          31 callgsubr
          93 89 hstemhm
          41 422 -270 119 -88 callsubr
          -78 301 -92 callsubr
          endchar
        </CharString>
        <CharString name="zero">
          10 -13 82 510 82 hstem
          46 109 220 109 vstem
          46 324 rmoveto
          -125 12 -89 61 -65 vhcurveto
          -35 35 42 -23 69 hhcurveto
          69 42 23 35 35 hvcurveto
          61 65 12 89 125 vvcurveto
          125 -12 89 -61 65 vhcurveto
          35 -35 -41 23 -69 hhcurveto
          -70 -42 -23 -35 -35 hvcurveto
          -61 -65 -12 -89 -125 vvcurveto
          109 hmoveto
          116 10 67 28 37 vhcurveto
          24 16 25 11 31 hhcurveto
          32 24 -11 -24 16 hvcurveto
          28 -37 10 -67 -116 vvcurveto
          -116 -10 -67 -28 -37 vhcurveto
          -24 -16 -24 -11 -32 hhcurveto
          -31 -25 11 24 -16 hvcurveto
          -28 37 -10 67 116 vvcurveto
          endchar
        </CharString>
        <CharString name="zero.smcp">
          -38 -13 79 414 79 hstem
          44 105 184 105 vstem
          44 273 rmoveto
          -95 9 -88 55 -52 vhcurveto
          -31 31 38 -20 64 hhcurveto
          64 38 20 31 31 hvcurveto
          55 52 9 88 95 vvcurveto
          95 -9 88 -55 53 vhcurveto
          30 -31 -37 20 -64 hhcurveto
          -65 -38 -20 -29 -31 hvcurveto
          -56 -53 -8 -89 -95 vvcurveto
          105 hmoveto
          92 8 61 24 28 vhcurveto
          17 13 20 9 27 hhcurveto
          28 19 -9 -17 14 hvcurveto
          24 -28 7 -61 -92 vvcurveto
          -92 -7 -61 -24 -28 vhcurveto
          -16 -14 -19 -10 -28 hhcurveto
          -27 -20 10 16 -13 hvcurveto
          -24 28 -8 61 92 vvcurveto
          endchar
        </CharString>
      <CharString index="0">
        207 121 rmoveto
        -28 callgsubr
        29 -81 rlineto
        -41 14 20 -7 28 hhcurveto
        19 25 4 8 16 hvcurveto
        -198 541 rlineto
        3 -18 -24 -11 callsubr
        -18 -27 -1 -3 -18 hvcurveto
        -199 -538 51 callsubr
        -77 callsubr
        17 200 -87 callgsubr
        return
      </CharString>
      <CharString index="1">
        -83 callsubr
        676 rlineto
        3 -15 -28 13 callsubr
        -28 -48 callgsubr
        -226 -676 3 -5 rlineto
        -63 callsubr
        -90 callgsubr
        return
      </CharString>
      <CharString index="2">
        247 86 rmoveto
        -25 -17 -1 -1 -18 hvcurveto
        13 1 15 -29 callgsubr
        14 1 17 -68 callgsubr
        16 15 -84 callsubr
        256 -48 callsubr
        return
      </CharString>
      <CharString index="3">
        hintmask 11101000
        -106 callgsubr
        return
      </CharString>
      <CharString index="4">
        hintmask 11101000
        -107 callgsubr
        return
      </CharString>
      <CharString index="5">
        hintmask 11101000
        -105 callgsubr
        return
      </CharString>
      <CharString index="6">
        539 482 rmoveto
        133 -88 72 -139 -68 -72 -2 -1 -75 vhcurveto
        -6 -7 rlineto
        -677 vlineto
        -38 callgsubr
        275 82 vlineto
        62 22 -36 -46 17 hvcurveto
        50 -135 rlineto
        -43 16 14 -22 40 hhcurveto
        27 31 12 21 14 hvcurveto
        -23 18 -12 27 -10 27 -44 117 rcurveline
        -14 39 -24 34 -33 12 rrcurveto
        73 23 55 67 92 vvcurveto
        -343 122 rmoveto
        -1 34 48 0 29 hhcurveto
        98 24 -60 -61 -58 -24 -62 -98 -28 -44 -1 -1 -39 hvcurveto
        return
      </CharString>
      <CharString index="7">
        492 386 rmoveto
        111 -83 52 -123 -65 -61 -1 -2 -71 vhcurveto
        -13 callgsubr
        22 1 callgsubr
        214 61 vlineto
        49 20 -18 -38 17 hvcurveto
        49 -111 rlineto
        -36 15 16 -18 35 hhcurveto
        28 28 14 19 14 hvcurveto
        -15 14 -14 24 -12 26 -37 84 rcurveline
        -15 34 -18 23 -34 12 rrcurveto
        63 15 53 56 72 vvcurveto
        -303 84 rmoveto
        29 37 -1 26 hhcurveto
        80 23 -43 -42 -41 -22 -46 -83 -21 -35 -1 -1 -34 hvcurveto
        return
      </CharString>
      <CharString index="8">
        rmoveto
        8 -19 19 -18 19 -5 171 133 rcurveline
        -11 29 -32 29 -30 10 rrcurveto
        endchar
      </CharString>
      <CharString index="9">
        55 105 rmoveto
        -10 -13 -4 -15 -14 vvcurveto
        -9 1 -9 11 -45 vhcurveto
        337 hlineto
        46 27 20 37 18 -3 13 -4 15 hvcurveto
        -11 -25 -38 -4 -44 hhcurveto
        -79 -1 -30 -1 -40 -1 -42 -4 rlinecurve
        -2 4 23 25 29 33 19 23 rlinecurve
        215 276 rlineto
        10 12 4 13 13 vvcurveto
        8 -2 9 -13 49 vhcurveto
        -374 hlineto
        -5 -19 -2 -14 -18 vvcurveto
        -12 1 -11 44 callgsubr
        136 hlineto
        22 88 1 5 32 hvcurveto
        3 -3 -26 -26 -30 -32 -18 -23 rlinecurve
        return
      </CharString>
      <CharString index="10">
        587 683 rmoveto
        3 -16 -23 -14 callgsubr
        -20 -48 callgsubr
        -443 vlineto
        -110 -50 -57 -96 -95 -51 57 110 vhcurveto
        379 vlineto
        -35 callgsubr
        -441 vlineto
        -166 99 -87 153 153 100 87 166 vhcurveto
        return
      </CharString>
      <CharString index="11">
        112 hintmask 11010100
        -105 callsubr
        return
      </CharString>
</ttFont>
